<svg width="24" height="24" viewBox="0 0 24 24" fill="none" xmlns="http://www.w3.org/2000/svg">
<g clip-path="url(#clip0_1105_10373)">
<path d="M11.9998 9.81641V14.4637H18.4579C18.1743 15.9582 17.3233 17.2237 16.047 18.0746L19.9415 21.0965C22.2106 19.002 23.5197 15.9256 23.5197 12.2711C23.5197 11.4202 23.4433 10.6019 23.3015 9.81654L11.9998 9.81641Z" fill="#4285F4"/>
<path d="M5.27461 14.2852L4.39625 14.9575L1.28711 17.3793C3.26165 21.2956 7.30862 24.0011 11.9995 24.0011C15.2394 24.0011 17.9557 22.932 19.9412 21.0994L16.0467 18.0775C14.9776 18.7975 13.614 19.2339 11.9995 19.2339C8.87951 19.2339 6.22868 17.1285 5.27952 14.2921L5.27461 14.2852Z" fill="#34A853"/>
<path d="M1.28718 6.62109C0.469042 8.23557 0 10.0574 0 11.9992C0 13.941 0.469042 15.7628 1.28718 17.3773C1.28718 17.3881 5.27997 14.2791 5.27997 14.2791C5.03998 13.5591 4.89812 12.7955 4.89812 11.9991C4.89812 11.2026 5.03998 10.439 5.27997 9.71902L1.28718 6.62109Z" fill="#FBBC05"/>
<path d="M11.9997 4.77818C13.767 4.77818 15.3379 5.38907 16.5925 6.56727L20.0288 3.13095C17.9452 1.18917 15.2398 0 11.9997 0C7.30887 0 3.26165 2.69454 1.28711 6.62183L5.27978 9.72001C6.22882 6.88362 8.87976 4.77818 11.9997 4.77818Z" fill="#EA4335"/>
</g>
<defs>
<clipPath id="clip0_1105_10373">
<rect width="24" height="24" fill="white"/>
</clipPath>
</defs>
</svg>
