<svg width="162" height="44" viewBox="0 0 162 44" fill="none" xmlns="http://www.w3.org/2000/svg">
<path d="M18.7401 43.1018V26.0479H149.311V43.1018H18.7401Z" fill="#FDBE16" stroke="#FDBE16" stroke-width="0.448872"/>
<path d="M125.793 6.65038L125.791 6.64853C124.172 5.17686 121.967 4.25974 119.51 4.22304H119.506H0.224436V3.76596C0.224436 1.80967 1.80967 0.224436 3.76596 0.224436H147.984C155.589 0.224436 161.748 5.91486 161.748 12.9478C161.748 16.4681 160.234 19.6729 157.732 21.9639L157.731 21.9651C155.226 24.2934 151.802 25.7069 147.984 25.7069H3.76596C1.88505 25.7069 0.347161 24.2415 0.231429 22.3898H119.506C121.983 22.3898 124.209 21.2165 125.813 19.4844C127.416 17.7533 128.411 15.4498 128.411 13.1629C128.411 10.8899 127.425 8.17147 125.793 6.65038Z" fill="#FDBE16" stroke="#FDBE16" stroke-width="0.448872"/>
<path d="M8.87141 4.48293V4.25849H8.64697H0.263498V3.27271H119.94C125.376 3.27271 129.83 7.69188 129.83 13.1626C129.83 15.8978 128.708 18.388 126.919 20.1771C126.006 21.0898 124.884 21.8606 123.625 22.3504L123.621 22.3517C122.502 22.8066 121.239 23.0525 119.94 23.0525H0.263498V22.0667H8.64697H8.87141V21.8423V4.48293Z" fill="#FDBE16" stroke="#FDBE16" stroke-width="0.448872"/>
<path d="M119.507 21.6188H5.53303V4.70832H119.507C121.848 4.70832 123.943 5.65113 125.481 7.18913C127.019 8.72713 127.962 10.8227 127.962 13.1635C127.962 17.8456 124.189 21.6188 119.507 21.6188Z" fill="#F2F2F2" stroke="#FDBE16" stroke-width="0.448872"/>
<path d="M5.30859 4.48389V21.8432" stroke="#FDBE16" stroke-width="2.24436" stroke-miterlimit="10"/>
<path d="M113.321 31.0503H103.763V16.7848C103.763 13.896 106.138 11.5576 108.955 11.5576H123.22V12.9737H118.997C115.861 12.9737 113.321 15.5131 113.321 18.6498V31.0503Z" fill="#FDBE16" stroke="#FDBE16" stroke-width="0.448872"/>
</svg>
