<svg width="552" height="387" viewBox="0 0 552 387" fill="none" xmlns="http://www.w3.org/2000/svg">
<path d="M512.866 145.441C523.281 185.089 506.43 226.476 470.43 261.36C434.443 296.231 379.427 324.479 313.9 337.775C248.374 351.07 184.836 346.876 135.097 329.398C85.3399 311.914 49.55 281.208 39.1344 241.559C28.7188 201.91 45.5703 160.524 81.5703 125.64C117.558 90.7683 172.573 62.5203 238.1 49.2252C303.626 35.93 367.164 40.1239 416.903 57.6018C466.66 75.0858 502.45 105.792 512.866 145.441Z" stroke="#F2F2F2" stroke-width="2"/>
<path d="M324.848 244.775L356.715 153.738V234C356.715 239.951 351.89 244.775 345.939 244.775H324.848Z" fill="#DB3B4D" stroke="#DB3B4D" stroke-width="0.448872"/>
<path d="M356.943 152.416L356.715 153.101L324.726 244.999H176L207.989 153.101L209.016 150.172C213.809 143.287 227.084 138.266 242.908 138C243.174 138 243.402 138 243.668 138C243.935 138 244.163 138 244.429 138C262.915 138 279.385 144.428 282.39 152.873C285.357 144.428 301.105 138 319.591 138C337.696 138 353.558 144.2 356.943 152.416Z" fill="white" stroke="#DB3B4D" stroke-width="2.69323" stroke-miterlimit="10"/>
<path d="M282.348 152.872L250.055 243.097" stroke="#DB3B4D" stroke-width="2.69323" stroke-miterlimit="10" stroke-linecap="round"/>
<path d="M237.137 233.287C243.648 235.932 248.213 239.57 249.669 243.634H176.313C177.762 239.567 182.154 235.929 188.477 233.286C194.94 230.585 203.373 228.944 212.592 228.944C221.849 228.944 230.482 230.585 237.137 233.287Z" fill="#DB3B4D" stroke="#DB3B4D" stroke-width="0.448872"/>
<path d="M311.691 233.287C318.203 235.932 322.768 239.57 324.224 243.634H250.867C252.317 239.567 256.709 235.929 263.032 233.286C269.495 230.585 277.928 228.944 287.147 228.944C296.403 228.944 305.037 230.585 311.691 233.287Z" fill="#DB3B4D" stroke="#DB3B4D" stroke-width="0.448872"/>
</svg>
