<svg width="552" height="387" viewBox="0 0 552 387" fill="none" xmlns="http://www.w3.org/2000/svg">
<path d="M512.866 145.441C523.281 185.089 506.43 226.476 470.43 261.36C434.443 296.231 379.427 324.479 313.9 337.775C248.374 351.07 184.836 346.876 135.097 329.398C85.3399 311.914 49.55 281.208 39.1344 241.559C28.7188 201.91 45.5703 160.524 81.5703 125.64C117.558 90.7683 172.573 62.5203 238.1 49.2252C303.626 35.93 367.164 40.1239 416.903 57.6018C466.66 75.0858 502.45 105.792 512.866 145.441Z" stroke="#F2F2F2" stroke-width="2"/>
<g clip-path="url(#clip0_2560_12402)">
<path d="M211.822 184.896C209.493 185.623 207.392 186.939 205.721 188.717C204.05 190.494 202.866 192.673 202.284 195.043L196.863 217.343C196.292 219.715 196.343 222.194 197.011 224.541C197.679 226.887 198.942 229.021 200.678 230.736L218.314 248.145C220.142 249.952 222.428 251.227 224.925 251.835C227.423 252.442 230.039 252.358 232.493 251.592L263.8 241.854L273.004 203.999L243.61 174.983L211.822 184.896Z" fill="#DB3B4D"/>
<path d="M233.568 216.279L205.712 188.731L233.568 216.279Z" fill="#DB3B4D"/>
<path d="M233.568 216.279L273.004 203.999L233.568 216.279Z" fill="#DB3B4D"/>
<path d="M233.568 216.279L224.918 251.865L233.568 216.279Z" fill="#DB3B4D"/>
<path d="M273.004 203.999L263.8 241.854L287.142 264.879C288.971 266.686 291.256 267.961 293.754 268.568C296.251 269.175 298.867 269.092 301.321 268.326L324.982 260.957C327.311 260.23 329.412 258.914 331.083 257.137C332.754 255.359 333.938 253.18 334.519 250.81L339.941 228.51C340.512 226.138 340.461 223.659 339.793 221.313C339.125 218.966 337.862 216.832 336.126 215.117L312.438 191.717L273.004 203.999Z" fill="#DB3B4D"/>
<path d="M302.398 233.014L273.004 203.999L302.398 233.014Z" fill="#DB3B4D"/>
<path d="M302.398 233.014L339.792 221.329L302.398 233.014Z" fill="#DB3B4D"/>
<path d="M302.398 233.014L293.746 268.598L302.398 233.014Z" fill="#DB3B4D"/>
<path d="M260.46 134.76C258.131 135.486 256.029 136.802 254.358 138.58C252.687 140.358 251.504 142.537 250.922 144.906L243.61 174.983L273.004 203.999L312.438 191.717L319.75 161.64C320.322 159.268 320.271 156.789 319.602 154.442C318.934 152.096 317.671 149.962 315.936 148.247L298.299 130.838C296.471 129.031 294.185 127.756 291.688 127.148C289.19 126.541 286.574 126.625 284.12 127.391L260.46 134.76Z" fill="#DB3B4D"/>
<path d="M282.206 166.142L254.35 138.594L282.206 166.142Z" fill="#DB3B4D"/>
<path d="M282.206 166.142L319.601 154.458L282.206 166.142Z" fill="#DB3B4D"/>
<path d="M273.004 203.999L282.206 166.142L273.004 203.999Z" fill="#DB3B4D"/>
<path d="M263.8 241.854L232.493 251.592C230.039 252.358 227.423 252.442 224.925 251.835C222.428 251.227 220.142 249.952 218.314 248.145L200.678 230.736C198.942 229.021 197.679 226.887 197.011 224.541C196.343 222.194 196.292 219.715 196.863 217.343L202.284 195.043C202.866 192.673 204.05 190.494 205.721 188.717C207.392 186.939 209.493 185.623 211.822 184.896L243.61 174.983M263.8 241.854L273.004 203.999M263.8 241.854L287.142 264.879C288.971 266.686 291.256 267.961 293.754 268.568C296.251 269.175 298.867 269.092 301.321 268.326L324.982 260.957C327.311 260.23 329.412 258.914 331.083 257.137C332.754 255.359 333.938 253.18 334.519 250.81L339.941 228.51C340.512 226.138 340.461 223.659 339.793 221.313C339.125 218.966 337.862 216.832 336.126 215.117L312.438 191.717M273.004 203.999L243.61 174.983M273.004 203.999L233.568 216.279M273.004 203.999L312.438 191.717M273.004 203.999L302.398 233.014M273.004 203.999L282.206 166.142M243.61 174.983L250.922 144.906C251.504 142.537 252.687 140.358 254.358 138.58C256.029 136.802 258.131 135.486 260.46 134.76L284.12 127.391C286.574 126.625 289.19 126.541 291.688 127.148C294.185 127.756 296.471 129.031 298.299 130.838L315.936 148.247C317.671 149.962 318.934 152.096 319.602 154.442C320.271 156.789 320.322 159.268 319.75 161.64L312.438 191.717M233.568 216.279L205.712 188.731M233.568 216.279L224.918 251.865M302.398 233.014L339.792 221.329M302.398 233.014L293.746 268.598M282.206 166.142L254.35 138.594M282.206 166.142L319.601 154.458" stroke="white" stroke-width="6" stroke-linecap="round" stroke-linejoin="round"/>
</g>
<defs>
<clipPath id="clip0_2560_12402">
<rect width="170" height="170" fill="white" transform="translate(213 91) rotate(13.6648)"/>
</clipPath>
</defs>
</svg>
