<svg width="366" height="173" viewBox="0 0 366 173" fill="none" xmlns="http://www.w3.org/2000/svg">
<path d="M102 133C102 79.4284 145.428 36 199 36C252.572 36 296 79.4284 296 133V263H102V133Z" stroke="#FFBFC0" stroke-width="6"/>
<path d="M69 133C69 61.203 127.203 3 199 3C270.797 3 329 61.203 329 133V263H69V133Z" stroke="#FFBFC0" stroke-width="6"/>
<path d="M86 133C86 70.5918 136.592 20 199 20C261.408 20 312 70.5918 312 133V263H86V133Z" stroke="#FFBFC0" stroke-width="6"/>
<path d="M119 133C119 88.8172 154.817 53 199 53C243.183 53 279 88.8172 279 133V263H119V133Z" stroke="#FFBFC0" stroke-width="6"/>
<path d="M136 132.5C136 97.9822 163.982 70 198.5 70C233.018 70 261 97.9822 261 132.5V263H136V132.5Z" stroke="#FFBFC0" stroke-width="6"/>
</svg>
