<svg width="117" height="84" viewBox="0 0 117 84" fill="none" xmlns="http://www.w3.org/2000/svg">
<path d="M39.2909 37.8381C27.2966 31.8527 15.303 25.8677 3.31017 19.883C1.7108 19.0848 0.738224 17.8675 0.578994 16.0584C0.395718 13.843 2.40322 11.6022 4.62812 11.684C5.46417 11.7316 6.28556 11.9243 7.05557 12.2535C8.24315 12.7404 9.36278 13.3894 10.5236 13.9454C11.542 14.4356 12.1308 14.232 12.6385 13.2197C14.4202 9.67012 16.1942 6.11504 17.9607 2.55446C18.4859 1.50197 19.3219 0.890727 20.4998 0.885678C20.9758 0.90745 21.4418 1.03014 21.8668 1.24561C23.138 1.83873 24.3763 2.49787 25.6392 3.1075C27.3087 3.89421 27.5804 5.73618 26.911 7.04665C25.1551 10.4827 23.4776 13.958 21.7227 17.392C21.0491 18.7056 21.3632 19.3778 22.6118 20.0009C40.2303 28.7723 57.8423 37.5567 75.4478 46.3542C76.719 46.9886 77.9902 47.623 79.2615 48.2574C80.3367 48.7939 81.0141 48.5572 81.561 47.482C83.0131 44.6237 84.3383 41.6944 85.9369 38.9196C88.2288 34.9467 91.797 32.8893 96.3983 32.8836C98.8197 32.8796 101.17 33.7015 103.061 35.2136C106.004 37.499 107.41 40.5386 107.586 44.1733C107.683 46.1784 107.131 48.0705 106.305 49.9009C106.084 50.391 105.825 50.8626 105.597 51.3517C105.178 52.2535 105.397 52.9506 106.288 53.411C107.533 54.0577 108.798 54.6632 110.044 55.3007C113.536 57.0432 115.736 59.8295 116.589 63.6266C117.274 66.6802 116.726 69.5511 115.069 72.2146C113.475 74.7697 111.173 76.4074 108.331 77.2575C105.364 78.1355 102.492 77.7231 99.7351 76.3782C98.4968 75.7603 97.2586 75.1424 96.0204 74.5245C94.5882 73.8098 94.0974 73.9824 93.3744 75.3951C93.0069 76.1582 92.5977 76.9006 92.1487 77.6188C89.9234 80.9985 86.8048 82.904 82.7432 83.1919C79.8625 83.3963 77.2976 82.4618 75.0776 80.7379C72.5634 78.7873 71.3071 76.057 70.9384 72.9269C70.6456 70.4609 71.2142 68.1438 72.3399 65.9397C73.6159 63.4447 74.8104 60.9064 76.1163 58.4289C76.7631 57.2051 76.6129 56.4471 75.2065 55.7478C63.2316 49.803 51.2597 43.8331 39.2909 37.8381ZM96.6005 61.8537C98.1928 58.9469 96.8564 55.4111 94.0673 54.0167C91.1657 52.5688 87.6905 53.5926 86.1818 56.6263C84.6731 59.6599 85.9176 63.0029 88.7893 64.4694C91.6135 65.9123 95.2217 64.8285 96.6005 61.8537Z" fill="#1E7151"/>
</svg>
