<svg width="552" height="387" viewBox="0 0 552 387" fill="none" xmlns="http://www.w3.org/2000/svg">
<path d="M512.866 145.441C523.281 185.089 506.43 226.476 470.43 261.36C434.443 296.231 379.427 324.479 313.9 337.775C248.374 351.07 184.836 346.876 135.097 329.398C85.3399 311.914 49.55 281.208 39.1344 241.559C28.7188 201.91 45.5703 160.524 81.5703 125.64C117.558 90.7683 172.573 62.5203 238.1 49.2252C303.626 35.93 367.164 40.1239 416.903 57.6018C466.66 75.0858 502.45 105.792 512.866 145.441Z" stroke="#F2F2F2" stroke-width="2"/>
<path d="M261.83 186.917H261.9H261.83Z" fill="#FFBFC0"/>
<path d="M290.163 151.5H290.234H290.163Z" fill="#FFBFC0"/>
<path d="M318.496 151.5H318.567H318.496Z" fill="#FFBFC0"/>
<path d="M237.038 201.792H237.109H237.038Z" fill="#FFBFC0"/>
<path d="M346.83 144.417C346.83 208.167 318.496 229.416 304.33 229.416C290.163 229.416 261.83 208.167 261.83 144.417C261.83 130.25 275.996 123.167 304.33 123.167C332.663 123.167 346.83 130.25 346.83 144.417Z" fill="#FFBFC0"/>
<path d="M314.247 179.124C308.58 184.791 300.08 184.791 294.414 179.124H314.247Z" fill="#FFBFC0"/>
<path d="M262.539 159.292C254.748 160.001 245.539 163.542 233.498 169.917C208.706 184.084 200.206 197.542 207.289 209.584C239.164 264.834 274.581 269.084 286.623 262.001C292.998 258.459 300.081 247.126 300.081 228.709" fill="#FFBFC0"/>
<path d="M255.455 225.874C257.58 218.083 265.372 213.833 272.455 215.958L255.455 225.874Z" fill="#FFBFC0"/>
<path d="M261.83 186.917H261.9M290.163 151.5H290.234M318.496 151.5H318.567M237.038 201.792H237.109M314.247 179.124C308.58 184.791 300.08 184.791 294.414 179.124M262.539 159.292C254.748 160.001 245.539 163.542 233.498 169.917C208.706 184.084 200.206 197.542 207.289 209.584C239.164 264.834 274.581 269.084 286.623 262.001C292.998 258.459 300.081 247.126 300.081 228.709M255.455 225.874C257.58 218.083 265.372 213.833 272.455 215.958M346.83 144.417C346.83 208.167 318.496 229.416 304.33 229.416C290.163 229.416 261.83 208.167 261.83 144.417C261.83 130.25 275.996 123.167 304.33 123.167C332.663 123.167 346.83 130.25 346.83 144.417Z" stroke="white" stroke-width="8" stroke-linecap="round" stroke-linejoin="round"/>
</svg>
