<svg width="552" height="387" viewBox="0 0 552 387" fill="none" xmlns="http://www.w3.org/2000/svg">
<path d="M512.866 145.441C523.281 185.09 506.43 226.476 470.43 261.36C434.443 296.232 379.427 324.48 313.9 337.775C248.374 351.07 184.836 346.876 135.097 329.398C85.3399 311.914 49.55 281.208 39.1344 241.559C28.7188 201.91 45.5703 160.524 81.5703 125.64C117.558 90.7686 172.573 62.5206 238.1 49.2254C303.626 35.9302 367.164 40.1241 416.903 57.602C466.66 75.086 502.45 105.792 512.866 145.441Z" stroke="#F2F2F2" stroke-width="2"/>
<g clip-path="url(#clip0_1814_28577)">
<path d="M340.073 122.178C338.02 122.206 336.05 122.982 334.536 124.359C334.101 124.757 333.694 125.156 333.287 125.593C316.452 143.031 299.614 160.469 282.773 177.907C281.892 178.748 281.291 179.836 281.052 181.026C280.036 186.114 278.811 191.128 277.732 196.19C277.559 196.966 277.605 197.774 277.865 198.526C278.496 200.119 279.787 200.626 281.432 200.148C286.342 198.733 291.23 197.217 296.171 195.946C297.669 195.554 299.017 194.73 300.044 193.578C316.872 175.903 333.718 158.248 350.583 140.612C353.779 137.264 353.854 132.414 350.665 129.046C348.994 127.276 347.204 125.609 345.39 123.978C343.869 122.615 341.961 122.194 340.073 122.178ZM288.26 180.799L332.017 135.757L340.216 143.551L296.465 188.889L288.26 180.799ZM344.851 138.859L336.607 131.008C337.191 130.412 337.842 129.685 338.55 129.019C339.631 128.011 341.088 127.911 342.177 128.874C343.753 130.272 345.284 131.725 346.753 133.239C347.226 133.695 347.501 134.316 347.522 134.97C347.542 135.625 347.305 136.261 346.861 136.744C346.207 137.545 345.438 138.239 344.85 138.844L344.851 138.859ZM284.133 192.967L285.688 186.535L290.818 191.434L284.133 192.967Z" fill="#FDBE16"/>
</g>
<path d="M265.077 232.253C264.874 232.247 264.687 232.251 264.495 232.238C261.388 232.027 258.281 231.764 255.182 231.626C252.965 231.534 250.742 231.608 248.61 232.391C247.247 232.865 246.095 233.801 245.355 235.036C244.615 236.27 244.332 237.725 244.558 239.146C244.928 241.741 246.208 243.905 247.721 245.964C250.763 250.1 254.24 253.869 257.711 257.646C258 257.942 258.247 258.277 258.445 258.64C257.486 258.097 256.551 257.509 255.558 257.038C253.191 255.917 250.84 254.741 248.401 253.799C245.755 252.778 243.034 251.935 240.309 251.135C238.196 250.516 236.032 250.057 233.881 249.575C231.843 249.117 229.793 248.723 227.748 248.299C227.567 248.261 227.381 248.247 227.201 248.209C225.121 247.843 224.503 249.555 224.773 250.918C224.992 252.069 225.628 253.027 226.28 253.964C226.808 254.723 227.372 255.456 227.921 256.2C228.049 256.356 228.131 256.545 228.156 256.746C228.014 256.695 227.866 256.656 227.73 256.594C224.835 255.294 221.984 253.88 219.036 252.715C216.172 251.589 213.251 250.615 210.285 249.796C207.353 248.989 193.547 245.426 190.57 244.803C189.675 244.615 199.907 248.05 199.757 248.847C196.681 247.8 197.437 248.725 198.323 248.906C200.533 249.356 205.393 251.34 207.572 251.911C210.237 252.611 212.878 253.396 215.486 254.313C218.113 255.241 220.704 256.293 223.245 257.439C227.33 259.299 231.248 261.502 234.958 264.025C235.413 264.332 235.851 264.689 236.477 264.568C236.745 264.533 237 264.428 237.214 264.264C237.429 264.099 237.596 263.881 237.699 263.632C237.912 263.108 237.65 262.694 237.298 262.321C235.043 259.921 232.763 257.541 230.556 255.107C229.634 254.091 228.845 252.951 228.014 251.856C227.859 251.605 227.727 251.34 227.619 251.065C227.871 251.075 228.027 251.07 228.192 251.089C232.113 251.506 235.99 252.26 239.781 253.343C243.512 254.428 247.147 255.819 250.649 257.501C255.409 259.784 259.899 262.591 264.034 265.869C266.588 267.897 268.993 270.105 271.229 272.477C271.704 272.978 272.233 273.253 272.94 273.007C273.916 272.665 274.208 271.715 273.53 270.935C272.625 269.894 271.688 268.884 270.764 267.863C265.548 262.112 260.3 256.391 255.133 250.597C253.246 248.482 251.502 246.233 249.773 243.983C248.655 242.53 247.769 240.924 247.404 239.081C246.997 236.965 247.971 235.293 250.094 234.761C251.267 234.468 252.471 234.315 253.68 234.306C258.38 234.316 263.073 234.681 267.719 235.398C269.45 235.656 271.182 235.932 272.907 236.274C274.078 236.505 274.774 235.317 274.48 234.447C274.406 234.241 274.282 234.056 274.121 233.907C273.96 233.759 273.765 233.651 273.553 233.593C270.635 232.547 267.948 230.949 265.639 228.886C262.065 225.698 259.611 221.825 258.662 217.107C258.202 214.817 258.143 212.506 258.793 210.231C259.405 208.078 260.801 206.647 262.855 205.796C264.57 205.086 266.38 204.832 268.201 204.616C268.408 204.592 268.601 204.556 268.8 204.527C269.684 204.4 270.121 203.855 270 202.995C269.894 202.185 269.258 201.716 268.424 201.817C266.287 202.072 264.157 202.377 262.131 203.151C259.619 204.106 257.682 205.702 256.604 208.202C256.071 209.438 255.747 210.753 255.643 212.095C255.279 216.677 256.384 220.903 258.741 224.832C260.319 227.458 262.346 229.789 264.73 231.719L265.181 232.095L265.077 232.253Z" fill="#FDBE16"/>
<defs>
<clipPath id="clip0_1814_28577">
<rect width="76.9093" height="76.7385" fill="white" transform="matrix(-0.0217541 -0.999763 -0.999787 0.0206547 354.422 198.809)"/>
</clipPath>
</defs>
</svg>
