<svg width="552" height="387" viewBox="0 0 552 387" fill="none" xmlns="http://www.w3.org/2000/svg">
<path d="M512.866 145.441C523.281 185.089 506.43 226.476 470.43 261.36C434.443 296.231 379.427 324.479 313.9 337.775C248.374 351.07 184.836 346.876 135.097 329.398C85.3399 311.914 49.55 281.208 39.1344 241.559C28.7188 201.91 45.5703 160.524 81.5703 125.64C117.558 90.7683 172.573 62.5203 238.1 49.2252C303.626 35.93 367.164 40.1239 416.903 57.6018C466.66 75.0858 502.45 105.792 512.866 145.441Z" stroke="#F2F2F2" stroke-width="2"/>
<path d="M341.929 236.293L341.93 236.295C344.49 245.255 342.403 254.874 336.162 261.921L336.158 261.926C330.053 268.994 320.829 272.503 311.582 271.307L221.945 259.718C212.353 258.478 204.224 252.447 200.239 243.652C196.255 234.859 197.132 224.802 202.529 216.725L217.813 194.063C222.248 187.527 228.077 184.001 234.261 184.18C240.453 184.359 246.106 188.048 250.222 194.84C250.222 194.84 250.222 194.841 250.223 194.841L251.512 197.004C254.559 202.127 258.818 205.159 263.52 205.319C268.138 205.54 272.675 202.91 276.202 198.13L292.646 175.902L292.646 175.901C298.746 167.622 305.719 163.937 312.144 165.11L312.144 165.11C318.64 166.293 323.825 172.18 326.589 182.028L326.59 182.029L341.929 236.293Z" fill="#1E7151" stroke="#1E7151"/>
<path d="M270.672 142.46C269.012 155.3 257.258 164.363 244.419 162.703C231.579 161.043 222.516 149.288 224.176 136.449C225.836 123.609 237.59 114.546 250.43 116.206C263.27 117.866 272.332 129.621 270.672 142.46Z" fill="#1E7151" stroke="#1E7151"/>
</svg>
