<svg width="552" height="387" viewBox="0 0 552 387" fill="none" xmlns="http://www.w3.org/2000/svg">
<path d="M512.866 145.441C523.281 185.09 506.43 226.476 470.43 261.36C434.443 296.232 379.427 324.48 313.9 337.775C248.374 351.07 184.836 346.876 135.097 329.398C85.3399 311.914 49.55 281.208 39.1344 241.559C28.7188 201.91 45.5703 160.524 81.5703 125.64C117.558 90.7686 172.573 62.5206 238.1 49.2254C303.626 35.9302 367.164 40.1241 416.903 57.602C466.66 75.086 502.45 105.792 512.866 145.441Z" stroke="#F2F2F2" stroke-width="2"/>
<path fill-rule="evenodd" clip-rule="evenodd" d="M227.399 176.846C236.907 143.416 271.735 123.926 305.131 133.391C338.612 142.882 358.066 177.721 348.624 211.157C339.17 244.631 304.144 264.081 270.848 254.639C237.388 245.151 217.918 210.169 227.399 176.846ZM346.848 200.306C347.887 189.858 346.363 179.772 342.085 170.154C336.615 157.882 327.988 148.518 316.201 142.062C316.229 142.286 316.299 142.503 316.408 142.701C316.72 143.368 317.047 144.03 317.375 144.691C318.093 146.142 318.811 147.593 319.36 149.106C321.643 155.392 322.526 161.955 322.619 168.609C322.659 171.36 322.522 174.118 322.386 176.874V176.874V176.875V176.875V176.875V176.875V176.875V176.875V176.875V176.875L322.386 176.876L322.386 176.877C322.337 177.872 322.288 178.867 322.247 179.862C322.227 180.334 322.281 180.62 322.761 180.83C323.093 180.983 323.368 181.237 323.548 181.556C323.727 181.874 323.802 182.241 323.761 182.604C323.656 183.561 323.25 184.104 322.364 184.262C321.919 184.341 321.851 184.57 321.79 184.916C321.603 185.974 321.424 187.034 321.244 188.094C320.806 190.681 320.367 193.268 319.827 195.834C318.134 203.854 315.43 211.555 312.174 219.067C312.099 219.282 312.038 219.501 311.989 219.723C312.086 219.751 312.184 219.773 312.283 219.787C312.926 219.805 313.57 219.83 314.214 219.854C315.657 219.909 317.101 219.964 318.534 219.947C322.934 219.897 327.312 219.575 331.624 218.635C334.993 217.899 338.264 216.883 341.142 214.915C342.923 213.705 344.365 212.191 344.967 210.056C345.386 208.587 345.763 207.103 346.113 205.614C346.23 205.123 346.293 204.622 346.357 204.103L346.357 204.103L346.358 204.103L346.358 204.103L346.358 204.102L346.358 204.102L346.358 204.102L346.358 204.102L346.358 204.102L346.358 204.102L346.358 204.102C346.387 203.867 346.417 203.629 346.452 203.387C346.389 203.4 346.335 203.41 346.288 203.419C346.207 203.434 346.145 203.445 346.087 203.465C344.883 203.879 344.205 203.639 343.517 202.564C343.174 201.975 342.799 201.406 342.392 200.859C341.831 200.163 341.252 199.48 340.672 198.797C340.17 198.205 339.667 197.613 339.176 197.012C338.407 196.078 338.539 195.007 339.451 194.206C340.229 193.517 341.184 193.554 341.97 194.429C343.177 195.758 344.327 197.137 345.46 198.528C345.774 198.914 346.039 199.339 346.305 199.765C346.429 199.964 346.553 200.162 346.682 200.357L346.848 200.306ZM234.85 172.884C233.435 173.928 232.201 175.139 231.469 176.763C230.606 178.682 230.676 180.656 231.31 182.629C232.157 185.302 233.755 187.534 235.591 189.6C238.149 192.484 241.095 194.926 244.228 197.161C247.529 199.496 250.978 201.615 254.554 203.503C254.751 203.597 254.974 203.621 255.187 203.573C256.346 203.273 257.063 203.612 257.596 204.707C257.707 204.942 257.889 205.136 258.115 205.263C258.461 205.434 258.806 205.606 259.152 205.777L259.154 205.778L259.156 205.78L259.158 205.781L259.16 205.782L259.162 205.783C260.59 206.493 262.019 207.204 263.489 207.811C266.451 209.031 269.436 210.198 272.451 211.28C278.823 213.55 285.337 215.398 291.951 216.812C294.649 217.397 297.334 217.945 300.044 218.402C301.998 218.73 303.967 218.965 305.936 219.2L305.941 219.201C306.412 219.257 306.883 219.313 307.355 219.371C307.467 219.37 307.578 219.342 307.677 219.289C307.777 219.237 307.862 219.162 307.927 219.07C308.13 218.711 308.296 218.33 308.461 217.949C308.526 217.799 308.591 217.649 308.659 217.501C310.702 212.932 312.451 208.238 313.896 203.446C315.478 198.33 316.585 193.079 317.478 187.794C317.739 186.247 317.911 184.685 318.078 183.124C318.073 182.993 318.037 182.866 317.974 182.752C317.91 182.638 317.821 182.541 317.713 182.468C317.05 182.122 316.377 181.797 315.704 181.473C315.15 181.207 314.596 180.94 314.048 180.661C313.171 180.21 312.861 178.976 313.35 178.066C313.469 177.854 313.628 177.667 313.82 177.517C314.011 177.367 314.23 177.256 314.464 177.19C314.699 177.125 314.944 177.107 315.185 177.137C315.426 177.167 315.659 177.244 315.871 177.365C316.395 177.637 316.933 177.882 317.503 178.141C317.756 178.256 318.015 178.374 318.282 178.499C318.304 178.359 318.326 178.24 318.345 178.133L318.345 178.132L318.345 178.132L318.345 178.132L318.345 178.131L318.345 178.131L318.346 178.131L318.346 178.13L318.346 178.13L318.346 178.13L318.346 178.129C318.381 177.938 318.408 177.786 318.415 177.633C318.433 177.237 318.453 176.841 318.473 176.445C318.535 175.232 318.597 174.02 318.604 172.808C318.658 168.95 318.461 165.093 318.013 161.261C317.435 156.591 316.476 152.02 314.538 147.705C312.573 143.331 309.814 139.67 305.319 137.594C303.738 136.867 302.093 136.365 300.342 136.532C298.937 136.668 297.542 136.927 296.153 137.185L296.079 137.199C294.802 137.435 293.875 136.869 293.708 135.627C293.709 135.549 293.693 135.471 293.66 135.4C293.628 135.329 293.581 135.265 293.521 135.214C293.462 135.163 293.392 135.125 293.317 135.104C293.242 135.083 293.163 135.078 293.085 135.09C292.374 135.068 291.661 135.036 290.949 135.005C289.435 134.939 287.921 134.873 286.41 134.891C281.1 134.981 275.832 135.833 270.764 137.42C264.01 139.481 257.679 142.736 252.074 147.032C247.949 150.182 244.249 153.764 241.172 157.94C239.5 160.21 237.991 162.606 236.495 164.998C235.982 165.82 235.561 166.698 235.139 167.577L235.139 167.577C234.943 167.986 234.747 168.395 234.541 168.799C234.316 169.239 234.262 169.551 234.856 169.806C235.206 170.017 235.472 170.342 235.611 170.726C235.932 171.501 235.617 172.326 234.85 172.884ZM274.147 251.194C276.92 251.475 279.562 250.857 282.098 249.745C286.005 248.02 289.293 245.41 292.31 242.428C295.054 239.741 297.506 236.772 299.627 233.57C301.088 231.331 302.473 229.044 303.858 226.757L303.858 226.757L303.858 226.756L303.858 226.756L303.858 226.756L303.858 226.756L303.859 226.756L303.859 226.756L303.859 226.756L303.859 226.755L303.859 226.755C304.279 226.062 304.698 225.369 305.12 224.678C305.335 224.326 305.512 223.95 305.705 223.538L305.705 223.538C305.796 223.345 305.89 223.144 305.994 222.934C289.235 221.065 272.897 216.459 257.631 209.298C257.55 209.513 257.488 209.735 257.444 209.96C257.425 210.193 257.405 210.425 257.385 210.658L257.385 210.659C257.317 211.435 257.249 212.211 257.246 212.987C257.25 214.312 256.551 215.003 255.141 214.959C254.177 214.927 253.427 213.946 253.499 212.857C253.546 212.17 253.585 211.482 253.624 210.794L253.624 210.794L253.624 210.794C253.673 209.916 253.723 209.038 253.79 208.161C253.82 207.979 253.787 207.793 253.696 207.632C253.606 207.471 253.465 207.345 253.294 207.275L253.247 207.249L253.246 207.249C251.907 206.514 250.558 205.774 249.242 205.013C245.692 202.993 242.3 200.706 239.096 198.172C235.726 195.484 232.615 192.547 230.189 188.949C229.913 188.528 229.637 188.107 229.285 187.577C229.212 187.765 229.157 187.959 229.121 188.158C229.099 189.027 229.065 189.896 229.031 190.765L229.031 190.765L229.031 190.765L229.031 190.765L229.031 190.765L229.031 190.765L229.031 190.765L229.031 190.765L229.031 190.765L229.031 190.765L229.031 190.765C228.951 192.808 228.872 194.848 228.941 196.883C229.122 201.402 229.862 205.882 231.143 210.219C233.185 217.37 236.566 224.069 241.106 229.958C243.209 232.691 245.552 235.23 248.108 237.544C250.713 239.902 253.467 242.075 256.508 243.841C257.967 244.686 259.462 245.471 260.958 246.256L260.958 246.256L260.958 246.257L260.958 246.257L260.959 246.257L260.959 246.257L260.959 246.257L260.96 246.257L260.96 246.258L260.96 246.258L260.96 246.258L260.961 246.258C261.638 246.614 262.315 246.969 262.989 247.33C263.126 247.418 263.288 247.458 263.45 247.444C263.613 247.431 263.766 247.365 263.887 247.256C264.699 246.674 265.426 246.732 266.204 247.37C266.392 247.523 266.573 247.685 266.754 247.846L266.754 247.846C266.972 248.041 267.191 248.236 267.421 248.418C269.344 249.98 271.682 250.945 274.147 251.194ZM284.729 253.13C296.867 253.666 307.963 250.93 318.204 244.819L318.192 244.816C328.439 238.694 336.11 230.191 341.256 219.435L341.107 219.269C340.975 219.304 340.846 219.349 340.721 219.403C337.38 221.125 333.802 222.088 330.13 222.736C323.897 223.839 317.613 223.918 311.318 223.542L311.207 223.535C310.509 223.492 310.235 223.475 310.065 223.6C309.956 223.68 309.889 223.818 309.78 224.046L309.78 224.046L309.779 224.046L309.779 224.046C309.706 224.197 309.615 224.388 309.479 224.626C308.849 225.729 308.24 226.845 307.631 227.961L307.631 227.961L307.631 227.961L307.631 227.961L307.631 227.961L307.631 227.961L307.631 227.961L307.631 227.961C306.668 229.726 305.706 231.49 304.66 233.203C302.469 236.8 299.939 240.178 297.102 243.291C293.668 247.06 289.882 250.38 285.306 252.704C285.104 252.833 284.912 252.975 284.729 253.13ZM256.046 168.094C255.943 168.097 255.84 168.1 255.738 168.091C254.59 167.989 253.879 167.425 253.876 166.631C253.89 165.582 254.913 164.518 255.942 164.529C258.428 164.571 260.907 164.626 263.382 164.694C264.178 164.717 264.811 165.071 265.276 166.002C265.375 165.809 265.461 165.642 265.538 165.492L265.539 165.491C265.656 165.262 265.756 165.069 265.853 164.874C266.05 164.481 266.245 164.086 266.44 163.692L266.441 163.691C266.886 162.791 267.331 161.891 267.803 161.005C268.316 160.045 269.54 159.788 270.483 160.398C270.7 160.539 270.886 160.721 271.032 160.934C271.177 161.148 271.279 161.388 271.331 161.641C271.383 161.894 271.385 162.155 271.335 162.409C271.286 162.662 271.186 162.904 271.043 163.119C270.741 163.586 270.47 164.072 270.185 164.584L270.185 164.584L270.184 164.585C270.02 164.88 269.85 165.184 269.667 165.498C271.357 164.979 272.937 165.259 274.497 165.534C275.153 165.651 275.807 165.766 276.463 165.821C277.223 165.903 277.978 166.035 278.721 166.215C279.584 166.397 280.277 166.85 280.494 167.748C280.57 168.036 280.575 168.338 280.507 168.628C280.44 168.919 280.302 169.188 280.106 169.413C279.911 169.638 279.663 169.811 279.385 169.919C279.107 170.026 278.807 170.063 278.511 170.028C277.698 169.95 276.89 169.819 276.082 169.686L276.081 169.686L276.081 169.686L276.081 169.686L276.081 169.686L276.081 169.686L276.081 169.686L276.08 169.686L276.08 169.686L276.08 169.686L276.08 169.686C275.624 169.612 275.168 169.537 274.711 169.473C274.52 169.447 274.329 169.422 274.139 169.396C273.223 169.274 272.308 169.151 271.391 169.053C270.056 168.909 269.464 168.479 268.956 167.114L268.642 167.71L268.642 167.711L268.639 167.716L268.639 167.716C268.347 168.269 268.074 168.788 267.799 169.305C267.244 170.349 266.489 170.766 265.617 170.497C265.163 170.368 264.774 170.072 264.53 169.668C264.286 169.263 264.205 168.781 264.303 168.319C264.313 168.265 264.282 168.202 264.289 168.233C263.769 168.218 263.254 168.201 262.74 168.185L262.737 168.185L262.736 168.185C261.76 168.154 260.791 168.123 259.821 168.104C258.949 168.088 258.074 168.089 257.2 168.09H257.2H257.2H257.2H257.2H257.2H257.199H257.199H257.199H257.199H257.199C256.877 168.091 256.555 168.092 256.234 168.091C256.172 168.09 256.109 168.092 256.046 168.094ZM240.881 170.2L248.426 168.551C249.179 168.389 249.684 167.961 249.863 167.263C250.264 165.842 249.229 164.66 247.79 164.846L247.696 164.858L247.696 164.858C246.749 164.981 245.796 165.104 244.859 165.31C243.228 165.655 241.598 166.017 239.991 166.462C238.94 166.756 238.465 167.802 238.77 168.833C239.076 169.864 239.949 170.402 240.881 170.2ZM275.007 156.407C274.302 157.409 273.142 157.66 272.193 157.013C271.319 156.416 271.18 155.205 271.878 154.222L272.026 154.014C273.429 152.033 274.83 150.057 276.245 148.089C276.466 147.747 276.791 147.485 277.172 147.343C277.553 147.2 277.97 147.184 278.361 147.297C279.761 147.704 280.119 149.155 279.163 150.502C278.132 151.955 277.109 153.414 276.085 154.873L276.082 154.876L276.082 154.877L276.082 154.877L276.082 154.878L276.081 154.878L276.081 154.879L276.081 154.879L276.08 154.879C275.723 155.389 275.365 155.898 275.007 156.407ZM259.995 184.953C260.227 185.027 260.471 185.054 260.714 185.032C260.957 185.01 261.192 184.939 261.407 184.824C261.622 184.709 261.811 184.552 261.964 184.362C262.117 184.173 262.23 183.954 262.296 183.72C263.093 181.363 263.88 179.019 264.657 176.665C264.821 176.196 264.817 175.685 264.648 175.218C264.478 174.751 264.152 174.357 263.725 174.102C263.143 173.75 262.223 173.937 261.591 174.595C261.37 174.813 261.197 175.075 261.085 175.364L260.908 175.882C260.139 178.134 259.369 180.387 258.652 182.656C258.365 183.566 259.079 184.684 259.995 184.953ZM289.002 172.452L285.604 171.494C284.546 171.201 283.872 170.167 284.076 169.213C284.281 168.259 285.454 167.541 286.505 167.796C288.891 168.376 291.274 168.981 293.652 169.61C294.087 169.713 294.477 169.956 294.761 170.303C295.044 170.649 295.206 171.079 295.22 171.526C295.244 171.933 295.125 172.335 294.883 172.662C294.641 172.99 294.292 173.222 293.897 173.319C293.456 173.409 293 173.397 292.564 173.284C291.715 173.076 290.875 172.833 290.034 172.591L290.034 172.59L290.034 172.59L290.034 172.59L290.033 172.59L290.033 172.59L290.033 172.59C289.703 172.495 289.373 172.4 289.043 172.306L289.002 172.452ZM282.665 145.366C283.148 145.484 283.76 145.143 284.372 144.65C284.667 144.408 284.962 144.167 285.257 143.925L285.257 143.925L285.257 143.925L285.257 143.924L285.258 143.924L285.259 143.923C286.779 142.677 288.3 141.43 289.872 140.248C290.289 139.954 290.577 139.511 290.676 139.01C290.776 138.51 290.679 137.99 290.405 137.559C289.91 136.854 288.668 136.396 287.697 137.093C287.419 137.295 287.131 137.484 286.843 137.673L286.843 137.673C286.386 137.972 285.931 138.27 285.519 138.621L285.437 138.691C284.068 139.854 282.695 141.022 281.44 142.303C280.483 143.29 281.044 144.927 282.665 145.366ZM258.315 188.489C259.648 188.163 260.839 189.469 260.524 190.88C260.391 191.473 260.255 192.066 260.119 192.659L260.119 192.659L260.119 192.659L260.119 192.659L260.119 192.659C259.864 193.776 259.609 194.891 259.369 196.011C259.263 196.512 259.198 197.021 259.138 197.496C259.111 197.709 259.085 197.914 259.056 198.109C258.774 199.273 257.801 199.895 256.737 199.68C256.248 199.57 255.823 199.271 255.555 198.849C255.287 198.426 255.198 197.914 255.307 197.426C255.677 195.558 256.056 193.692 256.435 191.825C256.556 191.227 256.677 190.629 256.799 190.031C256.865 189.65 257.046 189.299 257.317 189.024C257.588 188.748 257.936 188.562 258.315 188.489ZM299.833 175.258C300.188 175.422 300.554 175.564 300.926 175.683C301.505 175.896 302.084 176.108 302.663 176.321L302.664 176.321C304.158 176.869 305.651 177.417 307.135 177.986C308.056 178.338 308.975 178.171 309.545 177.449C309.819 177.112 309.959 176.685 309.938 176.251C309.918 175.817 309.738 175.405 309.434 175.095C309.028 174.692 308.538 174.384 307.998 174.194C307.024 173.823 306.041 173.474 305.058 173.126C304.076 172.777 303.093 172.428 302.119 172.057C300.608 171.484 299.662 171.88 299.127 173.415C298.825 174.256 299.036 174.845 299.833 175.258ZM258.487 234.209C258.938 234.428 259.286 234.815 259.457 235.287L259.638 235.748L259.639 235.749C260.48 237.881 261.32 240.01 262.18 242.125C262.483 242.88 262.401 243.528 261.834 244.119C261.574 244.411 261.244 244.633 260.875 244.765C260.507 244.897 260.111 244.934 259.724 244.874C259.615 244.769 259.494 244.67 259.374 244.572C259.116 244.359 258.858 244.147 258.702 243.876C257.384 241.509 256.397 238.973 255.768 236.338C255.643 235.874 255.707 235.38 255.945 234.963C256.184 234.547 256.577 234.242 257.04 234.115C257.516 233.957 258.035 233.99 258.487 234.209ZM257.965 227.621C257.738 225.428 257.529 223.235 257.336 221.042C257.245 219.984 256.712 219.193 255.878 218.946C254.764 218.611 253.514 219.438 253.473 220.611C253.435 221.62 253.469 222.63 253.573 223.634C253.761 225.393 253.955 227.159 254.286 228.894C254.557 230.315 256.055 230.75 257.169 229.838C257.88 229.257 258.056 228.498 257.965 227.621ZM330.753 190.104C329.682 189.37 328.611 188.636 327.549 187.887C326.508 187.149 326.345 186.172 327.019 185.208C327.619 184.363 328.705 184.173 329.666 184.774C329.82 184.871 329.974 184.968 330.128 185.064C331.036 185.634 331.937 186.199 332.841 186.813C333.898 187.532 334.928 188.295 335.951 189.058C336.613 189.549 336.989 190.21 336.786 191.049C336.708 191.438 336.512 191.793 336.225 192.067C335.937 192.341 335.573 192.519 335.181 192.578C334.864 192.605 334.545 192.602 334.229 192.568C334.082 192.46 333.933 192.347 333.78 192.231C333.463 191.991 333.133 191.74 332.791 191.505C332.114 191.035 331.434 190.569 330.753 190.104Z" fill="#1E7151"/>
</svg>
