<svg width="49" height="38" viewBox="0 0 49 38" fill="none" xmlns="http://www.w3.org/2000/svg">
<path d="M19.0218 0C20.7609 0.434782 21.8914 1.82608 22.4131 4.17391C19.8914 5.56521 17.3262 7.65217 14.7175 10.4348C12.1088 13.2174 10.2826 16.2609 9.23914 19.5652H9.63048C12.9348 19.5652 15.5 20.4348 17.3261 22.1739C19.2392 23.8261 20.1957 26 20.1957 28.6956C20.1957 31.2174 19.2392 33.3478 17.3261 35.087C15.5 36.8261 13.2827 37.6956 10.674 37.6956C7.54353 37.6956 5.06529 36.6087 3.2392 34.4348C1.41311 32.1739 0.5 29.4783 0.5 26.3478C0.5 21.0435 2.19568 16.3043 5.58698 12.1304C8.97828 7.95652 13.4565 3.91304 19.0218 0ZM45.1087 0C46.8479 0.434782 47.9783 1.82608 48.5 4.17391C45.9783 5.56521 43.413 7.65217 40.8043 10.4348C38.1956 13.2174 36.3696 16.2609 35.3261 19.5652H35.7174C39.0218 19.5652 41.587 20.4348 43.4131 22.1739C45.3261 23.8261 46.2827 26 46.2827 28.6956C46.2827 31.2174 45.3261 33.3478 43.4131 35.087C41.587 36.8261 39.3696 37.6956 36.7609 37.6956C33.6305 37.6956 31.1522 36.6087 29.3261 34.4348C27.5 32.1739 26.587 29.4783 26.587 26.3478C26.587 21.0435 28.2826 16.3043 31.674 12.1304C35.0653 7.95652 39.5435 3.91304 45.1087 0Z" fill="#DB3B4D"/>
</svg>
