<svg width="155" height="145" viewBox="0 0 155 145" fill="none" xmlns="http://www.w3.org/2000/svg">
<path d="M1.15758 56.1551C2.65908 56.4795 4.20953 56.6093 5.73833 56.8147C11.99 57.6635 18.2526 58.4366 24.4879 59.3989C27.7639 59.9125 31.1927 60.3937 34.2722 61.5993C42.1837 64.6863 47.4635 70.4602 49.5602 78.6562C50.6522 83.0353 51.0999 87.5927 51.7442 92.0853C52.5359 97.4916 53.2187 102.957 54.0268 108.38C54.1142 108.958 54.7257 109.461 55.3209 110.326C55.9652 109.537 56.4728 109.142 56.6475 108.639C56.814 107.939 56.9111 107.223 56.937 106.504C57.8052 100.178 58.5745 93.8424 59.5737 87.5332C60.1197 83.857 60.5241 80.0618 61.7908 76.6072C65.2852 67.1083 72.3993 61.556 82.4348 59.9341C89.6475 58.7718 96.9206 57.9879 104.166 57.0148C106.006 56.7661 107.856 56.5119 109.669 56.0956C109.935 55.9779 110.169 55.7988 110.351 55.5729C110.532 55.3471 110.656 55.0814 110.712 54.7982C110.756 54.463 110.117 53.798 109.675 53.7169C108.432 53.4598 107.176 53.2685 105.913 53.1438C99.6192 52.2896 93.3222 51.4354 87.0214 50.5812C83.2922 50.0676 79.5141 49.7487 76.0252 48.1863C66.563 43.9478 61.3974 36.5953 60.1197 26.4801C59.3007 19.9926 58.5148 13.4455 57.6958 6.93089C57.461 5.05491 57.2423 3.14657 56.8437 1.33547C56.7345 0.79484 56.0143 0.443315 55.572 0C55.1125 0.411189 54.6902 0.861777 54.3105 1.34629C54.1448 1.71735 54.0609 2.11913 54.0647 2.52482C53.7807 4.68734 53.5186 6.89845 53.2238 9.08259C52.3884 15.143 51.504 21.1927 50.6959 27.2532C49.9879 33.293 47.1771 38.8999 42.7464 43.1098C37.5757 48.0836 31.1272 49.8136 24.2149 50.6029C17.854 51.3327 11.5203 52.2788 5.1758 53.1276C3.77824 53.2597 2.38917 53.4691 1.01522 53.7548C0.748948 53.8684 0.516191 54.047 0.338584 54.2739C0.160977 54.5008 0.0446634 54.7686 0 55.0522C0.00546 55.4253 0.682564 56.0524 1.15758 56.1551Z" fill="#FFBFC0"/>
<path d="M83.0048 110.95C83.9915 111.154 85.0104 111.235 86.015 111.364C90.1233 111.898 94.2387 112.384 98.3362 112.989C100.489 113.311 102.742 113.614 104.766 114.372C109.965 116.312 113.434 119.941 114.812 125.093C115.53 127.846 115.824 130.71 116.247 133.534C116.768 136.933 117.216 140.368 117.747 143.777C117.805 144.14 118.207 144.456 118.598 145C119.021 144.504 119.355 144.256 119.47 143.94C119.579 143.499 119.643 143.05 119.66 142.597C120.23 138.621 120.736 134.639 121.393 130.673C121.751 128.362 122.017 125.977 122.85 123.805C125.146 117.834 129.821 114.344 136.416 113.325C141.155 112.594 145.935 112.102 150.696 111.49C151.905 111.334 153.121 111.174 154.312 110.912C154.487 110.838 154.641 110.726 154.76 110.584C154.88 110.442 154.961 110.275 154.998 110.097C155.027 109.886 154.607 109.468 154.316 109.417C153.5 109.255 152.674 109.135 151.844 109.057C147.708 108.52 143.57 107.983 139.43 107.446C136.979 107.123 134.496 106.923 132.204 105.941C125.986 103.276 122.591 98.6548 121.751 92.2967C121.213 88.2189 120.697 84.1035 120.159 80.0087C120.004 78.8295 119.861 77.6299 119.599 76.4915C119.527 76.1517 119.054 75.9308 118.763 75.6521C118.461 75.9106 118.183 76.1938 117.934 76.4983C117.825 76.7316 117.77 76.9841 117.772 77.2391C117.586 78.5984 117.414 79.9883 117.22 81.3612C116.671 85.1706 116.09 88.9732 115.559 92.7827C115.093 96.5791 113.246 100.103 110.335 102.75C106.937 105.876 102.699 106.963 98.1568 107.46C93.9768 107.918 89.8146 108.513 85.6454 109.047C84.727 109.13 83.8142 109.261 82.9113 109.441C82.7363 109.512 82.5834 109.624 82.4666 109.767C82.3499 109.91 82.2735 110.078 82.2441 110.256C82.2477 110.491 82.6927 110.885 83.0048 110.95Z" fill="#FFBFC0"/>
</svg>
