<svg width="552" height="387" viewBox="0 0 552 387" fill="none" xmlns="http://www.w3.org/2000/svg">
<path d="M512.866 145.441C523.281 185.089 506.43 226.476 470.43 261.36C434.443 296.231 379.427 324.479 313.9 337.775C248.374 351.07 184.836 346.876 135.097 329.398C85.3399 311.914 49.55 281.208 39.1344 241.559C28.7188 201.91 45.5703 160.524 81.5703 125.64C117.558 90.7683 172.573 62.5203 238.1 49.2252C303.626 35.93 367.164 40.1239 416.903 57.6018C466.66 75.0858 502.45 105.792 512.866 145.441Z" stroke="#F2F2F2" stroke-width="2"/>
<path d="M289.276 141.69L303.159 159.183C305.044 161.609 309.118 163.431 312.216 163.359L330.504 162.555C342.196 162.051 346.55 169.677 340.159 179.561L329.264 196.256C327.457 199.024 327.088 203.806 328.535 206.904L336.071 223.126C342.017 235.918 335.915 242.702 322.575 238.123L303.939 231.762C300.58 230.586 295.589 231.635 292.987 234.064L278.489 247.39C268.107 256.883 259.805 253.199 260.098 239.096L260.464 221.213C260.389 217.755 258.124 213.526 255.356 211.719L238.662 200.824C228.847 194.419 229.762 185.686 240.653 181.37L257.717 174.743C260.595 173.631 263.577 170.254 264.326 167.273L269.991 145.671C273.113 134.013 281.709 132.206 289.276 141.69Z" fill="#FDBE16"/>
<path d="M238.835 156.201L197.244 164.944C194.402 165.541 191.55 163.68 190.952 160.838C190.355 157.995 192.216 155.143 195.058 154.546L236.649 145.803C239.491 145.206 242.344 147.067 242.941 149.909C243.538 152.751 241.677 155.603 238.835 156.201Z" fill="#FDBE16"/>
<path d="M238.438 257.618L217.642 261.989C214.8 262.587 211.948 260.726 211.351 257.883C210.753 255.041 212.615 252.189 215.457 251.592L236.252 247.22C239.094 246.623 241.947 248.484 242.544 251.326C243.141 254.168 241.28 257.021 238.438 257.618Z" fill="#FDBE16"/>
<path d="M214.371 212.009L207.439 213.467C204.597 214.064 201.745 212.203 201.148 209.361C200.55 206.518 202.412 203.666 205.254 203.069L212.185 201.612C215.027 201.014 217.88 202.876 218.477 205.718C219.075 208.56 217.213 211.412 214.371 212.009Z" fill="#FDBE16"/>
</svg>
