<svg width="110" height="110" viewBox="0 0 110 110" fill="none" xmlns="http://www.w3.org/2000/svg">
<path d="M1.15012 55.9892C2.64193 56.3126 4.18237 56.4419 5.70131 56.6468C11.9127 57.493 18.1348 58.2639 24.3299 59.2234C27.5848 59.7354 30.9915 60.2152 34.0511 61.4172C41.9116 64.4951 47.1573 70.252 49.2404 78.4237C50.3254 82.7898 50.7702 87.3338 51.4103 91.8131C52.1969 97.2034 52.8754 102.653 53.6782 108.06C53.765 108.636 54.3727 109.138 54.964 110C55.6041 109.213 56.1084 108.82 56.282 108.318C56.4475 107.62 56.5439 106.906 56.5697 106.189C57.4322 99.8824 58.1966 93.565 59.1894 87.2745C59.7318 83.6091 60.1336 79.8251 61.3921 76.3807C64.864 66.91 71.9322 61.3741 81.903 59.757C89.0691 58.5981 96.2953 57.8165 103.494 56.8463C105.322 56.5983 107.161 56.3449 108.962 55.9298C109.226 55.8125 109.458 55.6338 109.639 55.4087C109.819 55.1835 109.942 54.9186 109.998 54.6362C110.041 54.302 109.407 53.639 108.968 53.5581C107.733 53.3018 106.485 53.111 105.229 52.9867C98.9765 52.1351 92.7202 51.2834 86.46 50.4317C82.7549 49.9197 79.0011 49.6017 75.5347 48.0439C66.1336 43.8179 61.0012 36.4871 59.7318 26.4018C58.9181 19.9335 58.1373 13.4057 57.3235 6.91041C57.0903 5.03997 56.873 3.13727 56.477 1.33152C56.3685 0.792491 55.6529 0.442005 55.2135 0C54.757 0.409973 54.3373 0.85923 53.9601 1.34231C53.7954 1.71227 53.7121 2.11286 53.7159 2.51736C53.4338 4.67348 53.1734 6.87806 52.8804 9.05574C52.0504 15.0983 51.1717 21.1301 50.3688 27.1726C49.6654 33.1946 46.8728 38.7849 42.4706 42.9824C37.3333 47.9415 30.9264 49.6663 24.0587 50.4533C17.7388 51.181 11.446 52.1243 5.14241 52.9705C3.75387 53.1023 2.37376 53.3111 1.00867 53.5959C0.744116 53.7092 0.512861 53.8872 0.3364 54.1135C0.159939 54.3397 0.0443753 54.6067 0 54.8895C0.00542477 55.2615 0.67816 55.8867 1.15012 55.9892Z" fill="#FFBFC0"/>
</svg>
