<svg width="121" height="233" viewBox="0 0 121 233" fill="none" xmlns="http://www.w3.org/2000/svg">
<path d="M76.1862 64.142L73.2252 93.2377C73.112 94.3497 73.112 94.3497 74.228 94.4701L76.9125 94.7523C80.2951 95.1078 82.0057 97.2036 81.6657 100.605C81.2956 104.242 80.9256 107.879 80.5555 111.515C80.3846 113.194 80.2325 114.872 80.0435 116.546C79.9894 116.847 80.0249 117.158 80.1455 117.44C80.2661 117.722 80.4665 117.961 80.7216 118.129C84.4817 121.098 87.4134 124.998 89.2292 129.448C91.3907 134.569 91.8849 140.245 90.6408 145.661C88.768 153.954 84.033 160.169 76.5313 164.13C74.9319 164.973 73.1963 165.567 71.4989 166.212C71.3017 166.255 71.1289 166.374 71.0172 166.543C70.9054 166.713 70.8634 166.919 70.9 167.119C71.0422 169.326 71.1774 171.51 71.3205 173.707C71.3929 174.766 71.4875 175.822 71.5508 176.88C71.5857 177.423 71.8439 177.634 72.3768 177.681C74.2733 177.859 76.1623 178.079 78.0565 178.278C80.1433 178.479 81.6036 179.553 82.1916 181.562C82.9512 184.146 81.5051 186.812 78.8641 187.323C78.0284 187.446 77.181 187.469 76.3395 187.393C75.3132 187.338 74.2915 187.177 73.2644 187.07C72.182 186.956 72.1568 187.05 72.2412 188.145C72.417 190.418 72.5305 192.693 72.6719 194.969C72.8266 197.449 72.9909 199.927 73.158 202.408C73.2988 204.658 73.4305 206.908 73.5686 209.154C73.7233 211.634 73.8873 214.116 74.0544 216.597C74.193 218.818 74.3295 221.04 74.4636 223.265C74.6235 225.786 74.7907 228.327 74.9339 230.859C75.0721 233.106 75.1818 235.356 75.3384 237.604C75.5497 240.598 75.7327 243.594 76.0471 246.583C76.2704 248.694 74.7205 251.067 72.631 251.443C71.9039 251.591 71.1597 251.637 70.4197 251.58C58.6501 250.365 46.8807 249.128 35.1115 247.869C33.3833 247.687 31.9498 247.023 31.0306 245.458C30.4705 244.541 30.2912 243.439 30.5315 242.391C30.9032 240.723 31.3265 239.068 31.7677 237.42C32.3864 235.097 33.0445 232.783 33.6817 230.462C34.337 228.095 34.9842 225.725 35.6235 223.352C36.2198 221.158 36.8072 218.959 37.4038 216.762C38.0491 214.391 38.7064 212.024 39.3517 209.653C39.9424 207.483 40.5242 205.309 41.1152 203.135C41.7734 200.74 42.4314 198.346 43.0892 195.954C43.6699 193.832 44.2463 191.711 44.8185 189.59C45.2257 188.092 45.5936 186.584 46.0492 185.101C46.2581 184.422 46.0238 184.191 45.4118 184.126C44.0557 183.984 42.6974 183.863 41.3435 183.699C39.8103 183.494 38.4954 182.855 37.6456 181.463C37.2165 180.793 36.975 180.018 36.9467 179.222C36.9183 178.425 37.1041 177.636 37.4845 176.938C38.3586 175.22 39.8646 174.317 41.8343 174.477C43.804 174.637 45.8364 174.854 47.8216 175.107C48.4612 175.174 48.7809 174.994 48.9454 174.386C49.2521 173.234 49.5979 172.097 49.9166 170.95C50.4152 169.105 50.8842 167.245 51.4402 165.415C51.684 164.608 51.4495 164.164 50.7531 163.8C46.9962 161.788 43.7808 158.885 41.3854 155.342C39.3613 152.404 37.9202 149.101 37.1416 145.613C36.2747 141.728 36.2603 137.701 37.0994 133.812C37.9605 129.67 39.8056 125.801 42.4767 122.537C45.0374 119.33 48.2796 116.743 51.9652 114.966C52.5195 114.711 52.6405 114.254 52.6929 113.709C53.2393 108.339 53.7857 102.97 54.3321 97.601C54.4923 96.0275 55.0401 94.6449 56.421 93.7193C57.4241 93.0729 58.6204 92.8001 59.8033 92.9478C60.9313 93.0413 62.0589 93.1598 63.1859 93.3033C63.7456 93.3621 64.0161 93.1777 64.0338 92.6066C64.0387 92.3754 64.0811 92.142 64.1048 91.9096C66.0523 72.7727 68 53.6338 69.9479 34.4927C70.1474 32.532 70.9597 31.0551 72.7321 30.1613C75.1367 28.9488 78.3944 30.4715 78.9575 33.1229C79.1278 33.9291 79.1756 34.7565 79.0994 35.5767C78.14 45.106 77.1689 54.6277 76.1862 64.142Z" fill="#DB3B4D"/>
<path d="M0 56.2546C0.0766424 56.1714 0.158985 56.0754 0.248929 55.9868C0.898806 55.3446 1.65129 54.8638 2.55073 54.6157C3.25988 54.4277 4.0016 54.3858 4.72839 54.4926C5.79189 54.6354 6.76924 55.0116 7.68388 55.5503C7.71492 55.5687 7.74722 55.5835 7.80233 55.6118C7.84603 55.5275 7.88974 55.4487 7.92901 55.3656C8.93233 53.2558 10.4481 51.6065 12.5618 50.494C13.487 50.016 14.4718 49.6562 15.4919 49.4234C17.0881 49.0435 18.7077 48.9463 20.3413 49.0257C21.2889 49.0713 22.2314 49.1895 23.16 49.3791C23.1887 49.3888 23.2168 49.4001 23.2442 49.4129C23.2049 49.4538 23.1625 49.4919 23.1175 49.5268C22.1079 50.2206 21.0767 50.8868 20.0917 51.612C18.5544 52.7429 17.1388 54.0044 15.9518 55.4906C15.4013 56.1801 14.9193 56.9102 14.5766 57.7204C14.3467 58.2634 14.1852 58.8224 14.1693 59.4134C14.1364 60.6195 14.6932 61.4875 15.7985 62.0127C16.7974 62.4867 17.8349 62.5304 18.8844 62.1771C20.0619 61.78 20.9867 61.0307 21.8178 60.1571C22.3484 59.595 22.8257 58.9874 23.2436 58.3416C23.2626 58.3101 23.2927 58.2865 23.3284 58.2751C23.329 58.3369 23.3248 58.3986 23.3158 58.4598C23.1189 59.3207 23.0415 60.2034 23.0858 61.0843C23.1397 61.985 23.3474 62.8456 23.8979 63.5967C24.1495 63.9465 24.479 64.2367 24.8619 64.4457C24.8961 64.4648 24.9253 64.49 25 64.5405C24.7631 64.5725 24.5706 64.6021 24.3767 64.6249C21.4572 64.9391 18.5187 65.0561 15.5825 64.9751C13.2832 64.9099 11.1322 64.3447 9.19076 63.1165C7.96682 62.3558 6.9214 61.3531 6.12253 60.1737C5.41311 59.1192 4.56181 58.1778 3.51795 57.4144C2.83767 56.917 2.10101 56.5217 1.26111 56.3611C0.857 56.2872 0.437052 56.2872 0 56.2546Z" fill="#DB3B4D"/>
<path d="M102 5.44092C102.058 5.37859 102.121 5.30656 102.189 5.24007C102.683 4.75848 103.255 4.39787 103.939 4.21179C104.478 4.07081 105.041 4.03935 105.594 4.11944C106.402 4.22656 107.145 4.50868 107.84 4.9127C107.863 4.92655 107.888 4.93763 107.93 4.95887C107.963 4.89562 107.996 4.83651 108.026 4.77418C108.789 3.19182 109.941 1.95484 111.547 1.12049C112.25 0.762016 112.999 0.492133 113.774 0.317536C114.987 0.032647 116.218 -0.040305 117.459 0.0192585C118.18 0.0534688 118.896 0.142088 119.602 0.284293C119.623 0.291567 119.645 0.300043 119.666 0.309684C119.636 0.340361 119.604 0.368909 119.569 0.395104C118.802 0.915477 118.018 1.41508 117.27 1.959C116.101 2.8072 115.025 3.75329 114.123 4.86791C113.705 5.38505 113.339 5.93267 113.078 6.54031C112.903 6.94756 112.781 7.36681 112.769 7.81007C112.744 8.71461 113.167 9.36565 114.007 9.75951C114.766 10.115 115.555 10.1478 116.352 9.88279C117.247 9.58497 117.95 9.02304 118.581 8.36784C118.985 7.94627 119.347 7.49052 119.665 7.00619C119.68 6.98258 119.702 6.96485 119.73 6.95633C119.73 7.00267 119.727 7.04898 119.72 7.09485C119.57 7.74054 119.512 8.40255 119.545 9.06322C119.586 9.73873 119.744 10.3842 120.162 10.9475C120.354 11.2099 120.604 11.4275 120.895 11.5843C120.921 11.5986 120.943 11.6175 121 11.6554C120.82 11.6794 120.674 11.7016 120.526 11.7186C118.307 11.9543 116.074 12.0421 113.843 11.9814C112.095 11.9324 110.46 11.5086 108.985 10.5874C108.055 10.0169 107.26 9.26485 106.653 8.38031C106.114 7.58936 105.467 6.88338 104.674 6.31083C104.157 5.93775 103.597 5.64131 102.958 5.5208C102.651 5.46539 102.332 5.46539 102 5.44092Z" fill="#DB3B4D"/>
</svg>
