<svg width="65" height="59" viewBox="0 0 65 59" fill="none" xmlns="http://www.w3.org/2000/svg">
<path d="M59.0154 23.1245C61.835 35.3375 52.5715 48.0852 38.0472 51.4384C23.5229 54.7916 9.60874 47.3948 6.78916 35.1819C3.96958 22.969 13.233 10.2212 27.7573 6.86798C42.2816 3.51478 56.1958 10.9116 59.0154 23.1245Z" stroke="#D9D9D9" stroke-width="1.4"/>
<g clip-path="url(#clip0_1958_1574)">
<path d="M36.5829 28.9033L37.1339 25.3111H33.6873V22.98C33.6873 21.9972 34.1687 21.0393 35.7125 21.0393H37.2795V17.981C37.2795 17.981 35.8573 17.7383 34.4977 17.7383C31.6591 17.7383 29.8038 19.4587 29.8038 22.5732V25.3111H26.6484V28.9033H29.8038V37.5873C30.4365 37.6866 31.085 37.7383 31.7455 37.7383C32.4061 37.7383 33.0546 37.6866 33.6873 37.5873V28.9033H36.5829Z" fill="#202020"/>
</g>
<defs>
<clipPath id="clip0_1958_1574">
<rect width="20" height="20" fill="white" transform="translate(21.9648 17.7383)"/>
</clipPath>
</defs>
</svg>
