<svg width="65" height="59" viewBox="0 0 65 59" fill="none" xmlns="http://www.w3.org/2000/svg">
<path d="M58.8201 23.1245C61.6397 35.3375 52.3762 48.0852 37.8519 51.4384C23.3276 54.7916 9.41343 47.3948 6.59385 35.1819C3.77427 22.969 13.0377 10.2212 27.562 6.86798C42.0863 3.51478 56.0005 10.9116 58.8201 23.1245Z" stroke="#D9D9D9" stroke-width="1.4"/>
<g clip-path="url(#clip0_1958_1570)">
<path fill-rule="evenodd" clip-rule="evenodd" d="M32.6094 23.8648C29.7733 23.8648 27.4743 26.1639 27.4743 29C27.4743 31.836 29.7733 34.1351 32.6094 34.1351C35.4455 34.1351 37.7445 31.836 37.7445 29C37.7445 26.1639 35.4455 23.8648 32.6094 23.8648ZM32.6094 32.3333C30.7685 32.3333 29.2761 30.8409 29.2761 29C29.2761 27.159 30.7685 25.6666 32.6094 25.6666C34.4503 25.6666 35.9427 27.159 35.9427 29C35.9427 30.8409 34.4503 32.3333 32.6094 32.3333Z" fill="#202020"/>
<path d="M37.9474 24.862C38.6101 24.862 39.1474 24.3247 39.1474 23.662C39.1474 22.9992 38.6101 22.462 37.9474 22.462C37.2846 22.462 36.7474 22.9992 36.7474 23.662C36.7474 24.3247 37.2846 24.862 37.9474 24.862Z" fill="#202020"/>
<path fill-rule="evenodd" clip-rule="evenodd" d="M32.6094 19C29.8935 19 29.553 19.0115 28.4864 19.0602C27.422 19.1087 26.695 19.2778 26.0589 19.525C25.4014 19.7805 24.8437 20.1225 24.2878 20.6784C23.7318 21.2343 23.3899 21.792 23.1343 22.4496C22.8871 23.0857 22.7181 23.8126 22.6695 24.877C22.6209 25.9436 22.6094 26.2841 22.6094 29C22.6094 31.7158 22.6209 32.0563 22.6695 33.1229C22.7181 34.1873 22.8871 34.9143 23.1343 35.5503C23.3899 36.2079 23.7318 36.7656 24.2878 37.3216C24.8437 37.8775 25.4014 38.2194 26.0589 38.475C26.695 38.7221 27.422 38.8912 28.4864 38.9398C29.553 38.9884 29.8935 38.9999 32.6094 38.9999C35.3252 38.9999 35.6657 38.9884 36.7323 38.9398C37.7967 38.8912 38.5236 38.7221 39.1597 38.475C39.8173 38.2194 40.375 37.8775 40.9309 37.3216C41.4868 36.7656 41.8288 36.2079 42.0843 35.5503C42.3315 34.9143 42.5006 34.1873 42.5491 33.1229C42.5978 32.0563 42.6093 31.7158 42.6093 29C42.6093 26.2841 42.5978 25.9436 42.5491 24.877C42.5006 23.8126 42.3315 23.0857 42.0843 22.4496C41.8288 21.792 41.4868 21.2343 40.9309 20.6784C40.375 20.1225 39.8173 19.7805 39.1597 19.525C38.5236 19.2778 37.7967 19.1087 36.7323 19.0602C35.6657 19.0115 35.3252 19 32.6094 19ZM32.6094 20.8018C35.2795 20.8018 35.5957 20.812 36.6502 20.8601C37.6252 20.9046 38.1546 21.0675 38.507 21.2044C38.9738 21.3858 39.3069 21.6025 39.6568 21.9525C40.0068 22.3024 40.2235 22.6355 40.4049 23.1023C40.5418 23.4546 40.7047 23.9841 40.7492 24.9591C40.7973 26.0136 40.8075 26.3299 40.8075 29C40.8075 31.6701 40.7973 31.9864 40.7492 33.0408C40.7047 34.0158 40.5418 34.5453 40.4049 34.8977C40.2235 35.3644 40.0068 35.6975 39.6568 36.0475C39.3069 36.3974 38.9738 36.6141 38.507 36.7955C38.1546 36.9325 37.6252 37.0954 36.6502 37.1398C35.5959 37.1879 35.2796 37.1981 32.6094 37.1981C29.939 37.1981 29.6229 37.1879 28.5685 37.1398C27.5935 37.0954 27.064 36.9325 26.7116 36.7955C26.2449 36.6141 25.9118 36.3974 25.5618 36.0475C25.2119 35.6975 24.9952 35.3644 24.8138 34.8977C24.6768 34.5453 24.5139 34.0158 24.4695 33.0408C24.4213 31.9864 24.4112 31.6701 24.4112 29C24.4112 26.3299 24.4213 26.0136 24.4695 24.9591C24.5139 23.9841 24.6768 23.4546 24.8138 23.1023C24.9952 22.6355 25.2119 22.3024 25.5618 21.9525C25.9118 21.6025 26.2449 21.3858 26.7116 21.2044C27.064 21.0675 27.5935 20.9046 28.5685 20.8601C29.623 20.812 29.9393 20.8018 32.6094 20.8018Z" fill="#202020"/>
</g>
<defs>
<clipPath id="clip0_1958_1570">
<rect width="20" height="20" fill="white" transform="translate(22.6094 19)"/>
</clipPath>
</defs>
</svg>
