<svg width="65" height="59" viewBox="0 0 65 59" fill="none" xmlns="http://www.w3.org/2000/svg">
<path d="M6.20272 35.1821C9.02229 47.3951 22.9365 54.7919 37.4608 51.4387C51.9851 48.0855 61.2485 35.3377 58.429 23.1248C55.6094 10.9118 41.6952 3.51501 27.1709 6.86821C12.6466 10.2214 3.38314 22.9692 6.20272 35.1821Z" stroke="#D9D9D9" stroke-width="1.4"/>
<g clip-path="url(#clip0_1958_1561)">
<path fill-rule="evenodd" clip-rule="evenodd" d="M22.9707 21.733C22.4258 22.8025 22.4258 24.2027 22.4258 27.0029V31.0029C22.4258 33.8032 22.4258 35.2033 22.9707 36.2729C23.4501 37.2137 24.215 37.9786 25.1558 38.458C26.2254 39.0029 27.6255 39.0029 30.4258 39.0029H34.4258C37.226 39.0029 38.6262 39.0029 39.6957 38.458C40.6365 37.9786 41.4014 37.2137 41.8808 36.2729C42.4258 35.2033 42.4258 33.8032 42.4258 31.0029V27.0029C42.4258 24.2027 42.4258 22.8025 41.8808 21.733C41.4014 20.7922 40.6365 20.0273 39.6957 19.5479C38.6262 19.0029 37.226 19.0029 34.4258 19.0029H30.4258C27.6255 19.0029 26.2254 19.0029 25.1558 19.5479C24.215 20.0273 23.4501 20.7922 22.9707 21.733ZM33.9811 22.3394C33.5473 22.34 33.1128 22.3407 32.6762 22.3474C32.6658 23.7431 32.6662 25.1389 32.6667 26.536C32.6669 27.3744 32.6672 28.2132 32.6651 29.0528C32.6636 29.3146 32.6641 29.5759 32.6646 29.8371C32.6658 30.5682 32.6671 31.2979 32.6262 32.0306C32.621 32.2346 32.5173 32.4139 32.417 32.5872C32.4108 32.598 32.4046 32.6087 32.3984 32.6195C32.0762 33.1472 31.4818 33.5083 30.8596 33.5139C29.9262 33.5972 29.0485 32.8306 28.9151 31.9195C28.9143 31.8729 28.9127 31.826 28.9112 31.779C28.9029 31.5235 28.8944 31.2644 28.9929 31.025C29.1318 30.6306 29.3985 30.2806 29.7485 30.0528C30.2318 29.7195 30.8762 29.6695 31.4262 29.8473C31.4262 29.4949 31.4323 29.1425 31.4385 28.7901C31.4466 28.3203 31.4548 27.8505 31.4484 27.3806C30.2429 27.1529 28.954 27.5362 28.0318 28.3362C27.2207 29.0251 26.6985 30.0362 26.5985 31.0917C26.5874 31.3639 26.5929 31.6417 26.6041 31.9195C26.7207 33.2195 27.5096 34.4306 28.6318 35.0917C29.3096 35.4917 30.104 35.7083 30.8984 35.6639C32.1929 35.6416 33.454 34.9472 34.1817 33.8806C34.6317 33.2417 34.8873 32.4695 34.9317 31.6917C34.9421 30.6813 34.9417 29.6688 34.9413 28.6554C34.941 28.0473 34.9408 27.439 34.9428 26.8307C35.2317 27.0195 35.5262 27.2029 35.8428 27.3473C36.5706 27.6918 37.3761 27.8584 38.1761 27.8862V25.6473C37.3206 25.5529 36.4428 25.2696 35.8206 24.6529C35.1984 24.0529 34.8928 23.1863 34.8484 22.3363C34.5594 22.3385 34.2705 22.3389 33.9811 22.3394Z" fill="#202020"/>
</g>
<defs>
<clipPath id="clip0_1958_1561">
<rect width="20" height="20" fill="white" transform="translate(22.4258 19.0029)"/>
</clipPath>
</defs>
</svg>
