<svg width="65" height="59" viewBox="0 0 65 59" fill="none" xmlns="http://www.w3.org/2000/svg">
<path d="M58.6248 23.1245C61.4444 35.3375 52.1809 48.0852 37.6566 51.4384C23.1323 54.7916 9.21812 47.3948 6.39854 35.1819C3.57896 22.969 12.8424 10.2212 27.3667 6.86798C41.891 3.51478 55.8052 10.9116 58.6248 23.1245Z" stroke="#D9D9D9" stroke-width="1.4"/>
<g clip-path="url(#clip0_1958_1566)">
<path fill-rule="evenodd" clip-rule="evenodd" d="M41.17 22.7648C41.4803 23.0771 41.7031 23.4654 41.8162 23.8909C42.2344 25.4614 42.2344 28.7364 42.2344 28.7364C42.2344 28.7364 42.2344 32.0114 41.8162 33.5818C41.7031 34.0073 41.4803 34.3956 41.17 34.7079C40.8597 35.0202 40.4728 35.2456 40.048 35.3614C38.4844 35.7818 32.2344 35.7818 32.2344 35.7818C32.2344 35.7818 25.9844 35.7818 24.4207 35.3614C23.996 35.2456 23.6091 35.0202 23.2988 34.7079C22.9885 34.3956 22.7656 34.0073 22.6526 33.5818C22.2344 32.0114 22.2344 28.7364 22.2344 28.7364C22.2344 28.7364 22.2344 25.4614 22.6526 23.8909C22.7656 23.4654 22.9885 23.0771 23.2988 22.7648C23.6091 22.4525 23.996 22.2272 24.4207 22.1114C25.9844 21.6909 32.2344 21.6909 32.2344 21.6909C32.2344 21.6909 38.4844 21.6909 40.048 22.1114C40.4728 22.2272 40.8597 22.4525 41.17 22.7648ZM35.4162 28.7364L30.1889 25.7625V31.7102L35.4162 28.7364Z" fill="#202020"/>
</g>
<defs>
<clipPath id="clip0_1958_1566">
<rect width="20" height="20" fill="white" transform="translate(22.2148 18.7363)"/>
</clipPath>
</defs>
</svg>
