<svg width="143" height="54" viewBox="0 0 143 54" fill="none" xmlns="http://www.w3.org/2000/svg">
<path d="M27.358 19.3693H22.9261C22.7557 18.4223 22.4384 17.589 21.9744 16.8693C21.5104 16.1496 20.9422 15.5388 20.2699 15.0369C19.5975 14.535 18.8447 14.1562 18.0114 13.9006C17.1875 13.6449 16.3116 13.517 15.3835 13.517C13.7074 13.517 12.2064 13.9384 10.8807 14.7812C9.56439 15.6241 8.52273 16.8598 7.75568 18.4886C6.99811 20.1174 6.61932 22.1061 6.61932 24.4545C6.61932 26.822 6.99811 28.8201 7.75568 30.4489C8.52273 32.0777 9.56913 33.3087 10.8949 34.142C12.2206 34.9754 13.7121 35.392 15.3693 35.392C16.2879 35.392 17.1591 35.2689 17.983 35.0227C18.8163 34.767 19.5691 34.393 20.2415 33.9006C20.9138 33.4081 21.482 32.8068 21.946 32.0966C22.4195 31.3769 22.7462 30.553 22.9261 29.625L27.358 29.6392C27.1212 31.0691 26.6619 32.3854 25.9801 33.5881C25.3078 34.7812 24.4413 35.8134 23.3807 36.6847C22.3295 37.5464 21.1269 38.214 19.7727 38.6875C18.4186 39.161 16.9413 39.3977 15.3409 39.3977C12.822 39.3977 10.5777 38.8011 8.60795 37.608C6.63826 36.4053 5.08523 34.6866 3.94886 32.4517C2.82197 30.2169 2.25852 27.5511 2.25852 24.4545C2.25852 21.3485 2.8267 18.6828 3.96307 16.4574C5.09943 14.2225 6.65246 12.5085 8.62216 11.3153C10.5919 10.1127 12.8314 9.51136 15.3409 9.51136C16.8845 9.51136 18.3239 9.7339 19.6591 10.179C21.0038 10.6146 22.2112 11.2585 23.2812 12.1108C24.3513 12.9536 25.2367 13.9858 25.9375 15.2074C26.6383 16.4195 27.1117 17.8068 27.358 19.3693ZM32.6101 39V9.90909H36.9993V35.2216H50.1811V39H32.6101ZM59.13 39H54.4709L64.9396 9.90909H70.0107L80.4794 39H75.8203L67.5959 15.1932H67.3686L59.13 39ZM59.9112 27.608H75.0249V31.3011H59.9112V27.608ZM84.1761 9.90909L92.2727 33.6023H92.5994L100.696 9.90909H105.44L94.9716 39H89.9006L79.4318 9.90909H84.1761ZM114.031 9.90909V39H109.641V9.90909H114.031ZM136.289 17.5511C136.138 16.2064 135.513 15.1648 134.414 14.4261C133.316 13.678 131.933 13.304 130.266 13.304C129.073 13.304 128.041 13.4934 127.17 13.8722C126.299 14.2415 125.621 14.7528 125.138 15.4062C124.665 16.0502 124.428 16.7841 124.428 17.608C124.428 18.2992 124.589 18.8958 124.911 19.3977C125.243 19.8996 125.674 20.321 126.204 20.6619C126.744 20.9934 127.321 21.2727 127.937 21.5C128.552 21.7178 129.144 21.8977 129.712 22.0398L132.553 22.7784C133.481 23.0057 134.433 23.3134 135.408 23.7017C136.384 24.09 137.288 24.6013 138.121 25.2358C138.955 25.8703 139.627 26.6562 140.138 27.5938C140.659 28.5312 140.92 29.6534 140.92 30.9602C140.92 32.608 140.494 34.071 139.641 35.3494C138.799 36.6278 137.572 37.6364 135.962 38.375C134.362 39.1136 132.425 39.483 130.153 39.483C127.975 39.483 126.09 39.1373 124.499 38.446C122.908 37.7547 121.663 36.7746 120.763 35.5057C119.864 34.2273 119.367 32.7121 119.272 30.9602H123.675C123.761 32.0114 124.102 32.8873 124.698 33.5881C125.304 34.2794 126.076 34.7955 127.013 35.1364C127.96 35.4678 128.997 35.6335 130.124 35.6335C131.365 35.6335 132.468 35.4394 133.434 35.0511C134.409 34.6534 135.176 34.1042 135.735 33.4034C136.294 32.6932 136.573 31.8646 136.573 30.9176C136.573 30.0559 136.327 29.3504 135.835 28.8011C135.352 28.2519 134.693 27.7973 133.86 27.4375C133.036 27.0777 132.103 26.7604 131.062 26.4858L127.624 25.5483C125.295 24.9138 123.448 23.9811 122.085 22.75C120.73 21.5189 120.053 19.8902 120.053 17.8636C120.053 16.1875 120.508 14.7244 121.417 13.4744C122.326 12.2244 123.557 11.2538 125.11 10.5625C126.663 9.86174 128.415 9.51136 130.366 9.51136C132.335 9.51136 134.073 9.85701 135.579 10.5483C137.094 11.2396 138.287 12.1913 139.158 13.4034C140.03 14.6061 140.484 15.9886 140.522 17.5511H136.289Z" fill="black"/>
<path d="M7.32102 48.2894L6.4549 48.4428C6.41868 48.332 6.36115 48.2266 6.28232 48.1264C6.20561 48.0263 6.10121 47.9442 5.96911 47.8803C5.837 47.8164 5.67188 47.7844 5.47372 47.7844C5.20313 47.7844 4.97727 47.8452 4.79616 47.9666C4.61506 48.0859 4.5245 48.2404 4.5245 48.43C4.5245 48.5941 4.58523 48.7262 4.70668 48.8263C4.82813 48.9265 5.02415 49.0085 5.29474 49.0724L6.07457 49.2514C6.52628 49.3558 6.86293 49.5167 7.08452 49.734C7.30611 49.9513 7.4169 50.2337 7.4169 50.581C7.4169 50.875 7.33168 51.1371 7.16122 51.3672C6.9929 51.5952 6.75746 51.7741 6.4549 51.9041C6.15447 52.0341 5.80611 52.0991 5.4098 52.0991C4.86009 52.0991 4.41158 51.9819 4.06428 51.7475C3.71697 51.511 3.50391 51.1754 3.42507 50.7408L4.34872 50.6001C4.40625 50.8409 4.5245 51.0231 4.70348 51.1467C4.88246 51.2681 5.11577 51.3288 5.40341 51.3288C5.71662 51.3288 5.96697 51.2638 6.15447 51.1339C6.34197 51.0018 6.43572 50.8409 6.43572 50.6513C6.43572 50.4979 6.3782 50.369 6.26314 50.2646C6.15021 50.1602 5.97656 50.0813 5.74219 50.0281L4.91122 49.8459C4.45313 49.7415 4.11435 49.5753 3.89489 49.3473C3.67756 49.1193 3.56889 48.8306 3.56889 48.4812C3.56889 48.1914 3.64986 47.9379 3.81179 47.7205C3.97372 47.5032 4.19744 47.3338 4.48295 47.2124C4.76847 47.0888 5.09553 47.027 5.46413 47.027C5.99467 47.027 6.41229 47.142 6.71697 47.3722C7.02166 47.6001 7.22301 47.9059 7.32102 48.2894ZM10.5354 52.0991C10.0603 52.0991 9.65119 51.9915 9.30815 51.7763C8.96724 51.5589 8.70517 51.2596 8.52193 50.8782C8.33869 50.4968 8.24707 50.06 8.24707 49.5678C8.24707 49.0692 8.34082 48.6293 8.52832 48.2479C8.71582 47.8643 8.98002 47.565 9.32093 47.3498C9.66184 47.1346 10.0635 47.027 10.5258 47.027C10.8987 47.027 11.2311 47.0962 11.523 47.2347C11.8149 47.3711 12.0503 47.5629 12.2293 47.81C12.4104 48.0572 12.518 48.3459 12.5521 48.6761H11.6221C11.5709 48.446 11.4537 48.2479 11.2705 48.0817C11.0894 47.9155 10.8465 47.8324 10.5418 47.8324C10.2755 47.8324 10.0422 47.9027 9.84189 48.0433C9.64373 48.1818 9.48926 48.38 9.37846 48.6378C9.26767 48.8935 9.21227 49.196 9.21227 49.5455C9.21227 49.9034 9.2666 50.2124 9.37527 50.4723C9.48393 50.7322 9.63734 50.9336 9.83549 51.0763C10.0358 51.2191 10.2712 51.2905 10.5418 51.2905C10.7229 51.2905 10.887 51.2575 11.034 51.1914C11.1831 51.1232 11.3078 51.0263 11.4079 50.9006C11.5102 50.7749 11.5816 50.6236 11.6221 50.4467H12.5521C12.518 50.7642 12.4147 51.0476 12.2421 51.2969C12.0695 51.5462 11.8383 51.7422 11.5486 51.8849C11.2609 52.0277 10.9232 52.0991 10.5354 52.0991ZM14.5297 49.0852V52H13.574V45.4545H14.5169V47.8899H14.5776C14.6926 47.6257 14.8684 47.4158 15.1049 47.2603C15.3414 47.1048 15.6504 47.027 16.0318 47.027C16.3684 47.027 16.6625 47.0962 16.9139 47.2347C17.1674 47.3732 17.3635 47.5799 17.502 47.8548C17.6426 48.1275 17.7129 48.4684 17.7129 48.8775V52H16.7573V48.9925C16.7573 48.6325 16.6646 48.3533 16.4792 48.1552C16.2939 47.9549 16.036 47.8548 15.7058 47.8548C15.4799 47.8548 15.2775 47.9027 15.0985 47.9986C14.9217 48.0945 14.7821 48.2351 14.6799 48.4205C14.5797 48.6037 14.5297 48.8253 14.5297 49.0852ZM22.0978 49.9641V47.0909H23.0566V52H22.117V51.1499H22.0659C21.9529 51.4119 21.7718 51.6303 21.5225 51.805C21.2754 51.9776 20.9675 52.0639 20.5989 52.0639C20.2836 52.0639 20.0044 51.9947 19.7615 51.8562C19.5208 51.7156 19.3311 51.5078 19.1926 51.233C19.0563 50.9581 18.9881 50.6183 18.9881 50.2134V47.0909H19.9437V50.0984C19.9437 50.4329 20.0364 50.6992 20.2218 50.8974C20.4071 51.0955 20.6479 51.1946 20.9441 51.1946C21.123 51.1946 21.301 51.1499 21.4778 51.0604C21.6568 50.9709 21.8049 50.8356 21.9221 50.6545C22.0414 50.4734 22.1 50.2433 22.0978 49.9641ZM25.2963 45.4545V52H24.3406V45.4545H25.2963ZM28.6976 52.0991C28.214 52.0991 27.7974 51.9957 27.448 51.7891C27.1007 51.5803 26.8322 51.2873 26.6426 50.9102C26.4551 50.5309 26.3613 50.0866 26.3613 49.5774C26.3613 49.0746 26.4551 48.6314 26.6426 48.2479C26.8322 47.8643 27.0964 47.565 27.4352 47.3498C27.7761 47.1346 28.1745 47.027 28.6305 47.027C28.9075 47.027 29.176 47.0728 29.4359 47.1644C29.6958 47.256 29.9292 47.3999 30.1358 47.5959C30.3425 47.7919 30.5055 48.0465 30.6248 48.3597C30.7441 48.6708 30.8038 49.049 30.8038 49.4943V49.8331H26.9015V49.1172H29.8674C29.8674 48.8658 29.8162 48.6431 29.714 48.4492C29.6117 48.2532 29.4679 48.0987 29.2825 47.9858C29.0993 47.8729 28.8841 47.8164 28.6369 47.8164C28.3684 47.8164 28.1341 47.8825 27.9338 48.0146C27.7356 48.1445 27.5822 48.315 27.4735 48.5259C27.367 48.7347 27.3137 48.9616 27.3137 49.2067V49.766C27.3137 50.0941 27.3713 50.3732 27.4863 50.6033C27.6035 50.8335 27.7665 51.0092 27.9753 51.1307C28.1841 51.25 28.4281 51.3097 28.7072 51.3097C28.8883 51.3097 29.0534 51.2841 29.2026 51.233C29.3517 51.1797 29.4806 51.1009 29.5893 50.9964C29.698 50.892 29.7811 50.7631 29.8386 50.6097L30.7431 50.7727C30.6706 51.0391 30.5407 51.2724 30.3532 51.4727C30.1678 51.6708 29.9345 51.8253 29.6532 51.9361C29.3741 52.0447 29.0556 52.0991 28.6976 52.0991ZM36.5822 47.0909V47.858H33.8081V47.0909H36.5822ZM34.5687 52V46.522C34.5687 46.2152 34.6358 45.9606 34.7701 45.7582C34.9043 45.5536 35.0822 45.4013 35.3038 45.3011C35.5254 45.1989 35.7662 45.1477 36.0261 45.1477C36.2179 45.1477 36.3819 45.1637 36.5183 45.1957C36.6547 45.2255 36.7559 45.2532 36.8219 45.2788L36.5982 46.0522C36.5534 46.0394 36.4959 46.0245 36.4256 46.0075C36.3553 45.9883 36.2701 45.9787 36.1699 45.9787C35.9377 45.9787 35.7715 46.0362 35.6713 46.1513C35.5733 46.2663 35.5243 46.4325 35.5243 46.6499V52H34.5687ZM40.6779 49.9641V47.0909H41.6367V52H40.6971V51.1499H40.646C40.533 51.4119 40.3519 51.6303 40.1026 51.805C39.8555 51.9776 39.5476 52.0639 39.179 52.0639C38.8636 52.0639 38.5845 51.9947 38.3416 51.8562C38.1009 51.7156 37.9112 51.5078 37.7727 51.233C37.6364 50.9581 37.5682 50.6183 37.5682 50.2134V47.0909H38.5238V50.0984C38.5238 50.4329 38.6165 50.6992 38.8018 50.8974C38.9872 51.0955 39.228 51.1946 39.5241 51.1946C39.7031 51.1946 39.881 51.1499 40.0579 51.0604C40.2369 50.9709 40.3849 50.8356 40.5021 50.6545C40.6214 50.4734 40.68 50.2433 40.6779 49.9641ZM42.9207 52V47.0909H43.8444V47.8707H43.8955C43.985 47.6065 44.1427 47.3988 44.3685 47.2475C44.5965 47.0941 44.8543 47.0174 45.142 47.0174C45.2016 47.0174 45.2719 47.0195 45.3529 47.0238C45.436 47.0281 45.501 47.0334 45.5479 47.0398V47.9538C45.5095 47.9432 45.4413 47.9315 45.3433 47.9187C45.2453 47.9038 45.1473 47.8963 45.0493 47.8963C44.8234 47.8963 44.6221 47.9442 44.4452 48.0401C44.2705 48.1339 44.132 48.2649 44.0297 48.4332C43.9275 48.5994 43.8763 48.7891 43.8763 49.0021V52H42.9207ZM49.6356 50.3349L49.6292 49.1683H49.7954L51.7513 47.0909H52.8955L50.6647 49.456H50.5145L49.6356 50.3349ZM48.7567 52V45.4545H49.7123V52H48.7567ZM51.8568 52L50.099 49.6669L50.7574 48.9989L53.0297 52H51.8568ZM56.8762 49.9641V47.0909H57.835V52H56.8953V51.1499H56.8442C56.7313 51.4119 56.5502 51.6303 56.3009 51.805C56.0537 51.9776 55.7458 52.0639 55.3772 52.0639C55.0619 52.0639 54.7828 51.9947 54.5399 51.8562C54.2991 51.7156 54.1095 51.5078 53.971 51.233C53.8346 50.9581 53.7664 50.6183 53.7664 50.2134V47.0909H54.722V50.0984C54.722 50.4329 54.8147 50.6992 55.0001 50.8974C55.1855 51.0955 55.4262 51.1946 55.7224 51.1946C55.9014 51.1946 56.0793 51.1499 56.2561 51.0604C56.4351 50.9709 56.5832 50.8356 56.7004 50.6545C56.8197 50.4734 56.8783 50.2433 56.8762 49.9641ZM60.0746 49.0852V52H59.119V47.0909H60.0362V47.8899H60.0969C60.2099 47.63 60.3867 47.4212 60.6275 47.2635C60.8704 47.1058 61.1761 47.027 61.5447 47.027C61.8793 47.027 62.1722 47.0973 62.4237 47.2379C62.6751 47.3764 62.87 47.5831 63.0085 47.858C63.147 48.1328 63.2163 48.4727 63.2163 48.8775V52H62.2607V48.9925C62.2607 48.6367 62.168 48.3587 61.9826 48.1584C61.7972 47.956 61.5426 47.8548 61.2188 47.8548C60.9972 47.8548 60.8001 47.9027 60.6275 47.9986C60.457 48.0945 60.3217 48.2351 60.2216 48.4205C60.1236 48.6037 60.0746 48.8253 60.0746 49.0852ZM68.1765 48.2894L67.3104 48.4428C67.2741 48.332 67.2166 48.2266 67.1378 48.1264C67.0611 48.0263 66.9567 47.9442 66.8246 47.8803C66.6925 47.8164 66.5273 47.7844 66.3292 47.7844C66.0586 47.7844 65.8327 47.8452 65.6516 47.9666C65.4705 48.0859 65.38 48.2404 65.38 48.43C65.38 48.5941 65.4407 48.7262 65.5621 48.8263C65.6836 48.9265 65.8796 49.0085 66.1502 49.0724L66.93 49.2514C67.3817 49.3558 67.7184 49.5167 67.94 49.734C68.1616 49.9513 68.2724 50.2337 68.2724 50.581C68.2724 50.875 68.1871 51.1371 68.0167 51.3672C67.8484 51.5952 67.6129 51.7741 67.3104 51.9041C67.0099 52.0341 66.6616 52.0991 66.2653 52.0991C65.7156 52.0991 65.267 51.9819 64.9197 51.7475C64.5724 51.511 64.3594 51.1754 64.2805 50.7408L65.2042 50.6001C65.2617 50.8409 65.38 51.0231 65.5589 51.1467C65.7379 51.2681 65.9712 51.3288 66.2589 51.3288C66.5721 51.3288 66.8224 51.2638 67.0099 51.1339C67.1974 51.0018 67.2912 50.8409 67.2912 50.6513C67.2912 50.4979 67.2337 50.369 67.1186 50.2646C67.0057 50.1602 66.832 50.0813 66.5977 50.0281L65.7667 49.8459C65.3086 49.7415 64.9698 49.5753 64.7504 49.3473C64.533 49.1193 64.4244 48.8306 64.4244 48.4812C64.4244 48.1914 64.5053 47.9379 64.6673 47.7205C64.8292 47.5032 65.0529 47.3338 65.3384 47.2124C65.6239 47.0888 65.951 47.027 66.3196 47.027C66.8501 47.027 67.2678 47.142 67.5724 47.3722C67.8771 47.6001 68.0785 47.9059 68.1765 48.2894ZM71.6146 47.0909V47.858H68.9331V47.0909H71.6146ZM69.6523 45.9148H70.6079V50.5586C70.6079 50.744 70.6356 50.8835 70.691 50.9773C70.7464 51.0689 70.8177 51.1317 70.9051 51.1658C70.9946 51.1978 71.0915 51.2138 71.1959 51.2138C71.2726 51.2138 71.3398 51.2085 71.3973 51.1978C71.4548 51.1871 71.4996 51.1786 71.5315 51.1722L71.7041 51.9616C71.6487 51.983 71.5699 52.0043 71.4676 52.0256C71.3653 52.049 71.2375 52.0618 71.0841 52.0639C70.8327 52.0682 70.5983 52.0234 70.3809 51.9297C70.1636 51.8359 69.9878 51.6911 69.8536 51.495C69.7194 51.299 69.6523 51.0529 69.6523 50.7567V45.9148ZM76.9584 52.0927C76.5194 52.0927 76.1412 52.0128 75.8238 51.853C75.5084 51.6932 75.2655 51.4759 75.0951 51.201C74.9246 50.924 74.8394 50.6108 74.8394 50.2614C74.8394 49.995 74.8948 49.7585 75.0056 49.5518C75.1164 49.343 75.2709 49.1502 75.469 48.9734C75.6672 48.7965 75.8962 48.6186 76.1562 48.4396L77.2108 47.695C77.3898 47.5778 77.5294 47.4542 77.6295 47.3242C77.7297 47.1921 77.7797 47.0291 77.7797 46.8352C77.7797 46.6818 77.7137 46.5348 77.5816 46.3942C77.4495 46.2536 77.2726 46.1832 77.051 46.1832C76.8976 46.1832 76.7623 46.2205 76.6452 46.2951C76.5301 46.3697 76.4395 46.4656 76.3735 46.5827C76.3096 46.6978 76.2776 46.8192 76.2776 46.9471C76.2776 47.0962 76.3181 47.2464 76.3991 47.3977C76.4822 47.549 76.5887 47.7056 76.7187 47.8675C76.8486 48.0273 76.985 48.1935 77.1278 48.3661L80.1672 52H79.0869L76.5716 49.0437C76.3607 48.7944 76.1647 48.56 75.9836 48.3406C75.8025 48.119 75.6555 47.8952 75.5425 47.6694C75.4317 47.4414 75.3763 47.1953 75.3763 46.9311C75.3763 46.6307 75.4445 46.3643 75.5809 46.1321C75.7194 45.8977 75.9122 45.7145 76.1594 45.5824C76.4065 45.4503 76.6963 45.3842 77.0287 45.3842C77.3653 45.3842 77.654 45.4503 77.8948 45.5824C78.1377 45.7124 78.3241 45.886 78.4541 46.1033C78.5862 46.3185 78.6523 46.554 78.6523 46.8097C78.6523 47.1207 78.5745 47.3956 78.4189 47.6342C78.2655 47.8707 78.0535 48.0881 77.7829 48.2862L76.4694 49.2546C76.2137 49.4421 76.0358 49.6275 75.9356 49.8107C75.8376 49.9918 75.7886 50.1335 75.7886 50.2358C75.7886 50.4233 75.8366 50.5969 75.9324 50.7567C76.0305 50.9165 76.1668 51.0444 76.3415 51.1403C76.5184 51.2362 76.7251 51.2841 76.9616 51.2841C77.2045 51.2841 77.441 51.2319 77.6711 51.1275C77.9033 51.021 78.1132 50.8686 78.3007 50.6705C78.4903 50.4723 78.6405 50.2347 78.7513 49.9577C78.8621 49.6808 78.9175 49.3707 78.9175 49.0277H79.7805C79.7805 49.4496 79.7325 49.8065 79.6366 50.0984C79.5407 50.3881 79.4246 50.6246 79.2883 50.8079C79.154 50.989 79.0273 51.1307 78.9079 51.233C78.8696 51.267 78.8334 51.3011 78.7993 51.3352C78.7652 51.3693 78.729 51.4034 78.6906 51.4375C78.469 51.6612 78.2006 51.8263 77.8852 51.9329C77.572 52.0394 77.2631 52.0927 76.9584 52.0927ZM84.3619 52L82.9173 47.0909H83.9049L84.8669 50.696H84.9149L85.8801 47.0909H86.8676L87.8264 50.68H87.8744L88.83 47.0909H89.8176L88.3762 52H87.4014L86.4042 48.4556H86.3307L85.3335 52H84.3619ZM90.7244 52V47.0909H91.68V52H90.7244ZM91.207 46.3335C91.0408 46.3335 90.8981 46.2781 90.7788 46.1673C90.6616 46.0543 90.603 45.9201 90.603 45.7646C90.603 45.6069 90.6616 45.4727 90.7788 45.3619C90.8981 45.2489 91.0408 45.1925 91.207 45.1925C91.3732 45.1925 91.5149 45.2489 91.6321 45.3619C91.7514 45.4727 91.8111 45.6069 91.8111 45.7646C91.8111 45.9201 91.7514 46.0543 91.6321 46.1673C91.5149 46.2781 91.3732 46.3335 91.207 46.3335ZM96.6443 48.2894L95.7781 48.4428C95.7419 48.332 95.6844 48.2266 95.6056 48.1264C95.5289 48.0263 95.4244 47.9442 95.2923 47.8803C95.1602 47.8164 94.9951 47.7844 94.797 47.7844C94.5264 47.7844 94.3005 47.8452 94.1194 47.9666C93.9383 48.0859 93.8477 48.2404 93.8477 48.43C93.8477 48.5941 93.9085 48.7262 94.0299 48.8263C94.1514 48.9265 94.3474 49.0085 94.618 49.0724L95.3978 49.2514C95.8495 49.3558 96.1862 49.5167 96.4078 49.734C96.6294 49.9513 96.7401 50.2337 96.7401 50.581C96.7401 50.875 96.6549 51.1371 96.4845 51.3672C96.3161 51.5952 96.0807 51.7741 95.7781 51.9041C95.4777 52.0341 95.1294 52.0991 94.733 52.0991C94.1833 52.0991 93.7348 51.9819 93.3875 51.7475C93.0402 51.511 92.8271 51.1754 92.7483 50.7408L93.672 50.6001C93.7295 50.8409 93.8477 51.0231 94.0267 51.1467C94.2057 51.2681 94.439 51.3288 94.7267 51.3288C95.0399 51.3288 95.2902 51.2638 95.4777 51.1339C95.6652 51.0018 95.759 50.8409 95.759 50.6513C95.759 50.4979 95.7014 50.369 95.5864 50.2646C95.4735 50.1602 95.2998 50.0813 95.0654 50.0281L94.2345 49.8459C93.7764 49.7415 93.4376 49.5753 93.2181 49.3473C93.0008 49.1193 92.8921 48.8306 92.8921 48.4812C92.8921 48.1914 92.9731 47.9379 93.135 47.7205C93.297 47.5032 93.5207 47.3338 93.8062 47.2124C94.0917 47.0888 94.4188 47.027 94.7874 47.027C95.3179 47.027 95.7355 47.142 96.0402 47.3722C96.3449 47.6001 96.5463 47.9059 96.6443 48.2894ZM101.469 48.2894L100.603 48.4428C100.567 48.332 100.51 48.2266 100.431 48.1264C100.354 48.0263 100.25 47.9442 100.118 47.8803C99.9854 47.8164 99.8203 47.7844 99.6222 47.7844C99.3516 47.7844 99.1257 47.8452 98.9446 47.9666C98.7635 48.0859 98.6729 48.2404 98.6729 48.43C98.6729 48.5941 98.7337 48.7262 98.8551 48.8263C98.9766 48.9265 99.1726 49.0085 99.4432 49.0724L100.223 49.2514C100.675 49.3558 101.011 49.5167 101.233 49.734C101.455 49.9513 101.565 50.2337 101.565 50.581C101.565 50.875 101.48 51.1371 101.31 51.3672C101.141 51.5952 100.906 51.7741 100.603 51.9041C100.303 52.0341 99.9545 52.0991 99.5582 52.0991C99.0085 52.0991 98.56 51.9819 98.2127 51.7475C97.8654 51.511 97.6523 51.1754 97.5735 50.7408L98.4972 50.6001C98.5547 50.8409 98.6729 51.0231 98.8519 51.1467C99.0309 51.2681 99.2642 51.3288 99.5518 51.3288C99.8651 51.3288 100.115 51.2638 100.303 51.1339C100.49 51.0018 100.584 50.8409 100.584 50.6513C100.584 50.4979 100.527 50.369 100.412 50.2646C100.299 50.1602 100.125 50.0813 99.8906 50.0281L99.0597 49.8459C98.6016 49.7415 98.2628 49.5753 98.0433 49.3473C97.826 49.1193 97.7173 48.8306 97.7173 48.4812C97.7173 48.1914 97.7983 47.9379 97.9602 47.7205C98.1222 47.5032 98.3459 47.3338 98.6314 47.2124C98.9169 47.0888 99.244 47.027 99.6126 47.027C100.143 47.027 100.561 47.142 100.865 47.3722C101.17 47.6001 101.371 47.9059 101.469 48.2894ZM104.732 52.0991C104.248 52.0991 103.832 51.9957 103.482 51.7891C103.135 51.5803 102.866 51.2873 102.677 50.9102C102.489 50.5309 102.396 50.0866 102.396 49.5774C102.396 49.0746 102.489 48.6314 102.677 48.2479C102.866 47.8643 103.131 47.565 103.469 47.3498C103.81 47.1346 104.209 47.027 104.665 47.027C104.942 47.027 105.21 47.0728 105.47 47.1644C105.73 47.256 105.963 47.3999 106.17 47.5959C106.377 47.7919 106.54 48.0465 106.659 48.3597C106.778 48.6708 106.838 49.049 106.838 49.4943V49.8331H102.936V49.1172H105.902C105.902 48.8658 105.85 48.6431 105.748 48.4492C105.646 48.2532 105.502 48.0987 105.317 47.9858C105.133 47.8729 104.918 47.8164 104.671 47.8164C104.403 47.8164 104.168 47.8825 103.968 48.0146C103.77 48.1445 103.616 48.315 103.508 48.5259C103.401 48.7347 103.348 48.9616 103.348 49.2067V49.766C103.348 50.0941 103.405 50.3732 103.521 50.6033C103.638 50.8335 103.801 51.0092 104.009 51.1307C104.218 51.25 104.462 51.3097 104.741 51.3097C104.922 51.3097 105.088 51.2841 105.237 51.233C105.386 51.1797 105.515 51.1009 105.623 50.9964C105.732 50.892 105.815 50.7631 105.873 50.6097L106.777 50.7727C106.705 51.0391 106.575 51.2724 106.387 51.4727C106.202 51.6708 105.969 51.8253 105.687 51.9361C105.408 52.0447 105.09 52.0991 104.732 52.0991ZM108.854 49.0852V52H107.898V47.0909H108.816V47.8899H108.876C108.989 47.63 109.166 47.4212 109.407 47.2635C109.65 47.1058 109.955 47.027 110.324 47.027C110.659 47.027 110.952 47.0973 111.203 47.2379C111.454 47.3764 111.649 47.5831 111.788 47.858C111.926 48.1328 111.996 48.4727 111.996 48.8775V52H111.04V48.9925C111.04 48.6367 110.947 48.3587 110.762 48.1584C110.577 47.956 110.322 47.8548 109.998 47.8548C109.776 47.8548 109.579 47.9027 109.407 47.9986C109.236 48.0945 109.101 48.2351 109.001 48.4205C108.903 48.6037 108.854 48.8253 108.854 49.0852ZM116.956 48.2894L116.09 48.4428C116.053 48.332 115.996 48.2266 115.917 48.1264C115.84 48.0263 115.736 47.9442 115.604 47.8803C115.472 47.8164 115.307 47.7844 115.108 47.7844C114.838 47.7844 114.612 47.8452 114.431 47.9666C114.25 48.0859 114.159 48.2404 114.159 48.43C114.159 48.5941 114.22 48.7262 114.341 48.8263C114.463 48.9265 114.659 49.0085 114.93 49.0724L115.709 49.2514C116.161 49.3558 116.498 49.5167 116.719 49.734C116.941 49.9513 117.052 50.2337 117.052 50.581C117.052 50.875 116.966 51.1371 116.796 51.3672C116.628 51.5952 116.392 51.7741 116.09 51.9041C115.789 52.0341 115.441 52.0991 115.045 52.0991C114.495 52.0991 114.046 51.9819 113.699 51.7475C113.352 51.511 113.139 51.1754 113.06 50.7408L113.983 50.6001C114.041 50.8409 114.159 51.0231 114.338 51.1467C114.517 51.2681 114.751 51.3288 115.038 51.3288C115.351 51.3288 115.602 51.2638 115.789 51.1339C115.977 51.0018 116.07 50.8409 116.07 50.6513C116.07 50.4979 116.013 50.369 115.898 50.2646C115.785 50.1602 115.611 50.0813 115.377 50.0281L114.546 49.8459C114.088 49.7415 113.749 49.5753 113.53 49.3473C113.312 49.1193 113.204 48.8306 113.204 48.4812C113.204 48.1914 113.285 47.9379 113.447 47.7205C113.608 47.5032 113.832 47.3338 114.118 47.2124C114.403 47.0888 114.73 47.027 115.099 47.027C115.629 47.027 116.047 47.142 116.352 47.3722C116.656 47.6001 116.858 47.9059 116.956 48.2894ZM120.17 52.0991C119.695 52.0991 119.286 51.9915 118.943 51.7763C118.602 51.5589 118.34 51.2596 118.157 50.8782C117.973 50.4968 117.882 50.06 117.882 49.5678C117.882 49.0692 117.976 48.6293 118.163 48.2479C118.351 47.8643 118.615 47.565 118.956 47.3498C119.297 47.1346 119.698 47.027 120.161 47.027C120.533 47.027 120.866 47.0962 121.158 47.2347C121.45 47.3711 121.685 47.5629 121.864 47.81C122.045 48.0572 122.153 48.3459 122.187 48.6761H121.257C121.206 48.446 121.089 48.2479 120.905 48.0817C120.724 47.9155 120.481 47.8324 120.177 47.8324C119.91 47.8324 119.677 47.9027 119.477 48.0433C119.278 48.1818 119.124 48.38 119.013 48.6378C118.902 48.8935 118.847 49.196 118.847 49.5455C118.847 49.9034 118.901 50.2124 119.01 50.4723C119.119 50.7322 119.272 50.9336 119.47 51.0763C119.671 51.2191 119.906 51.2905 120.177 51.2905C120.358 51.2905 120.522 51.2575 120.669 51.1914C120.818 51.1232 120.943 51.0263 121.043 50.9006C121.145 50.7749 121.216 50.6236 121.257 50.4467H122.187C122.153 50.7642 122.049 51.0476 121.877 51.2969C121.704 51.5462 121.473 51.7422 121.183 51.8849C120.896 52.0277 120.558 52.0991 120.17 52.0991ZM124.164 49.0852V52H123.209V45.4545H124.152V47.8899H124.212C124.327 47.6257 124.503 47.4158 124.74 47.2603C124.976 47.1048 125.285 47.027 125.667 47.027C126.003 47.027 126.297 47.0962 126.549 47.2347C126.802 47.3732 126.998 47.5799 127.137 47.8548C127.277 48.1275 127.348 48.4684 127.348 48.8775V52H126.392V48.9925C126.392 48.6325 126.299 48.3533 126.114 48.1552C125.929 47.9549 125.671 47.8548 125.341 47.8548C125.115 47.8548 124.912 47.9027 124.733 47.9986C124.556 48.0945 124.417 48.2351 124.315 48.4205C124.214 48.6037 124.164 48.8253 124.164 49.0852ZM130.051 52.1087C129.74 52.1087 129.459 52.0511 129.208 51.9361C128.956 51.8189 128.757 51.6495 128.61 51.4279C128.465 51.2063 128.393 50.9347 128.393 50.6129C128.393 50.3359 128.446 50.108 128.553 49.929C128.659 49.75 128.803 49.6083 128.984 49.5039C129.165 49.3995 129.368 49.3207 129.591 49.2674C129.815 49.2141 130.043 49.1737 130.275 49.146C130.569 49.1119 130.808 49.0842 130.991 49.0629C131.174 49.0394 131.308 49.0021 131.391 48.951C131.474 48.8999 131.515 48.8168 131.515 48.7017V48.6793C131.515 48.4002 131.436 48.1839 131.279 48.0305C131.123 47.8771 130.891 47.8004 130.582 47.8004C130.26 47.8004 130.007 47.8718 129.821 48.0146C129.638 48.1552 129.511 48.3118 129.441 48.4844L128.543 48.2798C128.65 47.9815 128.805 47.7408 129.01 47.5575C129.216 47.3722 129.454 47.2379 129.722 47.1548C129.991 47.0696 130.273 47.027 130.569 47.027C130.765 47.027 130.973 47.0504 131.192 47.0973C131.414 47.142 131.621 47.2251 131.812 47.3466C132.006 47.468 132.165 47.6417 132.289 47.8675C132.412 48.0913 132.474 48.3821 132.474 48.7401V52H131.541V51.3288H131.502C131.441 51.4524 131.348 51.5739 131.224 51.6932C131.101 51.8125 130.942 51.9116 130.748 51.9904C130.554 52.0692 130.322 52.1087 130.051 52.1087ZM130.259 51.3416C130.523 51.3416 130.749 51.2894 130.937 51.185C131.126 51.0806 131.27 50.9442 131.368 50.7759C131.468 50.6055 131.518 50.4233 131.518 50.2294V49.5966C131.484 49.6307 131.418 49.6626 131.32 49.6925C131.224 49.7202 131.115 49.7447 130.991 49.766C130.868 49.7852 130.747 49.8033 130.63 49.8203C130.513 49.8352 130.415 49.848 130.336 49.8587C130.151 49.8821 129.981 49.9215 129.828 49.9769C129.676 50.0323 129.555 50.1122 129.463 50.2166C129.374 50.3189 129.329 50.4553 129.329 50.6257C129.329 50.8622 129.417 51.0412 129.591 51.1626C129.766 51.282 129.989 51.3416 130.259 51.3416ZM136.083 47.0909V47.858H133.309V47.0909H136.083ZM134.07 52V46.522C134.07 46.2152 134.137 45.9606 134.271 45.7582C134.405 45.5536 134.583 45.4013 134.805 45.3011C135.026 45.1989 135.267 45.1477 135.527 45.1477C135.719 45.1477 135.883 45.1637 136.019 45.1957C136.156 45.2255 136.257 45.2532 136.323 45.2788L136.099 46.0522C136.054 46.0394 135.997 46.0245 135.927 46.0075C135.856 45.9883 135.771 45.9787 135.671 45.9787C135.439 45.9787 135.272 46.0362 135.172 46.1513C135.074 46.2663 135.025 46.4325 135.025 46.6499V52H134.07ZM139.361 47.0909V47.858H136.679V47.0909H139.361ZM137.398 45.9148H138.354V50.5586C138.354 50.744 138.382 50.8835 138.437 50.9773C138.492 51.0689 138.564 51.1317 138.651 51.1658C138.741 51.1978 138.838 51.2138 138.942 51.2138C139.019 51.2138 139.086 51.2085 139.143 51.1978C139.201 51.1871 139.246 51.1786 139.278 51.1722L139.45 51.9616C139.395 51.983 139.316 52.0043 139.214 52.0256C139.111 52.049 138.984 52.0618 138.83 52.0639C138.579 52.0682 138.344 52.0234 138.127 51.9297C137.91 51.8359 137.734 51.6911 137.6 51.495C137.465 51.299 137.398 51.0529 137.398 50.7567V45.9148Z" fill="black"/>
</svg>
