<svg width="72" height="72" viewBox="0 0 72 72" fill="none" xmlns="http://www.w3.org/2000/svg">
<rect width="72" height="72" rx="20" fill="#E3F8EF"/>
<path d="M11.3659 30.3237C11.8406 30.4296 12.3308 30.4719 12.8141 30.5389C14.7904 30.8159 16.7702 31.0682 18.7413 31.3822C19.777 31.5498 20.8609 31.7068 21.8344 32.1002C24.3355 33.1075 26.0046 34.9916 26.6674 37.6659C27.0126 39.0949 27.1542 40.582 27.3578 42.0479C27.6081 43.812 27.824 45.5956 28.0794 47.3649C28.1071 47.5537 28.3004 47.7177 28.4885 48C28.6922 47.7424 28.8527 47.6137 28.9079 47.4496C28.9606 47.221 28.9912 46.9875 28.9994 46.7528C29.2739 44.6888 29.5171 42.6213 29.833 40.5626C30.0056 39.363 30.1334 38.1246 30.5339 36.9973C31.6385 33.8978 33.8875 32.0861 37.06 31.5568C39.3402 31.1775 41.6394 30.9218 43.9299 30.6042C44.5116 30.5231 45.0966 30.4401 45.6696 30.3043C45.7538 30.2659 45.8277 30.2074 45.885 30.1337C45.9424 30.0601 45.9816 29.9733 45.9993 29.8809C46.0131 29.7716 45.8113 29.5546 45.6715 29.5281C45.2786 29.4442 44.8815 29.3818 44.4821 29.3411C42.4925 29.0624 40.5019 28.7837 38.51 28.5049C37.3311 28.3373 36.1367 28.2333 35.0338 27.7234C32.0425 26.3404 30.4095 23.9412 30.0056 20.6406C29.7467 18.5237 29.4982 16.3873 29.2393 14.2616C29.1651 13.6494 29.096 13.0267 28.9699 12.4358C28.9354 12.2594 28.7077 12.1447 28.5679 12C28.4227 12.1342 28.2891 12.2812 28.1691 12.4393C28.1167 12.5604 28.0902 12.6915 28.0914 12.8239C28.0017 13.5295 27.9188 14.251 27.8256 14.9637C27.5615 16.9413 27.2819 18.9153 27.0264 20.8929C26.8026 22.8637 25.9141 24.6933 24.5134 26.067C22.8788 27.6899 20.8402 28.2544 18.655 28.512C16.6442 28.7501 14.6419 29.0588 12.6362 29.3358C12.1944 29.3789 11.7553 29.4473 11.3209 29.5405C11.2368 29.5775 11.1632 29.6358 11.107 29.7099C11.0509 29.7839 11.0141 29.8713 11 29.9638C11.0017 30.0856 11.2158 30.2902 11.3659 30.3237Z" fill="#298A64"/>
<path d="M37.2405 47.7068C37.5524 47.7744 37.8745 47.8015 38.1921 47.8443C39.4908 48.0213 40.7918 48.1824 42.0872 48.3831C42.7677 48.4901 43.48 48.5905 44.1198 48.8418C45.7633 49.4853 46.8602 50.689 47.2957 52.3977C47.5226 53.3106 47.6156 54.2607 47.7494 55.1973C47.9139 56.3244 48.0558 57.4638 48.2236 58.5943C48.2418 58.7149 48.3688 58.8197 48.4925 59C48.6263 58.8354 48.7318 58.7532 48.7681 58.6484C48.8027 58.5023 48.8228 58.3531 48.8282 58.2032C49.0086 56.8845 49.1684 55.5636 49.376 54.2483C49.4894 53.4819 49.5734 52.6907 49.8365 51.9705C50.5625 49.9903 52.0404 48.8328 54.1252 48.4946C55.6235 48.2523 57.1345 48.0889 58.6397 47.886C59.0219 47.8342 59.4063 47.7812 59.7829 47.6944C59.8382 47.6699 59.8868 47.6325 59.9245 47.5855C59.9622 47.5384 59.9879 47.483 59.9996 47.4239C60.0086 47.3541 59.876 47.2154 59.7841 47.1985C59.5259 47.1449 59.265 47.105 59.0025 47.079C57.6951 46.901 56.3869 46.7229 55.078 46.5448C54.3033 46.4377 53.5184 46.3713 52.7936 46.0455C50.8279 45.1619 49.7548 43.6291 49.4894 41.5204C49.3192 40.1679 49.156 38.803 48.9858 37.4449C48.9371 37.0538 48.8916 36.656 48.8088 36.2784C48.7861 36.1657 48.6365 36.0924 48.5446 36C48.4492 36.0857 48.3614 36.1797 48.2826 36.2807C48.2481 36.358 48.2307 36.4418 48.2315 36.5264C48.1725 36.9772 48.1181 37.4381 48.0568 37.8935C47.8833 39.1569 47.6995 40.4181 47.5317 41.6815C47.3846 42.9407 46.8007 44.1096 45.8802 44.9872C44.8061 46.0241 43.4664 46.3848 42.0304 46.5493C40.709 46.7015 39.3933 46.8987 38.0752 47.0757C37.7849 47.1032 37.4963 47.1469 37.2109 47.2064C37.1556 47.2301 37.1072 47.2673 37.0703 47.3146C37.0334 47.3619 37.0093 47.4178 37 47.4769C37.0011 47.5547 37.1418 47.6854 37.2405 47.7068Z" fill="#298A64"/>
</svg>
