<svg width="20" height="20" viewBox="0 0 20 20" fill="none" xmlns="http://www.w3.org/2000/svg">
<g clip-path="url(#clip0_2236_4619)">
<path d="M9.16406 3.3332H3.33073C2.8887 3.3332 2.46478 3.50879 2.15222 3.82135C1.83966 4.13391 1.66406 4.55784 1.66406 4.99986V16.6665C1.66406 17.1086 1.83966 17.5325 2.15222 17.845C2.46478 18.1576 2.8887 18.3332 3.33073 18.3332H14.9974C15.4394 18.3332 15.8633 18.1576 16.1759 17.845C16.4885 17.5325 16.6641 17.1086 16.6641 16.6665V10.8332M15.4141 2.0832C15.7456 1.75168 16.1952 1.56543 16.6641 1.56543C17.1329 1.56543 17.5825 1.75168 17.9141 2.0832C18.2456 2.41472 18.4318 2.86436 18.4318 3.3332C18.4318 3.80204 18.2456 4.25168 17.9141 4.5832L9.9974 12.4999L6.66406 13.3332L7.4974 9.99986L15.4141 2.0832Z" stroke="#202020" stroke-width="1.5" stroke-linecap="round" stroke-linejoin="round"/>
</g>
<defs>
<clipPath id="clip0_2236_4619">
<rect width="20" height="20" fill="white"/>
</clipPath>
</defs>
</svg>
