<svg width="25" height="24" viewBox="0 0 25 24" fill="none" xmlns="http://www.w3.org/2000/svg">
<path d="M13.0119 23.7313C13.0396 23.793 13.0807 23.8479 13.1321 23.8921C13.1836 23.9363 13.2442 23.9687 13.3096 23.987C13.4968 24.0287 13.5514 23.8608 13.5696 23.7059C13.6029 23.4045 13.6337 23.1032 13.6645 22.8007L14.0816 18.6826C14.1711 17.8553 14.2452 17.0285 14.5885 16.2535C15.3631 14.5462 16.6562 13.4213 18.4879 13.0135C19.9827 12.6811 21.5081 12.4806 23.0196 12.2206C23.5336 12.132 24.0462 12.0376 24.559 11.9479C24.7495 11.9153 24.874 11.8191 24.8622 11.6158C24.8503 11.4125 24.7077 11.3622 24.5311 11.3542C24.3936 11.3472 24.257 11.3332 24.1193 11.3191C22.7596 11.1829 21.3981 11.0609 20.0413 10.9034C19.2096 10.8077 18.3595 10.7596 17.5768 10.5067C15.4765 9.8312 14.1989 8.35101 13.7676 6.19836C13.4608 4.66424 13.2338 3.1132 12.9681 1.57058C12.8999 1.17498 12.8328 0.77815 12.7364 0.389421C12.7075 0.272685 12.5801 0.180607 12.4463 0.0110115C12.3254 0.173016 12.2182 0.254457 12.1981 0.356421C12.1459 0.624349 12.1306 0.899247 12.1082 1.17085C11.9663 2.56403 11.8398 3.95666 11.6789 5.34698C11.5996 6.02443 11.5412 6.72235 11.328 7.36092C10.5782 9.60898 8.951 10.8586 6.63096 11.2434C5.24386 11.4732 3.85247 11.6819 2.4639 11.9035C2.03673 11.9714 1.61114 12.051 1.18524 12.1212C1.00054 12.1524 0.834735 12.2512 0.882795 12.4414C0.915664 12.5057 0.962515 12.5619 1.01993 12.6059C1.07734 12.6499 1.14393 12.6807 1.21478 12.6959C1.47667 12.7367 1.74071 12.7625 2.00558 12.7731C3.61941 12.937 5.23354 13.1114 6.84827 13.2669C8.463 13.4225 9.81252 14.1136 10.8528 15.3725C11.6918 16.39 11.9723 17.6106 12.1678 18.8707C12.3707 20.1765 12.6042 21.4765 12.826 22.7793C12.8693 23.1 12.9313 23.4178 13.0119 23.7313Z" fill="#FFBFC0"/>
</svg>
