<svg width="61" height="61" viewBox="0 0 61 61" fill="none" xmlns="http://www.w3.org/2000/svg">
<path d="M57.0873 9.85305L14.5983 0.830844C12.4373 0.371982 10.3135 1.75178 9.85446 3.91271L0.831132 46.3942C0.372138 48.5551 1.75185 50.6789 3.91281 51.1378L46.4018 60.16C48.5627 60.6188 50.6866 59.239 51.1456 57.0781L60.169 14.5966C60.628 12.4357 59.2482 10.3119 57.0873 9.85305Z" fill="#FDBE16"/>
<path d="M31.009 51.7921C30.8126 51.667 30.5822 51.7058 30.3625 51.6997C30.2726 51.6969 30.1808 51.7125 30.0925 51.7023C29.9594 51.6857 29.905 51.5919 30.0203 51.5111C30.2006 51.3882 30.3931 51.2841 30.5947 51.2006C30.7096 51.1671 30.8281 51.1475 30.9477 51.1422C30.9069 50.9684 30.7902 50.9551 30.6703 50.9573C30.499 50.9611 30.326 50.973 30.1498 50.9758C30.0995 50.9759 30.011 50.9537 30.0064 50.9298C29.9974 50.8776 30.0128 50.7843 30.0478 50.7675C30.2398 50.6651 30.4389 50.5768 30.6436 50.5031C30.7704 50.473 30.9001 50.4569 31.0303 50.4549L31.0564 50.3808C30.9794 50.3397 30.9033 50.2646 30.824 50.2648C30.6545 50.2595 30.4774 50.292 30.3049 50.3015C30.2457 50.2981 30.1871 50.288 30.1302 50.2713C30.1366 50.2061 30.1552 50.1427 30.185 50.0844C30.2518 49.9994 30.3368 49.9305 30.4339 49.8829C30.5309 49.8353 30.6374 49.8102 30.7455 49.8094C30.864 49.8052 30.9826 49.7882 31.101 49.7763C31.1064 49.7493 31.1121 49.7214 31.1176 49.6943C31.0269 49.649 30.9308 49.6155 30.8315 49.5947C30.6879 49.5836 30.5416 49.6112 30.396 49.6142C30.3447 49.6149 30.2546 49.601 30.2492 49.5768C30.2433 49.5487 30.2432 49.5196 30.2489 49.4914C30.2546 49.4633 30.266 49.4365 30.2824 49.4129C30.3744 49.3026 30.4906 49.215 30.622 49.1571C30.7534 49.0991 30.8964 49.0723 31.0399 49.0788C31.5248 49.0846 32.0098 49.1451 32.4962 49.1522C32.7928 49.1596 33.0892 49.1319 33.3793 49.0696C33.6333 49.0117 33.6895 48.8643 33.5766 48.6256C33.2866 48.0098 32.9825 47.3962 32.6795 46.7897C32.0455 45.5135 31.4104 44.238 30.7743 42.9631C30.7435 42.9006 30.7144 42.8375 30.6813 42.7736C30.5477 42.5359 30.3884 42.4635 30.1249 42.5391C28.4438 43.021 26.9752 43.848 25.8299 45.1976C25.2741 45.8652 24.8035 46.5993 24.4287 47.383C24.1937 47.862 23.9428 48.3352 23.6633 48.7899C23.4084 49.2068 22.9937 49.3175 22.5209 49.2689C21.6735 49.1829 20.984 48.7756 20.305 48.2868C19.5136 47.7172 18.6631 47.2287 17.8433 46.6986C17.4707 46.4577 17.1168 46.1874 16.7394 45.9532C16.4696 45.786 16.1745 45.6598 15.8915 45.507C15.834 45.4657 15.7819 45.4173 15.7364 45.363C15.7941 45.3098 15.849 45.2279 15.9122 45.2108C16.0462 45.1814 16.1835 45.1704 16.3205 45.1782C16.4299 45.1913 16.5381 45.2132 16.6441 45.2436L16.684 45.1936C16.6383 45.1375 16.6043 45.0606 16.5467 45.0293C16.3402 44.9159 16.124 44.821 15.9147 44.713C15.8699 44.6903 15.801 44.6345 15.8076 44.606C15.8156 44.5775 15.8293 44.5508 15.8477 44.5276C15.8662 44.5043 15.8891 44.485 15.9151 44.4707C16.1636 44.3554 16.4143 44.389 16.6651 44.4773C16.7326 44.4913 16.8016 44.4961 16.8703 44.4915C16.8267 44.4204 16.801 44.3196 16.7416 44.2845C16.589 44.1957 16.4111 44.1392 16.2475 44.0626C16.197 44.0325 16.1505 43.9961 16.109 43.9544C16.1544 43.9073 16.1983 43.8206 16.2464 43.8192C16.4571 43.811 16.6682 43.8169 16.8782 43.8369C16.9621 43.8436 17.046 43.9049 17.1327 43.9233C17.1753 43.9319 17.223 43.8989 17.2743 43.8854C17.2529 43.8392 17.2426 43.768 17.2075 43.7515C17.0333 43.6685 16.8511 43.6036 16.6752 43.5245C16.6127 43.4896 16.5535 43.4491 16.4984 43.4034C16.5467 43.3421 16.6041 43.2887 16.6686 43.245C16.9094 43.1298 17.1426 43.2119 17.3758 43.2906C17.4428 43.3058 17.5113 43.3136 17.58 43.314C17.5388 43.2434 17.5151 43.1413 17.4513 43.1071C17.2708 43.0083 17.0747 42.9362 16.8192 42.8248C16.9366 42.7462 17.016 42.6487 17.0985 42.6458C17.3305 42.6372 17.5774 42.6223 17.7932 42.6898C18.9408 43.0498 19.8859 43.758 20.8033 44.5058C20.8394 44.5384 20.8778 44.5684 20.9182 44.5955C21.1847 44.7535 21.3741 44.6647 21.4264 44.3638C21.5342 43.7464 21.639 43.1268 21.7547 42.5119C21.8367 42.0813 21.9482 41.6559 22.0228 41.2238C22.1293 40.6546 22.3565 40.1148 22.6891 39.6408C23.1348 38.98 23.5588 38.2917 24.0852 37.7044C25.0743 36.6081 26.313 35.8764 27.7354 35.4719C28.0512 35.3933 28.3712 35.333 28.6939 35.291C29.2418 35.2004 29.3879 34.9629 29.2178 34.4293C29.0729 33.9733 28.8894 33.5224 28.7986 33.056C28.7047 32.5735 28.653 32.0837 28.6443 31.5921C28.6345 31.1635 28.5461 31.0526 28.1176 31.0419C26.895 31.0106 25.6656 31.0463 24.4575 30.8379C23.6132 30.7042 22.7801 30.5072 21.9652 30.2487C21.4505 30.0781 20.976 29.7467 20.5273 29.4264C19.4086 28.632 18.6987 27.5413 18.3222 26.2313C18.1897 25.7727 18.1236 25.2943 17.9809 24.8396C17.8803 24.5189 17.7042 24.2214 17.558 23.9153C17.4988 23.7865 17.4227 23.661 17.343 23.5109C17.7787 23.3635 17.9719 23.7114 18.2826 23.9253C18.2719 23.8139 18.2835 23.7394 18.2559 23.6861C18.1532 23.4895 18.0338 23.2999 17.9285 23.1079C17.9044 23.046 17.8888 22.9812 17.8822 22.9151C17.9468 22.8977 18.0137 22.8896 18.0806 22.8912C18.3274 22.936 18.4931 23.1034 18.6381 23.2974C18.6897 23.3654 18.7556 23.4212 18.831 23.461C18.9173 23.0765 18.5223 22.8789 18.483 22.5373C19.0265 22.4518 19.1586 22.9922 19.5337 23.2464C19.5319 22.833 19.2458 22.6412 19.1121 22.3787C19.2832 22.2494 19.4592 22.2603 19.6708 22.4541C19.8032 22.5971 19.9245 22.75 20.0338 22.9114L20.1025 22.892C20.1033 22.8006 20.0901 22.7096 20.0632 22.6221C19.9862 22.4828 19.902 22.3475 19.8108 22.217C19.7277 22.0841 19.7732 21.9815 19.9195 22.0128C20.0999 22.0485 20.2692 22.1269 20.4131 22.2415C20.5517 22.3774 20.6661 22.5358 20.7516 22.7101C21.3004 23.6743 21.6505 24.7264 22.0422 25.7588C22.1042 25.9206 22.1612 26.0858 22.2335 26.2429C22.4149 26.6405 22.6328 26.74 23.1831 26.6627C24.8976 26.4331 26.5714 25.9637 28.1556 25.2684C28.6832 25.0337 28.7139 24.8607 28.2855 24.4652C27.1734 23.44 26.055 22.4211 24.9434 21.3935C23.5856 20.1368 22.6314 18.6298 22.166 16.8274C21.9774 16.0981 21.9164 15.3536 21.8782 14.6018C21.8468 13.9725 21.7554 13.3447 21.4527 12.7707C21.402 12.6751 21.4135 12.5426 21.4032 12.4288C21.5191 12.4536 21.6311 12.4935 21.7366 12.5474C21.8667 12.6521 21.9877 12.7676 22.0983 12.8927C22.1365 12.5224 21.8586 12.2939 21.8191 11.9829C22.0347 11.9207 22.1776 12.0238 22.3037 12.1594C22.3737 12.235 22.4237 12.3296 22.4894 12.4094C22.525 12.4446 22.5645 12.4755 22.6072 12.5015C22.6185 12.4458 22.6565 12.3843 22.6404 12.3375C22.6008 12.2268 22.5546 12.1186 22.5021 12.0135C22.4613 11.9199 22.4213 11.8265 22.3698 11.706C22.8622 11.675 22.943 12.1231 23.1803 12.3665L23.2562 12.3246C23.2362 12.2201 23.2088 12.117 23.1744 12.0163C23.1352 11.923 23.0671 11.8384 23.0212 11.7447C23.0059 11.6961 22.9974 11.6455 22.9961 11.5945C23.054 11.5866 23.1196 11.5572 23.1708 11.5744C23.2636 11.6047 23.349 11.6542 23.4214 11.7197C23.4938 11.7852 23.5516 11.8652 23.5911 11.9546C23.6262 12.0257 23.6708 12.0919 23.7376 12.2044C23.8782 11.859 23.5989 11.6797 23.5454 11.4257C23.7193 11.3329 23.8629 11.4327 23.9697 11.5328C24.1029 11.6548 24.212 11.8007 24.2913 11.963C24.5747 12.5818 24.8515 13.2078 24.893 13.9014C24.9145 14.2547 24.8982 14.6098 24.918 14.9629C24.975 15.9932 25.4276 16.8254 26.2118 17.4814C26.8061 17.9796 27.4867 18.3467 28.1671 18.7019C28.9867 19.1235 29.8088 19.5457 30.6284 19.9674C30.8383 20.0764 31.0346 20.2151 31.2529 20.2993C31.3961 20.3607 31.5558 20.372 31.7062 20.3312C32.4881 20.0239 33.2641 19.7007 34.0343 19.3614C34.3499 19.2181 34.6544 19.0515 34.9453 18.8629C35.2074 18.6966 35.1914 18.5526 34.9093 18.429C34.3615 18.186 33.812 17.9512 33.2621 17.718C33.0949 17.6466 32.9411 17.5592 32.9252 17.3598C32.9078 17.1421 33.0297 16.9986 33.2147 16.8935C33.5496 16.7052 33.9085 16.7777 34.2556 16.807C34.7334 16.8481 35.2072 16.9302 35.6832 16.9932C35.7538 17.0023 35.8246 17.0021 35.8954 17.0062L35.9059 16.9546C35.7535 16.8939 35.6029 16.8293 35.448 16.7767C34.7223 16.5148 33.992 16.2673 33.271 15.9952C32.7437 15.7939 32.2384 15.5425 31.8556 15.1118C31.7123 14.9537 31.6104 14.7626 31.5588 14.5555C31.5072 14.3484 31.5076 14.1317 31.56 13.9248C31.5805 13.8625 31.6062 13.8021 31.6366 13.744C31.6829 13.7966 31.7261 13.8518 31.7661 13.9093C32.2008 14.6064 32.8539 15.0166 33.6131 15.252C34.3723 15.4874 35.13 15.6628 35.89 15.8642C35.9244 15.867 35.959 15.8669 35.9933 15.8638C35.9667 15.7877 35.933 15.7143 35.8927 15.6446C35.5364 15.1459 35.0285 14.899 34.4379 14.8001C34.2532 14.7688 34.067 14.7448 33.8808 14.7165C33.7686 14.7044 33.6615 14.6631 33.5702 14.5967C33.4789 14.5303 33.4065 14.4412 33.3603 14.3382C32.9896 13.5056 32.7112 12.6514 32.8255 11.7188C32.8696 11.3574 32.954 11.2942 33.318 11.3499C34.1514 11.4628 34.9948 11.483 35.8327 11.4103C36.7739 11.3445 37.7187 11.2608 38.6597 11.2761C39.7646 11.2946 40.8488 11.5044 41.781 12.1707C41.9985 12.3265 42.2197 12.3123 42.4552 12.2737C43.6903 12.0703 44.2441 13.1533 44.1864 13.9446C44.1716 14.0875 44.1287 14.226 44.0603 14.3523C43.9919 14.4786 43.8993 14.5902 43.7878 14.6807C43.5456 14.8954 43.4726 15.1469 43.4533 15.4664C43.4196 16.2373 43.3378 17.0053 43.2084 17.7661C43.004 18.9265 42.4301 19.9899 41.5722 20.7974C41.4479 20.9185 41.3354 21.0512 41.2362 21.1937C41.0082 21.5076 41.0518 21.8484 41.158 22.1924C41.3128 22.6637 41.3675 23.1621 41.3187 23.6558C41.2698 24.1495 41.1185 24.6276 40.8743 25.0594C40.4604 25.812 40.0009 26.5408 39.5449 27.2653C39.0013 28.1316 38.4935 29.0154 38.4358 30.0644C38.4022 30.7163 38.42 31.3699 38.4892 32.019C38.6071 33.1573 38.8058 34.288 38.9184 35.4269C38.9841 36.1015 38.9667 36.7866 38.9523 37.4655C38.9352 37.8498 39.0634 38.2263 39.3113 38.5203C39.4905 38.7391 39.6859 38.9621 39.7926 39.2149C40.0361 39.7991 39.8443 40.4695 39.2889 40.9093C38.9903 41.1459 38.8773 41.414 38.8322 41.7718C38.7802 42.136 38.6984 42.4954 38.5878 42.8462C38.2825 43.825 38.1611 44.8519 38.2297 45.8748C38.2888 46.6496 38.342 47.4284 38.3484 48.2028C38.3576 48.9078 38.0802 49.5292 37.6683 50.0945C37.0308 50.9785 36.1383 51.508 35.1601 51.9255C34.2896 52.2956 33.3712 52.5409 32.4321 52.654C32.1791 52.6933 31.9204 52.6754 31.6752 52.6017C31.2776 52.459 30.8747 52.4441 30.4642 52.4371C30.388 52.4249 30.314 52.4019 30.2443 52.3688C30.2784 52.2971 30.293 52.1994 30.3498 52.1588C30.4749 52.0742 30.6083 52.0025 30.7479 51.9449C30.8311 51.9133 30.9166 51.8881 31.0036 51.8695L31.009 51.7921ZM37.4285 12.4138C36.8871 12.2992 36.1956 12.7371 36.0719 13.2728C36.0292 13.4587 36.1396 13.5792 36.3261 13.5298C36.416 13.5004 36.4993 13.4538 36.5714 13.3925C36.6814 13.3081 36.7726 13.1985 36.882 13.1217C37.1552 12.9388 37.4389 12.9782 37.6362 13.2383C37.7429 13.3988 37.8347 13.5687 37.9105 13.746C37.9972 13.9205 38.1665 14.0068 38.3353 13.9479C38.5189 13.8835 38.537 13.7267 38.5147 13.5712C38.4527 13.1055 37.8857 12.5105 37.4285 12.4138ZM41.3904 14.4572C41.9214 14.5432 42.671 14.1725 42.9171 13.6889C42.9721 13.5814 42.9325 13.5324 42.8227 13.523C42.6501 13.5078 42.4779 13.4823 42.3052 13.4841C41.9126 13.4901 41.5412 13.5763 41.2691 13.872C41.1742 13.9868 41.1193 14.1294 41.1128 14.2782C41.1095 14.3364 41.2922 14.3989 41.3904 14.4572Z" fill="#202020"/>
</svg>
