<svg width="106" height="40" viewBox="0 0 106 40" fill="none" xmlns="http://www.w3.org/2000/svg">
<path d="M73.4129 10.0343L75.042 4.00106C76.0767 0.173744 81.0835 -0.764951 83.4352 2.43514C85.5003 5.24269 83.9183 9.24495 80.4892 9.88497L74.3365 11.0327C73.755 11.1394 73.2633 10.6061 73.4172 10.0386" fill="#202020"/>
<path d="M25.9311 36.0575C25.9311 35.9253 25.9311 35.793 25.9311 35.665C25.9311 25.8684 25.9097 15.3038 25.8755 5.50727C25.8712 3.97123 26.4057 2.95146 28.0561 2.90453C32.0411 2.79359 33.1485 6.92812 33.1442 10.1495C33.1442 18.5082 33.1356 27.1783 33.1314 35.537C33.1314 36.7146 33.0629 38.0501 32.1693 38.8224C31.5066 39.3899 30.5702 39.4838 29.698 39.4966C28.5949 39.5094 27.3635 39.3814 26.6323 38.5536C26.0508 37.8922 25.9482 36.9621 25.9311 36.0661" fill="#202020"/>
<path d="M74.8086 16.8225C74.8899 15.534 75.2191 14.3222 76.2666 13.7846C76.7926 13.5158 77.3869 13.4262 77.9769 13.3707C79.1698 13.264 80.5252 13.3622 81.3291 14.2496C82.0602 15.0603 82.103 16.2593 82.103 17.3473C82.103 23.1758 82.103 29.7466 82.103 35.5751C82.103 36.6461 82.0602 37.828 81.3291 38.6088C80.6236 39.3597 79.4948 39.5048 78.4644 39.5005C77.404 39.492 76.2324 39.3128 75.5569 38.5021C74.9412 37.764 74.9113 36.7143 74.907 35.7543C74.8984 30.7707 74.8899 25.0446 74.877 20.061C74.877 19.1991 74.7445 17.9788 74.8172 16.8225" fill="#202020"/>
<path d="M104.355 27.2471C104.017 26.846 103.637 26.4876 103.218 26.1719C100.391 24.0769 96.4449 24.3926 93.2467 22.9206C92.5454 22.5963 91.8271 22.1184 91.6304 21.3718C91.4509 20.6848 91.7844 19.9338 92.3231 19.4645C92.8618 18.9994 93.5673 18.769 94.2643 18.6367C95.2178 18.4533 96.1969 18.4447 97.1546 18.5813C97.9499 18.6965 98.7409 18.9951 99.4763 19.3109C99.7457 19.4261 100.041 19.5157 100.323 19.4474C100.768 19.345 100.964 18.8885 101.204 18.5514C101.516 18.1162 101.798 17.6511 102.02 17.1647C102.367 16.4009 102.696 15.2105 101.755 14.7241C99.1129 13.3587 95.9788 12.9662 93.0799 13.6361C88.4151 14.7113 82.3351 19.648 85.7813 24.8705C86.94 26.6199 88.941 27.6311 90.9506 28.2456C92.9602 28.86 95.0638 29.1544 97.0306 29.8883C97.9927 30.2467 99.053 30.8995 99.1001 31.9278C99.1514 33.05 97.9627 33.8052 96.881 34.1209C94.2215 34.889 91.2328 34.4281 88.9282 32.8964C87.9619 32.2521 86.9101 31.3902 85.7856 31.6889C84.4558 32.043 84.0796 33.8564 84.5884 35.1364C85.4521 37.3168 87.8636 38.4517 90.1468 38.9808C92.973 39.6336 95.9446 39.6678 98.788 39.0875C100.571 38.7205 102.358 38.0848 103.709 36.8687C105.227 35.5034 106.091 33.4425 105.992 31.4073C105.92 29.8925 105.321 28.412 104.346 27.2557" fill="#202020"/>
<path d="M13.0366 13.3008C16.8719 13.3008 19.5314 14.4229 21.216 15.8011C22.9049 17.1793 23.6702 18.8647 23.6702 20.0893C23.6702 21.9752 21.8359 23.1784 20.1043 23.3235C19.9846 23.332 19.8606 23.3363 19.758 23.2765C19.6724 23.2253 19.6169 23.1315 19.5656 23.0419C18.1418 20.5245 16.3673 19.1207 13.3402 19.1207C9.45355 19.1207 6.59311 22.133 6.59311 26.3188C6.59311 30.5045 9.40652 33.6705 13.3402 33.6705C14.7811 33.6705 16.2348 33.3462 17.4192 32.4928C17.928 32.1259 18.3641 31.6779 18.7318 31.1744C19.0396 30.7477 19.3218 29.7279 19.7751 29.5189C19.9119 29.4549 20.0701 29.4549 20.224 29.4634C21.9941 29.5743 23.6702 30.9098 23.6702 32.7531C23.6702 33.9265 22.9049 35.6118 21.1647 36.9388C19.4758 38.3682 16.7693 39.4904 13.0366 39.4904C5.36599 39.4946 0 34.0801 0 26.3188C0 18.5575 5.46861 13.3008 13.0366 13.3008Z" fill="#202020"/>
<path d="M71.6819 12.7304L66.7435 14.4158C62.8997 15.73 58.7309 15.73 54.8913 14.4158C54.8913 14.4158 50.1025 12.8413 49.0037 12.5085C48.9139 12.4829 48.8369 12.5683 48.8754 12.6536C49.9358 14.9875 59.6416 36.2447 60.7191 38.6085C60.7575 38.6938 60.8773 38.6896 60.9157 38.6085L72.396 13.5198C72.6055 13.0589 72.1651 12.5683 71.6819 12.7347V12.7304Z" fill="#202020"/>
<path d="M45.2327 13.2952C45.1942 13.2141 45.0745 13.2141 45.0403 13.2952L35.6209 33.8739C34.5093 36.2975 36.9122 38.8447 39.4007 37.8847C43.1462 36.4383 47.2765 36.3103 51.1032 37.522L57.0935 39.4165C57.1833 39.4464 57.2645 39.3568 57.2217 39.2714C56.1186 36.8735 46.323 15.612 45.2284 13.2952H45.2327ZM44.6726 33.0334C43.1205 32.9523 41.8506 31.6808 41.7694 30.1319C41.6753 28.3612 43.0863 26.8934 44.8393 26.8934C46.5924 26.8934 47.9136 28.2674 47.9136 29.9655C47.9136 31.6637 46.4427 33.1272 44.6683 33.0334H44.6726Z" fill="#202020"/>
</svg>
