<svg width="88" height="40" viewBox="0 0 88 40" fill="none" xmlns="http://www.w3.org/2000/svg">
<g clip-path="url(#clip0_10_6)">
<path d="M60.4027 8.04215L61.7429 3.06464C62.5943 -0.0929585 66.7137 -0.867396 68.6484 1.77273C70.3476 4.08901 69.0459 7.39093 66.2247 7.91895L61.1625 8.86589C60.6841 8.95389 60.2796 8.51386 60.4061 8.04568" fill="#DB3B4D"/>
<path d="M21.3337 29.5108C21.3337 29.4017 21.3337 29.2925 21.3337 29.187C21.3337 21.1045 21.3161 12.3887 21.288 4.30634C21.2843 3.03909 21.7241 2.19776 23.082 2.15903C26.3606 2.06752 27.2716 5.47856 27.2682 8.13629C27.2682 15.0323 27.2612 22.1853 27.2575 29.0813C27.2575 30.0529 27.2014 31.1547 26.4661 31.7919C25.9208 32.26 25.1504 32.3374 24.4329 32.348C23.5253 32.3586 22.512 32.2531 21.9106 31.57C21.432 31.0245 21.3478 30.257 21.3337 29.5178" fill="#DB3B4D"/>
<path d="M61.5486 13.637C61.6155 12.5739 61.8863 11.5742 62.7482 11.1306C63.181 10.9088 63.67 10.8349 64.1553 10.7892C65.1369 10.7012 66.252 10.7821 66.9133 11.5143C67.5149 12.1832 67.55 13.1723 67.55 14.07C67.55 18.8785 67.55 24.2996 67.55 29.1081C67.55 29.9916 67.5149 30.9667 66.9133 31.611C66.3329 32.2306 65.4043 32.3502 64.5563 32.3467C63.6841 32.3396 62.7202 32.1918 62.1643 31.523C61.6577 30.9141 61.6331 30.0479 61.6296 29.2559C61.6224 25.1445 61.6155 20.4204 61.6049 16.3088C61.6049 15.5977 61.4959 14.591 61.5557 13.637" fill="#DB3B4D"/>
<path d="M85.857 22.2392C85.579 21.9083 85.2659 21.6126 84.9212 21.3522C82.5959 19.6237 79.349 19.8842 76.7176 18.6698C76.1408 18.4022 75.5498 18.008 75.388 17.3919C75.2402 16.8252 75.5145 16.2056 75.9578 15.8184C76.401 15.4347 76.9815 15.2446 77.5549 15.1355C78.3394 14.9841 79.1449 14.9771 79.9329 15.0898C80.5874 15.1848 81.2382 15.4312 81.8431 15.6917C82.0647 15.7867 82.3076 15.8607 82.5396 15.8043C82.9055 15.7199 83.0674 15.3432 83.2643 15.0651C83.5212 14.706 83.7533 14.3223 83.9363 13.921C84.2212 13.2909 84.4921 12.3088 83.7182 11.9075C81.5441 10.7811 78.9655 10.4572 76.5804 11.0099C72.7425 11.897 67.7402 15.9698 70.5755 20.2785C71.5288 21.7218 73.1751 22.5561 74.8286 23.0628C76.4821 23.5698 78.2127 23.8128 79.831 24.4181C80.6225 24.7139 81.4949 25.2524 81.5335 26.1008C81.5757 27.0267 80.5978 27.6498 79.7078 27.9102C77.5198 28.5439 75.0608 28.1636 73.1647 26.9C72.3696 26.3683 71.5043 25.6573 70.579 25.9036C69.4849 26.1959 69.1755 27.692 69.5941 28.7479C70.3047 30.5469 72.2888 31.4832 74.1672 31.9198C76.4925 32.4583 78.9374 32.4865 81.2768 32.0077C82.7437 31.7049 84.2141 31.1804 85.3257 30.1771C86.5747 29.0508 87.2853 27.3506 87.2043 25.6714C87.1445 24.4218 86.6521 23.2002 85.85 22.2463" fill="#DB3B4D"/>
<path d="M10.7263 10.7358C13.8818 10.7358 16.0699 11.6616 17.4559 12.7987C18.8454 13.9357 19.4751 15.3261 19.4751 16.3364C19.4751 17.8924 17.966 18.885 16.5412 19.0047C16.4427 19.0118 16.3407 19.0153 16.2563 18.966C16.1859 18.9238 16.1402 18.8463 16.098 18.7724C14.9266 16.6955 13.4667 15.5373 10.976 15.5373C7.77833 15.5373 5.4249 18.0226 5.4249 21.4759C5.4249 24.9292 7.73963 27.541 10.976 27.541C12.1616 27.541 13.3576 27.2737 14.332 26.5696C14.7507 26.2668 15.1095 25.8972 15.412 25.4819C15.6653 25.1298 15.8975 24.2886 16.2704 24.1159C16.3829 24.0633 16.5131 24.0633 16.6397 24.0702C18.0961 24.1619 19.4751 25.2635 19.4751 26.7843C19.4751 27.7523 18.8454 29.1429 17.4137 30.2376C16.0241 31.4168 13.7973 32.3427 10.7263 32.3427C4.41528 32.3461 0.000396729 27.879 0.000396729 21.4759C0.000396729 15.0727 4.49971 10.7358 10.7263 10.7358Z" fill="#DB3B4D"/>
<path d="M58.981 10.269L54.9178 11.6594C51.7553 12.7436 48.3255 12.7436 45.1663 11.6594C45.1663 11.6594 41.2265 10.3605 40.3225 10.0859C40.2486 10.0648 40.1851 10.1352 40.2167 10.2056C41.0892 12.1311 49.0747 29.6686 49.9612 31.6188C49.9929 31.6892 50.0914 31.6857 50.1231 31.6188L59.5684 10.9202C59.7408 10.54 59.3784 10.1352 58.981 10.2725V10.269Z" fill="#DB3B4D"/>
<path d="M37.2157 10.7317C37.1841 10.6649 37.0857 10.6649 37.0576 10.7317L29.3078 27.7096C28.3931 29.709 30.37 31.8106 32.4176 31.0186C35.4992 29.8251 38.8974 29.7196 42.0457 30.7194L46.9743 32.2822C47.0482 32.3069 47.1149 32.233 47.0798 32.1626C46.1723 30.1843 38.1129 12.6432 37.2123 10.7317H37.2157ZM36.7549 27.0161C35.478 26.9492 34.4333 25.9002 34.3663 24.6224C34.289 23.1614 35.4498 21.9506 36.8923 21.9506C38.3345 21.9506 39.4214 23.0841 39.4214 24.4851C39.4214 25.8861 38.2114 27.0935 36.7514 27.0161H36.7549Z" fill="#DB3B4D"/>
<path d="M0.0876173 38.9979C0.446966 39.2385 0.897023 39.3467 1.16566 39.3467C1.4343 39.3467 1.63665 39.2385 1.63665 38.9873C1.63665 38.6734 1.31917 38.6455 0.886557 38.5059C0.419055 38.3524 0.000396729 38.1222 0.000396729 37.5361C0.000396729 36.9081 0.474876 36.5139 1.18311 36.5139C1.51455 36.5139 1.91925 36.5975 2.2123 36.7547V37.4873C1.85296 37.2639 1.43779 37.1628 1.17613 37.1628C0.914468 37.1628 0.743515 37.2569 0.743515 37.4802C0.743515 37.7767 1.05402 37.8012 1.46221 37.9373C1.97158 38.1047 2.37977 38.342 2.37977 38.9385C2.37977 39.5945 1.88087 39.9922 1.1552 39.9922C0.82027 39.9922 0.4051 39.9085 0.0876173 39.7445V38.9945V38.9979Z" fill="#DB3B4D"/>
<path d="M5.49585 39.7714C5.20628 39.9249 4.84344 39.9947 4.50852 39.9947C3.4235 39.9947 2.6734 39.2445 2.6734 38.2606C2.6734 37.2767 3.4235 36.5163 4.50852 36.5163C4.85042 36.5163 5.17838 36.5965 5.44352 36.7255V37.4757C5.19581 37.3081 4.8574 37.1826 4.51201 37.1826C3.85961 37.1826 3.41303 37.6396 3.41303 38.2502C3.41303 38.8608 3.84565 39.3281 4.53991 39.3281C4.88881 39.3281 5.21675 39.2061 5.49585 39.0143V39.7677V39.7714Z" fill="#DB3B4D"/>
<path d="M5.99051 36.569H6.73014V37.8737H8.18847V36.569H8.9281V39.9426H8.18847V38.5226H6.73014V39.9426H5.99051V36.569Z" fill="#DB3B4D"/>
<path d="M12.4552 38.3098C12.4552 38.8192 12.3854 39.1855 12.1935 39.4575C11.9563 39.7961 11.5237 39.9984 10.9829 39.9984C10.4421 39.9984 10.0025 39.7996 9.7653 39.4471C9.58387 39.1786 9.5141 38.8088 9.5141 38.3271V36.569H10.2537V38.2994C10.2537 38.6588 10.2851 38.8786 10.3828 39.0355C10.484 39.1994 10.6794 39.3286 10.9969 39.3286C11.2899 39.3286 11.4818 39.2204 11.5934 39.0494C11.6946 38.8924 11.7365 38.6588 11.7365 38.3028V36.569H12.4482V38.3063L12.4552 38.3098Z" fill="#DB3B4D"/>
<path d="M13.0372 36.569H13.7768V39.2937H15.2526V39.9426H13.0337V36.569H13.0372Z" fill="#DB3B4D"/>
<path d="M15.6225 36.569H17.7053V37.2177H16.3621V37.8806H17.5169V38.4947H16.3621V39.2971H17.7542V39.9461H15.619V36.5724L15.6225 36.569Z" fill="#DB3B4D"/>
<path d="M19.3451 36.569H21.4837V37.2177H20.0847V37.9435H21.2884V38.5575H20.0847V39.9426H19.3451V36.569Z" fill="#DB3B4D"/>
<path d="M24.889 38.3106C24.889 38.82 24.8192 39.1863 24.6274 39.4584C24.3902 39.7969 23.9576 39.9992 23.4167 39.9992C22.8759 39.9992 22.4363 39.8004 22.1992 39.4479C22.0178 39.1794 21.948 38.8096 21.948 38.3281V36.5698H22.6876V38.3002C22.6876 38.6596 22.719 38.8794 22.8167 39.0363C22.9178 39.2002 23.1133 39.3294 23.4306 39.3294C23.7237 39.3294 23.9157 39.2212 24.0274 39.0502C24.1284 38.8933 24.1704 38.6596 24.1704 38.3037V36.5698H24.882V38.3071L24.889 38.3106ZM22.548 35.8441C22.548 35.6486 22.7121 35.4847 22.9074 35.4847C23.1027 35.4847 23.2667 35.6486 23.2667 35.8441C23.2667 36.0394 23.1027 36.2035 22.9074 36.2035C22.7121 36.2035 22.548 36.0394 22.548 35.8441ZM23.5912 35.8441C23.5912 35.6486 23.7551 35.4847 23.9506 35.4847C24.1459 35.4847 24.3098 35.6486 24.3098 35.8441C24.3098 36.0394 24.1459 36.2035 23.9506 36.2035C23.7551 36.2035 23.5912 36.0394 23.5912 35.8441Z" fill="#DB3B4D"/>
<path d="M25.4727 36.569H26.5298C26.931 36.569 27.3078 36.6247 27.58 36.7922C27.8278 36.9457 27.9847 37.1969 27.9847 37.5841C27.9847 38.0167 27.7474 38.3726 27.3008 38.5157L28.2498 39.9426H27.3986L26.5474 38.6098H26.2159V39.9426H25.4761V36.569H25.4727ZM26.5857 38.0551C26.7845 38.0551 26.9414 38.0306 27.0533 37.9749C27.1788 37.9086 27.2451 37.7969 27.2451 37.633C27.2451 37.469 27.1892 37.3712 27.0533 37.3014C26.938 37.2422 26.7565 37.2143 26.4984 37.2143H26.2159V38.0516H26.5892L26.5857 38.0551Z" fill="#DB3B4D"/>
<path d="M29.6237 36.569H30.3633V38.0586H30.3739L31.5531 36.569H32.4323L31.1553 38.1353L32.5404 39.9426H31.6263L30.3739 38.2539H30.3633V39.9426H29.6237V36.569Z" fill="#DB3B4D"/>
<path d="M35.6743 38.3098C35.6743 38.8192 35.6045 39.1855 35.4127 39.4575C35.1753 39.7961 34.7427 39.9984 34.2021 39.9984C33.6612 39.9984 33.2216 39.7996 32.9843 39.4471C32.8029 39.1786 32.7333 38.8088 32.7333 38.3271V36.569H33.4729V38.2994C33.4729 38.6588 33.5043 38.8786 33.6018 39.0355C33.7031 39.1994 33.8984 39.3286 34.2159 39.3286C34.509 39.3286 34.7008 39.2204 34.8125 39.0494C34.9137 38.8924 34.9555 38.6588 34.9555 38.3028V36.569H35.6674V38.3063L35.6743 38.3098Z" fill="#DB3B4D"/>
<path d="M37.6027 38.5818C37.3829 38.2888 37.1769 38.0028 36.9678 37.7098H36.9571C36.9608 38.0341 36.9678 38.362 36.9678 38.69V39.9426H36.2559V36.569H36.9537L37.9655 37.9296C38.1853 38.2226 38.3912 38.5086 38.6004 38.8016H38.611C38.6073 38.4773 38.6004 38.1494 38.6004 37.8214V36.569H39.3122V39.9426H38.6145L37.6027 38.5818Z" fill="#DB3B4D"/>
<path d="M39.8888 38.9979C40.2482 39.2385 40.6982 39.3467 40.9667 39.3467C41.2353 39.3467 41.4377 39.2385 41.4377 38.9873C41.4377 38.6734 41.1202 38.6455 40.6877 38.5059C40.2202 38.3524 39.8014 38.1222 39.8014 37.5361C39.8014 36.9081 40.2759 36.5139 40.9843 36.5139C41.3157 36.5139 41.7204 36.5975 42.0135 36.7547V37.4873C41.6541 37.2639 41.239 37.1628 40.9771 37.1628C40.7155 37.1628 40.5447 37.2569 40.5447 37.4802C40.5447 37.7767 40.8551 37.8012 41.2633 37.9373C41.7726 38.1047 42.1808 38.342 42.1808 38.9385C42.1808 39.5945 41.682 39.9922 40.9563 39.9922C40.6214 39.9922 40.2061 39.9085 39.8888 39.7445V38.9945V38.9979Z" fill="#DB3B4D"/>
<path d="M43.468 37.2177H42.3761V36.569H45.2996V37.2177H44.2078V39.9426H43.468V37.2177Z" fill="#DB3B4D"/>
<path d="M49.7012 37.9222L49.171 39.1712L49.9247 39.9353V39.9457H49.049L48.7978 39.6945C48.5988 39.8759 48.2953 39.9981 47.8696 39.9981C47.0184 39.9981 46.6347 39.4887 46.6347 39.0073C46.6347 38.6096 46.8963 38.3165 47.2592 38.1351L47.2174 38.0932C47.0325 37.9012 46.8825 37.6641 46.8825 37.3745C46.8825 36.893 47.2941 36.5163 47.8802 36.5163C48.4663 36.5163 48.8745 36.9069 48.8745 37.3745C48.8745 37.72 48.6512 37.9851 48.3931 38.1524L48.257 38.2398L48.6827 38.6794L48.9861 37.9257H49.7049L49.7012 37.9222ZM47.6151 38.5851C47.4196 38.6794 47.3498 38.8467 47.3498 38.9759C47.3498 39.1677 47.4998 39.3945 47.8906 39.3945C48.1035 39.3945 48.2465 39.3247 48.3337 39.2165L47.6778 38.5536L47.6186 38.5816L47.6151 38.5851ZM47.9708 37.7269C48.1 37.6292 48.1767 37.5349 48.1767 37.4059C48.1767 37.2383 48.051 37.1232 47.8802 37.1232C47.6953 37.1232 47.5872 37.249 47.5872 37.4024C47.5872 37.5106 47.6394 37.6012 47.7545 37.7234L47.8488 37.821L47.9743 37.7269H47.9708Z" fill="#DB3B4D"/>
<path d="M50.79 36.569H51.568L51.9972 38.0167C52.0808 38.3028 52.1647 38.6028 52.238 38.889H52.2484C52.3286 38.5994 52.4157 38.2959 52.5031 38.0133L52.9496 36.569H53.4904L53.9335 38.0133C54.0206 38.3028 54.1114 38.5994 54.1882 38.889H54.1986C54.2718 38.6063 54.3627 38.2924 54.4498 38.0028L54.8825 36.569H55.629L54.5894 39.9426H53.8078L53.4451 38.7528C53.3578 38.4667 53.281 38.2155 53.2078 37.9469H53.1974C53.1241 38.2155 53.0439 38.4843 52.9565 38.7667L52.5937 39.9426H51.8192L50.79 36.569Z" fill="#DB3B4D"/>
<path d="M55.9714 36.569H56.711V39.9426H55.9714V36.569Z" fill="#DB3B4D"/>
<path d="M57.2871 38.9979C57.6463 39.2385 58.0965 39.3467 58.3651 39.3467C58.6337 39.3467 58.8361 39.2385 58.8361 38.9873C58.8361 38.6734 58.5186 38.6455 58.0859 38.5059C57.6186 38.3524 57.1998 38.1222 57.1998 37.5361C57.1998 36.9081 57.6743 36.5139 58.3827 36.5139C58.7141 36.5139 59.1188 36.5975 59.4118 36.7547V37.4873C59.0525 37.2639 58.6374 37.1628 58.3755 37.1628C58.1139 37.1628 57.9431 37.2569 57.9431 37.4802C57.9431 37.7767 58.2535 37.8012 58.6616 37.9373C59.171 38.1047 59.5792 38.342 59.5792 38.9385C59.5792 39.5945 59.0804 39.9922 58.3547 39.9922C58.0198 39.9922 57.6045 39.9085 57.2871 39.7445V38.9945V38.9979Z" fill="#DB3B4D"/>
<path d="M59.9737 38.9979C60.3331 39.2385 60.7831 39.3467 61.0516 39.3467C61.3204 39.3467 61.5226 39.2385 61.5226 38.9873C61.5226 38.6734 61.2051 38.6455 60.7727 38.5059C60.3051 38.3524 59.8863 38.1222 59.8863 37.5361C59.8863 36.9081 60.3608 36.5139 61.0692 36.5139C61.4006 36.5139 61.8053 36.5975 62.0984 36.7547V37.4873C61.739 37.2639 61.3239 37.1628 61.062 37.1628C60.8004 37.1628 60.6296 37.2569 60.6296 37.4802C60.6296 37.7767 60.94 37.8012 61.3482 37.9373C61.8575 38.1047 62.2657 38.342 62.2657 38.9385C62.2657 39.5945 61.7669 39.9922 61.0412 39.9922C60.7063 39.9922 60.291 39.9085 59.9737 39.7445V38.9945V38.9979Z" fill="#DB3B4D"/>
<path d="M62.6976 36.569H64.7804V37.2177H63.4372V37.8806H64.5921V38.4947H63.4372V39.2971H64.8292V39.9461H62.6941V36.5724L62.6976 36.569Z" fill="#DB3B4D"/>
<path d="M66.6625 38.5818C66.4427 38.2888 66.2368 38.0028 66.0274 37.7098H66.017C66.0204 38.0341 66.0274 38.362 66.0274 38.69V39.9426H65.3157V36.569H66.0135L67.0253 37.9296C67.2451 38.2226 67.4508 38.5086 67.6602 38.8016H67.6706C67.6672 38.4773 67.6602 38.1494 67.6602 37.8214V36.569H68.3719V39.9426H67.6741L66.6625 38.5818Z" fill="#DB3B4D"/>
<path d="M68.9429 38.9979C69.3022 39.2385 69.7522 39.3467 70.0208 39.3467C70.2896 39.3467 70.4918 39.2385 70.4918 38.9873C70.4918 38.6734 70.1745 38.6455 69.7418 38.5059C69.2743 38.3524 68.8557 38.1222 68.8557 37.5361C68.8557 36.9081 69.3302 36.5139 70.0384 36.5139C70.3698 36.5139 70.7745 36.5975 71.0675 36.7547V37.4873C70.7082 37.2639 70.2931 37.1628 70.0314 37.1628C69.7698 37.1628 69.5988 37.2569 69.5988 37.4802C69.5988 37.7767 69.9092 37.8012 70.3173 37.9373C70.8267 38.1047 71.2351 38.342 71.2351 38.9385C71.2351 39.5945 70.7361 39.9922 70.0104 39.9922C69.6755 39.9922 69.2604 39.9085 68.9429 39.7445V38.9945V38.9979Z" fill="#DB3B4D"/>
<path d="M74.3498 39.7714C74.0602 39.9249 73.6975 39.9947 73.3624 39.9947C72.2775 39.9947 71.5273 39.2445 71.5273 38.2606C71.5273 37.2767 72.2775 36.5163 73.3624 36.5163C73.7045 36.5163 74.0324 36.5965 74.2975 36.7255V37.4757C74.0498 37.3081 73.7114 37.1826 73.3661 37.1826C72.7137 37.1826 72.2671 37.6396 72.2671 38.2502C72.2671 38.8608 72.6996 39.3281 73.3939 39.3281C73.7429 39.3281 74.0708 39.2061 74.3498 39.0143V39.7677V39.7714Z" fill="#DB3B4D"/>
<path d="M74.8453 36.569H75.5849V37.8737H77.0433V36.569H77.7829V39.9426H77.0433V38.5226H75.5849V39.9426H74.8453V36.569Z" fill="#DB3B4D"/>
<path d="M79.4798 36.569H80.1986L81.5696 39.9426H80.7778L80.509 39.2343H79.1484L78.8729 39.9426H78.1122L79.4833 36.569H79.4798ZM79.3716 38.6516H80.2788L80.1392 38.2749C80.0416 38.0098 79.9194 37.6749 79.8322 37.4167H79.8218C79.7345 37.6714 79.6125 38.0098 79.5043 38.2924L79.3682 38.6516H79.3716Z" fill="#DB3B4D"/>
<path d="M81.8894 36.569H84.028V37.2177H82.629V37.9435H83.8327V38.5575H82.629V39.9426H81.8894V36.569Z" fill="#DB3B4D"/>
<path d="M85.3782 37.2177H84.2861V36.569H87.2098V37.2177H86.1178V39.9426H85.3782V37.2177Z" fill="#DB3B4D"/>
</g>
<defs>
<clipPath id="clip0_10_6">
<rect width="87.3469" height="40" fill="white"/>
</clipPath>
</defs>
</svg>
