<svg width="203" height="203" viewBox="0 0 203 203" fill="none" xmlns="http://www.w3.org/2000/svg">
<path d="M195.177 33.8929L43.388 1.66169C39.0661 0.743963 34.8183 3.50356 33.9003 7.82542L1.66473 159.589C0.746738 163.911 3.50617 168.159 7.82808 169.077L159.617 201.308C163.939 202.225 168.187 199.466 169.105 195.144L201.34 43.38C202.258 39.0581 199.499 34.8106 195.177 33.8929Z" fill="#FDBE16"/>
<path d="M103.223 172.362C102.569 171.946 101.803 172.075 101.071 172.055C100.773 172.045 100.467 172.097 100.173 172.063C99.73 172.008 99.549 171.696 99.9326 171.427C100.533 171.018 101.173 170.672 101.844 170.394C102.227 170.282 102.621 170.217 103.019 170.199C102.883 169.621 102.495 169.577 102.096 169.584C101.526 169.597 100.95 169.636 100.364 169.646C100.196 169.646 99.9017 169.572 99.8866 169.492C99.8565 169.319 99.9079 169.008 100.024 168.952C100.663 168.612 101.326 168.318 102.007 168.072C102.429 167.972 102.86 167.919 103.294 167.912L103.381 167.666C103.125 167.529 102.871 167.279 102.607 167.279C102.043 167.262 101.454 167.37 100.88 167.401C100.683 167.39 100.488 167.356 100.298 167.301C100.32 167.084 100.382 166.873 100.481 166.679C100.703 166.396 100.986 166.167 101.309 166.008C101.632 165.85 101.986 165.766 102.346 165.764C102.741 165.75 103.135 165.693 103.529 165.654C103.547 165.564 103.566 165.471 103.584 165.381C103.283 165.23 102.963 165.119 102.632 165.049C102.155 165.013 101.668 165.104 101.183 165.114C101.012 165.117 100.712 165.07 100.695 164.99C100.675 164.896 100.675 164.8 100.694 164.706C100.713 164.612 100.75 164.523 100.805 164.444C101.111 164.077 101.498 163.786 101.935 163.593C102.373 163.4 102.848 163.311 103.326 163.332C104.94 163.352 106.553 163.553 108.172 163.577C109.159 163.602 110.146 163.509 111.111 163.302C111.956 163.109 112.143 162.619 111.768 161.824C110.802 159.775 109.791 157.733 108.782 155.715C106.672 151.468 104.559 147.223 102.442 142.98C102.339 142.772 102.243 142.562 102.132 142.35C101.688 141.559 101.158 141.318 100.281 141.569C94.6863 143.173 89.799 145.925 85.9876 150.417C84.1381 152.638 82.5718 155.081 81.3245 157.689C80.5425 159.283 79.7076 160.858 78.7774 162.371C77.9292 163.759 76.5492 164.127 74.9756 163.965C72.1556 163.679 69.8611 162.324 67.6016 160.697C64.9678 158.801 62.1376 157.176 59.4092 155.412C58.1692 154.61 56.9916 153.71 55.7358 152.931C54.8379 152.375 53.8557 151.955 52.914 151.446C52.7227 151.309 52.5493 151.148 52.3979 150.967C52.5898 150.79 52.7726 150.517 52.9827 150.46C53.4286 150.363 53.8857 150.326 54.3415 150.352C54.7057 150.396 55.0659 150.468 55.4185 150.57L55.5514 150.403C55.3991 150.216 55.2862 149.961 55.0943 149.857C54.4072 149.479 53.6877 149.163 52.9913 148.804C52.8419 148.728 52.6126 148.543 52.6347 148.448C52.6614 148.353 52.7069 148.264 52.7683 148.187C52.8297 148.109 52.9059 148.045 52.9925 147.998C53.8193 147.614 54.6538 147.726 55.4884 148.019C55.7129 148.066 55.9427 148.082 56.1714 148.067C56.0263 147.83 55.9408 147.495 55.743 147.378C55.2352 147.082 54.6431 146.894 54.0986 146.639C53.9307 146.539 53.7759 146.418 53.6378 146.279C53.7887 146.122 53.935 145.834 54.0949 145.829C54.7963 145.802 55.4987 145.822 56.1974 145.888C56.4767 145.91 56.7561 146.115 57.0446 146.176C57.1864 146.204 57.3449 146.094 57.5157 146.05C57.4446 145.896 57.4102 145.659 57.2936 145.604C56.7137 145.328 56.1075 145.112 55.5221 144.849C55.3141 144.733 55.1171 144.598 54.9337 144.446C55.0943 144.242 55.2853 144.064 55.5001 143.918C56.3013 143.535 57.0776 143.808 57.8534 144.07C58.0765 144.121 58.3043 144.147 58.533 144.148C58.3961 143.913 58.3171 143.573 58.1046 143.459C57.5041 143.131 56.8516 142.891 56.0013 142.52C56.3919 142.258 56.6562 141.934 56.9306 141.924C57.7027 141.896 58.5244 141.846 59.2424 142.071C63.0616 143.269 66.2066 145.626 69.2597 148.114C69.3798 148.223 69.5076 148.323 69.6421 148.413C70.5291 148.939 71.1594 148.643 71.3334 147.642C71.692 145.587 72.0407 143.525 72.426 141.479C72.6986 140.046 73.07 138.63 73.3181 137.192C73.6726 135.298 74.4286 133.502 75.5353 131.924C77.0187 129.725 78.4296 127.435 80.1814 125.48C83.4732 121.832 87.5954 119.397 92.329 118.051C93.3799 117.789 94.4449 117.588 95.5187 117.449C97.3422 117.147 97.8283 116.357 97.2621 114.581C96.7798 113.064 96.1693 111.563 95.8672 110.011C95.5546 108.405 95.3827 106.775 95.3535 105.139C95.3211 103.713 95.0268 103.344 93.6007 103.308C89.532 103.204 85.441 103.323 81.4205 102.629C78.6107 102.184 75.8383 101.529 73.1266 100.669C71.4136 100.101 69.8344 98.9978 68.3413 97.9321C64.6185 95.2883 62.2559 91.6586 61.0029 87.299C60.5622 85.773 60.342 84.1808 59.8673 82.6679C59.5325 81.6006 58.9465 80.6103 58.4599 79.5919C58.2628 79.163 58.0095 78.7455 57.7443 78.246C59.1944 77.7554 59.8373 78.9134 60.8713 79.625C60.8355 79.2543 60.8743 79.0065 60.7824 78.829C60.4407 78.1749 60.0433 77.5436 59.6928 76.9048C59.6126 76.6989 59.5607 76.4831 59.5387 76.2632C59.7539 76.2053 59.9762 76.1785 60.199 76.1837C61.0203 76.3327 61.5718 76.89 62.0543 77.5356C62.2261 77.7617 62.4452 77.9475 62.6963 78.08C62.9834 76.8005 61.6689 76.1429 61.5382 75.0061C63.3469 74.7215 63.7865 76.5198 65.0346 77.3657C65.0289 75.9901 64.0766 75.3517 63.6317 74.478C64.2011 74.0479 64.787 74.084 65.491 74.7289C65.9316 75.2049 66.3354 75.7137 66.6989 76.251L66.9276 76.1865C66.9304 75.8821 66.8863 75.5792 66.797 75.2883C66.5406 74.8245 66.2603 74.3745 65.957 73.94C65.6803 73.4978 65.8316 73.1564 66.3186 73.2605C66.9191 73.3792 67.4824 73.6401 67.9613 74.0214C68.4223 74.4737 68.8033 75.0011 69.0878 75.581C70.9139 78.7899 72.0793 82.2912 73.3828 85.7266C73.589 86.2653 73.7787 86.8148 74.0193 87.3377C74.6231 88.6609 75.348 88.9921 77.1795 88.7347C82.8851 87.9707 88.4554 86.4087 93.7272 84.0946C95.4829 83.3136 95.5851 82.7379 94.1597 81.4218C90.4588 78.01 86.7366 74.6194 83.0374 71.1994C78.5188 67.0174 75.3435 62.0023 73.7946 56.0041C73.167 53.577 72.964 51.0995 72.8369 48.5976C72.7323 46.5034 72.4281 44.4144 71.4208 42.504C71.2523 42.186 71.2904 41.745 71.2563 41.3661C71.6417 41.4487 72.0147 41.5814 72.3657 41.7608C72.7987 42.1092 73.2014 42.4936 73.5695 42.91C73.6965 41.6777 72.7718 40.9171 72.6404 39.8825C73.3577 39.6753 73.8333 40.0185 74.2529 40.4697C74.4859 40.7213 74.6522 41.036 74.8709 41.3017C74.9893 41.4187 75.1209 41.5216 75.263 41.6082C75.3005 41.4226 75.427 41.2182 75.3733 41.0625C75.2417 40.6941 75.0879 40.334 74.913 39.9841C74.7773 39.6727 74.6444 39.3618 74.4728 38.9608C76.1114 38.8576 76.3804 40.3489 77.1703 41.1588L77.4226 41.0196C77.3561 40.6716 77.2651 40.3286 77.1504 39.9934C77.0202 39.6831 76.7933 39.4015 76.6407 39.0895C76.5896 38.9277 76.5615 38.7595 76.5572 38.5899C76.7498 38.5635 76.9683 38.4657 77.1384 38.5228C77.4473 38.6236 77.7315 38.7884 77.9725 39.0064C78.2135 39.2244 78.4059 39.4908 78.5372 39.7881C78.654 40.0247 78.8025 40.245 79.0248 40.6193C79.4927 39.4701 78.5632 38.8733 78.385 38.028C78.964 37.7191 79.4417 38.0513 79.7973 38.3845C80.2406 38.7903 80.6036 39.276 80.8673 39.8162C81.8105 41.8754 82.7318 43.9586 82.8697 46.2668C82.9413 47.4427 82.8869 48.6244 82.9531 49.7992C83.1426 53.2281 84.6489 55.9975 87.2586 58.1807C89.2365 59.8385 91.5013 61.0602 93.7656 62.2421C96.4931 63.6454 99.2289 65.0504 101.956 66.4537C102.655 66.8164 103.308 67.2779 104.035 67.5582C104.511 67.7626 105.043 67.8 105.543 67.6643C108.145 66.6418 110.728 65.566 113.291 64.4371C114.341 63.9602 115.354 63.4057 116.322 62.7782C117.195 62.2247 117.141 61.7454 116.203 61.3341C114.38 60.5254 112.551 59.744 110.721 58.968C110.165 58.7305 109.653 58.4397 109.6 57.7758C109.542 57.0513 109.948 56.5739 110.563 56.2241C111.678 55.5975 112.872 55.8389 114.027 55.9362C115.617 56.073 117.194 56.3463 118.778 56.5558C119.013 56.5863 119.249 56.5856 119.484 56.5992L119.519 56.4273C119.012 56.2254 118.511 56.0105 117.996 55.8353C115.581 54.9638 113.15 54.1402 110.75 53.2348C108.996 52.5649 107.314 51.728 106.04 50.2948C105.564 49.7686 105.224 49.1326 105.053 48.4435C104.881 47.7543 104.882 47.0333 105.057 46.3447C105.125 46.1375 105.21 45.9363 105.312 45.7431C105.466 45.9181 105.609 46.1017 105.742 46.2931C107.189 48.6131 109.363 49.9782 111.889 50.7616C114.416 51.5449 116.937 52.1285 119.467 52.7989C119.581 52.8082 119.696 52.8077 119.81 52.7973C119.722 52.5442 119.61 52.3 119.475 52.068C118.289 50.4084 116.599 49.5868 114.634 49.2576C114.019 49.1533 113.4 49.0734 112.78 48.9794C112.407 48.939 112.05 48.8016 111.746 48.5807C111.443 48.3599 111.202 48.0633 111.048 47.7205C109.814 44.9495 108.888 42.107 109.268 39.0034C109.415 37.8006 109.696 37.5905 110.907 37.7757C113.68 38.1515 116.487 38.2189 119.276 37.9766C122.408 37.7579 125.552 37.4791 128.684 37.53C132.361 37.5918 135.969 38.29 139.071 40.5073C139.795 41.0257 140.531 40.9786 141.315 40.8502C145.425 40.1732 147.268 43.7773 147.076 46.4107C147.026 46.8862 146.884 47.3472 146.656 47.7675C146.428 48.1878 146.12 48.5591 145.749 48.8602C144.943 49.5747 144.7 50.4116 144.636 51.4748C144.524 54.0403 144.252 56.5963 143.821 59.1279C143.141 62.9898 141.231 66.5285 138.376 69.2157C137.962 69.6187 137.588 70.0603 137.258 70.5345C136.499 71.5794 136.644 72.7135 136.998 73.8583C137.513 75.4266 137.695 77.0853 137.532 78.7282C137.37 80.3712 136.866 81.9621 136.054 83.3992C134.676 85.9037 133.147 88.3292 131.629 90.7401C129.82 93.623 128.13 96.5641 127.938 100.055C127.827 102.225 127.886 104.4 128.116 106.56C128.508 110.348 129.17 114.111 129.544 117.901C129.763 120.146 129.705 122.426 129.657 124.685C129.601 125.964 130.027 127.217 130.852 128.195C131.448 128.923 132.099 129.665 132.454 130.507C133.264 132.451 132.626 134.682 130.777 136.146C129.784 136.933 129.408 137.825 129.258 139.016C129.085 140.228 128.812 141.424 128.444 142.591C127.428 145.849 127.024 149.266 127.252 152.67C127.449 155.249 127.626 157.84 127.647 160.417C127.678 162.763 126.755 164.832 125.384 166.713C123.263 169.654 120.293 171.417 117.037 172.806C114.14 174.038 111.084 174.854 107.959 175.23C107.117 175.361 106.256 175.302 105.44 175.056C104.117 174.582 102.776 174.532 101.41 174.509C101.156 174.468 100.91 174.391 100.678 174.281C100.792 174.043 100.84 173.718 101.029 173.583C101.446 173.301 101.889 173.062 102.354 172.871C102.631 172.765 102.915 172.682 103.205 172.62L103.223 172.362ZM124.586 41.3163C122.784 40.935 120.483 42.3923 120.072 44.1748C119.93 44.7936 120.297 45.1944 120.918 45.0302C121.217 44.9323 121.494 44.7771 121.734 44.5733C122.1 44.2924 122.404 43.9278 122.768 43.6719C123.677 43.0634 124.621 43.1947 125.277 44.0601C125.633 44.5942 125.938 45.1598 126.19 45.7497C126.479 46.3305 127.042 46.6176 127.604 46.4217C128.215 46.2072 128.275 45.6855 128.201 45.1679C127.995 43.6183 126.108 41.6381 124.586 41.3163ZM137.771 48.1163C139.538 48.4025 142.032 47.1689 142.852 45.5596C143.035 45.2019 142.903 45.039 142.537 45.0077C141.963 44.9569 141.39 44.8723 140.815 44.8782C139.509 44.898 138.273 45.1849 137.367 46.169C137.051 46.5509 136.869 47.0255 136.847 47.5206C136.836 47.7144 137.444 47.9224 137.771 48.1163Z" fill="#202020"/>
</svg>
