<svg width="137" height="50" viewBox="0 0 137 50" fill="none" xmlns="http://www.w3.org/2000/svg">
<path d="M94.8829 12.2235L96.9884 4.48854C98.3257 -0.418278 104.797 -1.62173 107.836 2.48096C110.505 6.08038 108.461 11.2115 104.029 12.032L96.0766 13.5035C95.325 13.6403 94.6895 12.9565 94.8885 12.2289" fill="#DB3B4D"/>
<path d="M33.5133 45.5837C33.5133 45.4142 33.5133 45.2446 33.5133 45.0805C33.5133 32.5208 33.4856 18.9765 33.4414 6.4168C33.4359 4.44751 34.1267 3.14012 36.2598 3.07995C41.4101 2.93772 42.8414 8.23839 42.8359 12.3684C42.8359 23.0846 42.8248 34.2002 42.8193 44.9164C42.8193 46.4262 42.7309 48.1384 41.5759 49.1285C40.7194 49.856 39.5091 49.9764 38.3818 49.9928C36.9561 50.0092 35.3645 49.8451 34.4196 48.7838C33.668 47.936 33.5354 46.7434 33.5133 45.5947" fill="#DB3B4D"/>
<path d="M96.6851 20.9251C96.7901 19.2731 97.2156 17.7195 98.5695 17.0302C99.2492 16.6856 100.017 16.5707 100.78 16.4996C102.322 16.3629 104.073 16.4887 105.112 17.6265C106.057 18.6659 106.113 20.203 106.113 21.5979C106.113 29.0703 106.113 37.4944 106.113 44.9668C106.113 46.3398 106.057 47.8551 105.112 48.8562C104.201 49.8189 102.742 50.0049 101.41 49.9994C100.039 49.9885 98.5253 49.7587 97.6521 48.7194C96.8564 47.773 96.8177 46.4274 96.8122 45.1966C96.8011 38.8073 96.7901 31.4662 96.7735 25.077C96.7735 23.972 96.6022 22.4075 96.6961 20.9251" fill="#DB3B4D"/>
<path d="M134.876 34.2925C134.439 33.7783 133.947 33.3188 133.406 32.914C129.753 30.2281 124.652 30.6329 120.519 28.7457C119.612 28.3299 118.684 27.7173 118.43 26.76C118.198 25.8793 118.629 24.9165 119.325 24.3148C120.021 23.7185 120.933 23.4231 121.834 23.2536C123.066 23.0183 124.332 23.0074 125.57 23.1824C126.598 23.3301 127.62 23.7131 128.57 24.1179C128.918 24.2656 129.3 24.3804 129.665 24.2929C130.239 24.1616 130.493 23.5763 130.803 23.1441C131.206 22.5862 131.571 21.9899 131.858 21.3663C132.306 20.3871 132.732 18.8609 131.516 18.2373C128.101 16.4869 124.05 15.9836 120.303 16.8424C114.274 18.2209 106.416 24.55 110.87 31.2456C112.368 33.4884 114.954 34.7848 117.551 35.5726C120.149 36.3603 122.867 36.7377 125.409 37.6786C126.653 38.1381 128.023 38.9751 128.084 40.2934C128.15 41.7321 126.614 42.7003 125.216 43.1051C121.779 44.0897 117.916 43.4989 114.937 41.5351C113.688 40.7091 112.329 39.6041 110.876 39.987C109.157 40.4411 108.671 42.7659 109.328 44.407C110.445 47.2023 113.561 48.6574 116.512 49.3357C120.165 50.1726 124.006 50.2164 127.681 49.4725C129.985 49.002 132.295 48.187 134.041 46.6279C136.003 44.8775 137.119 42.2353 136.992 39.626C136.898 37.6841 136.125 35.7859 134.865 34.3035" fill="#DB3B4D"/>
<path d="M16.8492 16.4092C21.8061 16.4092 25.2434 17.8479 27.4207 19.6147C29.6035 21.3816 30.5927 23.5424 30.5927 25.1123C30.5927 27.5302 28.222 29.0728 25.9839 29.2588C25.8291 29.2697 25.6689 29.2752 25.5363 29.1986C25.4257 29.133 25.3539 29.0126 25.2876 28.8978C23.4474 25.6703 21.154 23.8706 17.2415 23.8706C12.2183 23.8706 8.5213 27.7326 8.5213 33.0989C8.5213 38.4652 12.1575 42.5241 17.2415 42.5241C19.1038 42.5241 20.9827 42.1084 22.5135 41.0143C23.1711 40.5439 23.7347 39.9695 24.21 39.324C24.6079 38.777 24.9726 37.4696 25.5584 37.2016C25.7352 37.1195 25.9397 37.1195 26.1386 37.1305C28.4264 37.2727 30.5927 38.9849 30.5927 41.348C30.5927 42.8523 29.6035 45.0131 27.3544 46.7143C25.1715 48.5469 21.6735 49.9855 16.8492 49.9855C6.93529 49.991 0 43.0493 0 33.0989C0 23.1485 7.06792 16.4092 16.8492 16.4092Z" fill="#DB3B4D"/>
<path d="M92.6457 15.6771L86.263 17.8378C81.2951 19.5227 75.9071 19.5227 70.9446 17.8378C70.9446 17.8378 64.7554 15.8193 63.3352 15.3926C63.2191 15.3598 63.1196 15.4692 63.1694 15.5786C64.5399 18.5709 77.0842 45.8236 78.4767 48.8541C78.5265 48.9636 78.6812 48.9581 78.7309 48.8541L93.5686 16.6891C93.8394 16.0983 93.2702 15.4692 92.6457 15.6826V15.6771Z" fill="#DB3B4D"/>
<path d="M58.4632 16.4061C58.4135 16.3021 58.2588 16.3021 58.2145 16.4061L46.0405 42.7891C44.6037 45.8962 47.7094 49.1619 50.9256 47.9311C55.7665 46.0767 61.1047 45.9126 66.0506 47.4661L73.7927 49.8949C73.9088 49.9332 74.0138 49.8183 73.9585 49.7089C72.5327 46.6347 59.8724 19.3764 58.4577 16.4061H58.4632ZM57.7393 41.7114C55.7333 41.6075 54.092 39.9774 53.9871 37.9917C53.8655 35.7215 55.6891 33.8397 57.9548 33.8397C60.2205 33.8397 61.9281 35.6012 61.9281 37.7783C61.9281 39.9555 60.0271 41.8318 57.7338 41.7114H57.7393Z" fill="#DB3B4D"/>
</svg>
