<svg width="162" height="120" viewBox="0 0 162 120" fill="none" xmlns="http://www.w3.org/2000/svg">
<path d="M130.629 61.0256C139.543 61.7094 146.743 64.6154 152.229 69.7436C157.714 74.8718 160.457 81.7094 160.457 90.2564C160.457 99.8291 157.543 107.179 151.714 112.308C145.886 117.436 138.686 120 130.114 120C118.457 119.316 110.057 115.043 104.914 107.179C99.7714 99.3162 97.2 90.4274 97.2 80.5128C97.2 70.9402 98.5714 62.0513 101.314 53.8462C104.4 45.641 108.343 37.9487 113.143 30.7692C117.943 23.5898 123.429 17.265 129.6 11.7949C136.114 6.32479 142.8 2.39317 149.657 0L162 16.9231C155.143 21.7094 148.629 28.2051 142.457 36.4103C136.629 44.6154 132.686 52.8205 130.629 61.0256ZM33.4286 61.0256C42.3429 61.7094 49.5429 64.6154 55.0286 69.7436C60.5143 74.8718 63.2571 81.7094 63.2571 90.2564C63.2571 99.8291 60.1714 107.179 54 112.308C48.1714 117.436 41.3143 120 33.4286 120C21.4286 119.658 12.8571 115.556 7.71428 107.692C2.57143 99.4872 0 90.4274 0 80.5128C0 70.9402 1.37143 62.0513 4.11429 53.8462C7.2 45.641 11.1429 37.9487 15.9429 30.7692C20.7429 23.5898 26.2286 17.265 32.4 11.7949C38.9143 6.32479 45.6 2.39317 52.4571 0L64.8 16.9231C57.9429 21.7094 51.4286 28.2051 45.2571 36.4103C39.4286 44.6154 35.4857 52.8205 33.4286 61.0256Z" fill="#DB3B4D"/>
</svg>
