<svg width="63" height="64" viewBox="0 0 63 64" fill="none" xmlns="http://www.w3.org/2000/svg">
<path fill-rule="evenodd" clip-rule="evenodd" d="M1.19907 23.4191C5.95229 6.70679 23.3632 -3.03655 40.0584 1.69507C56.7962 6.44001 66.5213 23.8562 61.8009 40.5712C57.075 57.3054 39.5652 67.0286 22.9198 62.3084C6.19302 57.5653 -3.54018 40.0772 1.19907 23.4191ZM60.9134 35.1466C61.4324 29.9236 60.6707 24.8816 58.532 20.0732C55.7978 13.9386 51.4846 9.25748 45.5927 6.02975C45.6065 6.14187 45.6416 6.25032 45.6961 6.34926C45.8517 6.68258 46.0152 7.01299 46.1788 7.34339L46.1788 7.34347L46.1789 7.34354L46.1789 7.34362L46.1789 7.34369L46.179 7.34376L46.179 7.34384L46.179 7.34391L46.1791 7.34399L46.1791 7.34406L46.1792 7.34416C46.5382 8.06952 46.8973 8.79489 47.1715 9.55115C48.3127 12.6937 48.7543 15.9744 48.8008 19.3013C48.8207 20.6766 48.7526 22.055 48.6845 23.4331V23.4331V23.4332V23.4333V23.4333V23.4334V23.4334V23.4335V23.4336V23.4336V23.4337C48.6599 23.9314 48.6353 24.429 48.6149 24.9265C48.6051 25.1625 48.6319 25.3055 48.872 25.4106C49.0379 25.4872 49.1754 25.614 49.2651 25.7732C49.3549 25.9324 49.3921 26.1158 49.3717 26.2974C49.3194 26.7756 49.1163 27.0473 48.6734 27.1263C48.4507 27.1655 48.4172 27.2799 48.3864 27.4532C48.2931 27.9822 48.2033 28.512 48.1135 29.0418L48.1135 29.0421C47.8943 30.3354 47.675 31.6287 47.4051 32.9109C46.5586 36.9202 45.2072 40.7703 43.5793 44.5258C43.542 44.633 43.5111 44.7423 43.487 44.8533C43.5352 44.8675 43.5843 44.8783 43.634 44.8857C43.9553 44.8947 44.2772 44.9069 44.599 44.9192H44.5991H44.5992H44.5994H44.5995H44.5997H44.5998H44.5999H44.6001H44.6002H44.6003C45.3216 44.9466 46.0428 44.974 46.7588 44.9654C48.9582 44.9403 51.1469 44.7793 53.3026 44.3096C54.987 43.9419 56.6219 43.4338 58.0607 42.4497C58.9512 41.8453 59.6717 41.0884 59.9727 40.0209C60.1823 39.2864 60.3708 38.5447 60.5458 37.8005C60.6044 37.5548 60.6357 37.3038 60.6681 37.0442C60.6827 36.927 60.6976 36.808 60.7153 36.6869C60.6836 36.6936 60.6568 36.6985 60.6333 36.7028C60.5925 36.7103 60.5617 36.7159 60.5327 36.7258C59.931 36.9329 59.592 36.8128 59.2479 36.2758C59.0765 35.9813 58.8888 35.6966 58.6857 35.423C58.4051 35.0751 58.1155 34.7339 57.8259 34.3926C57.5748 34.0966 57.3236 33.8006 57.0781 33.5C56.6936 33.0329 56.7593 32.4979 57.2155 32.0974C57.6043 31.7528 58.0817 31.7713 58.4745 32.2085C59.0782 32.8729 59.6528 33.5627 60.2194 34.258C60.3762 34.4509 60.5089 34.6635 60.6418 34.8764C60.7037 34.9756 60.7656 35.0748 60.8301 35.1721L60.9134 35.1466ZM4.92415 21.4382C4.21697 21.9602 3.5998 22.5655 3.23414 23.3773C2.8023 24.3369 2.83765 25.3237 3.15448 26.3098C3.57778 27.646 4.37682 28.7616 5.29466 29.7947C6.57337 31.2365 8.04615 32.457 9.61238 33.5747C11.2627 34.7419 12.9869 35.8009 14.7743 36.745C14.8729 36.7918 14.9844 36.8042 15.0909 36.7801C15.67 36.6298 16.0287 36.7993 16.295 37.3467C16.3506 37.4641 16.4414 37.5614 16.5546 37.625C16.7286 37.7107 16.9023 37.7971 17.076 37.8835L17.0771 37.8841L17.0782 37.8846L17.0783 37.8847C17.7921 38.2397 18.5063 38.595 19.2409 38.8986C20.7219 39.5084 22.2143 40.0917 23.7212 40.6327C26.9065 41.7674 30.163 42.6912 33.4697 43.3981C34.8183 43.6905 36.1605 43.9644 37.5155 44.1929C38.4921 44.3569 39.4767 44.4745 40.461 44.5921L40.4632 44.5924C40.6988 44.6205 40.9345 44.6487 41.17 44.6775C41.2262 44.6768 41.2815 44.6629 41.3312 44.6368C41.381 44.6107 41.4238 44.5731 41.4563 44.5272C41.5578 44.3475 41.6405 44.1572 41.7232 43.9667C41.7557 43.8918 41.7883 43.8169 41.822 43.7425C42.8433 41.4586 43.7179 39.1119 44.4404 36.7166C45.2312 34.1588 45.7842 31.5339 46.231 28.892C46.3613 28.1184 46.4473 27.3375 46.5306 26.557C46.5282 26.4919 46.5104 26.4282 46.4787 26.3713C46.447 26.3143 46.4022 26.2657 46.3481 26.2294C46.017 26.0561 45.6804 25.8941 45.344 25.7321L45.344 25.7321L45.3439 25.7321L45.3439 25.732L45.3438 25.732L45.3438 25.732L45.3437 25.7319L45.3436 25.7319L45.3436 25.7319L45.3435 25.7319L45.3435 25.7318C45.0666 25.5985 44.7898 25.4653 44.5163 25.3258C44.0779 25.1003 43.9228 24.4836 44.1672 24.0286C44.2266 23.9225 44.3064 23.8293 44.402 23.7542C44.4976 23.6791 44.6072 23.6236 44.7243 23.591C44.8414 23.5584 44.9639 23.5494 45.0845 23.5643C45.2052 23.5792 45.3217 23.6179 45.4274 23.6781C45.6892 23.8145 45.9582 23.9368 46.2432 24.0664C46.3696 24.1239 46.4992 24.1828 46.6327 24.2451C46.6436 24.1754 46.6545 24.1156 46.6643 24.062C46.6819 23.9655 46.6958 23.8892 46.6993 23.8122C46.7084 23.6142 46.7184 23.4163 46.7285 23.2183C46.7592 22.6122 46.79 22.0059 46.7935 21.4C46.8206 19.4714 46.722 17.5432 46.4984 15.6275C46.2095 13.293 45.7298 11.008 44.7611 8.85091C43.7789 6.6642 42.3993 4.83392 40.1524 3.79651C39.3619 3.43299 38.5398 3.18182 37.6646 3.2654C36.962 3.33356 36.2646 3.46296 35.5701 3.5918L35.5331 3.59867C34.8946 3.71674 34.4312 3.4338 34.3481 2.81294C34.3485 2.77382 34.3402 2.7351 34.3241 2.69946C34.3079 2.66383 34.2842 2.63214 34.2546 2.60659C34.225 2.58105 34.1901 2.56225 34.1525 2.55153C34.1149 2.54081 34.0754 2.53841 34.0367 2.5445C33.6808 2.5333 33.3248 2.51772 32.9688 2.50214C32.2119 2.46902 31.455 2.43589 30.6995 2.44491C28.0453 2.49017 25.4113 2.91604 22.8781 3.70953C19.5013 4.73943 16.3367 6.3668 13.5347 8.51426C11.4725 10.0891 9.623 11.88 8.08467 13.9676C7.24861 15.1023 6.49415 16.3 5.74667 17.4957C5.48991 17.9067 5.27932 18.3458 5.06862 18.7851L5.06855 18.7852C4.97049 18.9896 4.87241 19.1941 4.76964 19.3959C4.6573 19.6158 4.63002 19.772 4.92697 19.8996C5.10186 20.005 5.23515 20.1675 5.30441 20.3596C5.46493 20.7468 5.30736 21.1592 4.92415 21.4382ZM24.5692 60.5863C25.9555 60.7268 27.2762 60.4178 28.544 59.8617C30.4969 58.9993 32.1408 57.695 33.649 56.204C35.0207 54.8608 36.2467 53.3764 37.3067 51.7757C38.0372 50.6564 38.7298 49.5128 39.4226 48.3689L39.4236 48.3672C39.633 48.0214 39.8425 47.6756 40.053 47.3304C40.1605 47.1544 40.2488 46.9664 40.3453 46.7608C40.3907 46.6642 40.4378 46.5637 40.4897 46.4587C32.112 45.5244 23.9443 43.2216 16.3124 39.642C16.2721 39.7496 16.2409 39.8603 16.2191 39.9731C16.2098 40.0895 16.1996 40.2058 16.1894 40.3221C16.1554 40.7103 16.1214 41.0981 16.1203 41.486C16.1219 42.1484 15.7729 42.4939 15.0681 42.4719C14.5861 42.456 14.2107 41.9657 14.2469 41.421C14.2706 41.0774 14.29 40.7336 14.3093 40.3897C14.334 39.9508 14.3587 39.5119 14.3926 39.0736C14.4072 38.9826 14.3907 38.8894 14.3457 38.809C14.3006 38.7286 14.2298 38.6658 14.1445 38.6307L14.1214 38.6181C13.4518 38.2506 12.7769 37.8803 12.1188 37.4996C10.3439 36.4898 8.64833 35.3465 7.04666 34.0797C5.3621 32.7364 3.80692 31.2682 2.59401 29.4694C2.45594 29.2588 2.31787 29.0483 2.14225 28.7833C2.1054 28.8771 2.07797 28.9744 2.06036 29.0737C2.0491 29.5084 2.03213 29.9429 2.01516 30.3772C1.97528 31.3983 1.93544 32.4182 1.96999 33.4355C2.06064 35.6947 2.43047 37.934 3.07106 40.1024C4.0917 43.6773 5.78189 47.0259 8.0518 49.9703C9.10282 51.3364 10.2742 52.6055 11.5519 53.7624C12.8544 54.9413 14.2308 56.0275 15.751 56.9103C16.4807 57.3327 17.228 57.7252 17.9756 58.1179L17.9757 58.1179L17.9759 58.118L17.976 58.1181L17.9762 58.1181L17.9763 58.1182L17.9764 58.1183L17.9766 58.1184L17.9767 58.1185L17.9769 58.1185L17.977 58.1186L17.9772 58.1187C18.3156 58.2964 18.654 58.4742 18.991 58.6548C19.0596 58.6985 19.1407 58.7185 19.2218 58.7118C19.303 58.7051 19.3796 58.672 19.4402 58.6175C19.846 58.3268 20.2095 58.3557 20.5984 58.6744C20.6921 58.7511 20.7825 58.8318 20.8731 58.9125L20.8731 58.9125L20.8732 58.9127C20.9823 59.0099 21.0916 59.1073 21.2068 59.1983C22.168 59.9794 23.3369 60.4619 24.5692 60.5863ZM29.8592 61.5539C35.9271 61.822 41.4743 60.4543 46.5938 57.3994L46.5878 57.3977C51.7103 54.3373 55.545 50.0866 58.1178 44.7098L58.0431 44.6268C57.9771 44.6441 57.9126 44.6665 57.85 44.6936C56.1802 45.5545 54.3914 46.036 52.5556 46.3598C49.44 46.9111 46.2984 46.9505 43.1513 46.7626L43.0957 46.7592C42.7468 46.7378 42.6102 46.7294 42.5252 46.7916C42.4705 46.8316 42.4371 46.9008 42.3823 47.0145L42.3823 47.0145L42.3822 47.0147C42.3457 47.0902 42.2998 47.1854 42.2319 47.3047C41.917 47.8561 41.6128 48.4138 41.3085 48.9714L41.3085 48.9715C40.8272 49.8537 40.346 50.7356 39.823 51.5922C38.7279 53.3904 37.4627 55.0792 36.0448 56.6356C34.3279 58.5194 32.4352 60.1794 30.1476 61.341C30.0469 61.4054 29.9505 61.4766 29.8592 61.5539ZM15.5228 19.0434C15.4714 19.0449 15.4198 19.0465 15.369 19.0418C14.795 18.9909 14.4396 18.7088 14.4379 18.3121C14.4451 17.7877 14.9564 17.2557 15.471 17.2614C16.7133 17.2822 17.953 17.3096 19.1899 17.3435C19.588 17.355 19.9045 17.532 20.1372 17.9976C20.1863 17.9012 20.229 17.8181 20.2678 17.7429L20.2681 17.7423C20.327 17.6277 20.3767 17.5313 20.4252 17.4337C20.5239 17.237 20.6214 17.0399 20.7189 16.8427L20.7191 16.8423L20.7192 16.8421C20.9417 16.3921 21.1642 15.9423 21.4003 15.4994C21.6569 15.0195 22.2685 14.8913 22.7401 15.1959C22.8484 15.2663 22.9416 15.3575 23.0144 15.4642C23.0871 15.5709 23.138 15.691 23.164 15.8176C23.1901 15.9441 23.1907 16.0745 23.166 16.2013C23.1412 16.328 23.0916 16.4486 23.0199 16.5561C22.8689 16.7899 22.7335 17.0328 22.591 17.2885L22.5909 17.2885L22.5909 17.2886L22.5908 17.2888C22.5084 17.4366 22.4237 17.5885 22.3322 17.7455C23.177 17.4862 23.9669 17.6259 24.7464 17.7638C25.0748 17.8219 25.4013 17.8797 25.7294 17.9071C26.1096 17.948 26.4868 18.0139 26.8584 18.1042C27.2896 18.1948 27.6361 18.4215 27.7444 18.8701C27.7826 19.0142 27.7848 19.1653 27.7511 19.3105C27.7174 19.4556 27.6486 19.5903 27.5509 19.7027C27.4531 19.8151 27.3293 19.9019 27.1903 19.9555C27.0513 20.0091 26.9012 20.0279 26.7533 20.0101C26.3469 19.9714 25.943 19.9055 25.5388 19.8395L25.5387 19.8395L25.5387 19.8394L25.5386 19.8394L25.5385 19.8394L25.5384 19.8394L25.5384 19.8394L25.5383 19.8394L25.5382 19.8394L25.5382 19.8394L25.5381 19.8394L25.538 19.8393C25.31 19.8021 25.082 19.7649 24.8534 19.7325L24.5676 19.6944C24.1096 19.633 23.6521 19.5718 23.1938 19.5227C22.5263 19.4506 22.2308 19.2357 21.9766 18.5537L21.8197 18.8513C21.6734 19.1292 21.5365 19.3891 21.3982 19.6487C21.1207 20.1705 20.7432 20.3789 20.3076 20.2445C20.0804 20.1803 19.8861 20.0321 19.7641 19.83C19.6421 19.6279 19.6015 19.3869 19.6506 19.156C19.6556 19.129 19.64 19.0975 19.6434 19.1127C19.3838 19.1052 19.126 19.0971 18.8692 19.0889L18.8679 19.0889L18.8674 19.0889C18.3791 19.0734 17.8947 19.0581 17.4099 19.0481C16.9738 19.0402 16.5367 19.0409 16.0999 19.0416C15.9388 19.0419 15.7777 19.0421 15.6167 19.0419C15.5856 19.0415 15.5542 19.0424 15.5228 19.0434ZM7.93545 20.0963L11.7074 19.2719C12.0838 19.1909 12.3364 18.9769 12.4258 18.6279C12.626 17.9179 12.1087 17.3269 11.3896 17.4196L11.3426 17.4257C10.8692 17.4872 10.3927 17.549 9.92412 17.6516C9.10892 17.8244 8.29411 18.005 7.49069 18.2276C6.96526 18.3749 6.72754 18.8976 6.88032 19.4129C7.0331 19.9283 7.46956 20.1972 7.93545 20.0963ZM25.0017 13.2012C24.649 13.7018 24.0691 13.8273 23.595 13.5039C23.1579 13.2052 23.0886 12.5998 23.4375 12.1085L23.511 12.0048L23.511 12.0047L23.511 12.0047L23.5111 12.0047L23.5111 12.0047L23.5111 12.0046L23.5111 12.0046L23.5112 12.0046L23.5112 12.0045C24.2129 11.0144 24.9132 10.0263 25.6207 9.04259C25.731 8.87169 25.8934 8.74088 26.0839 8.66954C26.2744 8.5982 26.4828 8.59014 26.6782 8.64653C27.3782 8.85034 27.5569 9.57559 27.0794 10.2487C26.5637 10.976 26.0516 11.7056 25.5396 12.4352C25.3603 12.6906 25.1811 12.9459 25.0017 13.2012ZM17.4984 27.4713C17.6144 27.5085 17.7367 27.522 17.858 27.511C17.9792 27.4999 18.0971 27.4646 18.2044 27.4071C18.3118 27.3496 18.4064 27.2711 18.4828 27.1762C18.5592 27.0814 18.6157 26.9722 18.649 26.855C19.047 25.6769 19.4406 24.5052 19.8292 23.3282C19.911 23.0937 19.9093 22.8381 19.8244 22.6047C19.7395 22.3713 19.5766 22.1743 19.3633 22.0471C19.0723 21.8709 18.6124 21.9645 18.2964 22.2934C18.1858 22.4021 18.0996 22.5331 18.0435 22.6777L17.955 22.9367C17.5702 24.0627 17.1855 25.1887 16.8272 26.3233C16.6835 26.7783 17.0408 27.3371 17.4984 27.4713ZM31.9982 21.2222L30.2996 20.7433C29.7706 20.5967 29.4337 20.0798 29.5359 19.6028C29.6382 19.1258 30.2245 18.7672 30.7498 18.8947C31.943 19.1846 33.1339 19.4869 34.3227 19.8014C34.5405 19.8527 34.7353 19.9744 34.8771 20.1475C35.0188 20.3207 35.0996 20.5357 35.1069 20.7593C35.1189 20.9625 35.0593 21.1635 34.9384 21.3272C34.8175 21.491 34.643 21.6071 34.4452 21.6554C34.2248 21.7004 33.9969 21.6944 33.7791 21.6379C33.3544 21.5339 32.934 21.4125 32.5137 21.2911C32.3488 21.2435 32.1839 21.1959 32.0188 21.1493L31.9982 21.2222ZM28.8264 7.68151C29.0679 7.74055 29.374 7.57009 29.6797 7.32337C29.8271 7.2029 29.9744 7.08217 30.1217 6.96144L30.1218 6.96134L30.1219 6.96123L30.1226 6.96069L30.1233 6.96014L30.1233 6.9601C30.8833 6.33711 31.6437 5.71382 32.4292 5.12296C32.6378 4.97599 32.7818 4.75443 32.8314 4.50418C32.8811 4.25394 32.8326 3.99419 32.6959 3.77874C32.4482 3.4263 31.8276 3.19712 31.3423 3.54547C31.2033 3.64671 31.059 3.74125 30.9149 3.83569L30.9149 3.8357L30.9149 3.83572C30.6869 3.98512 30.4592 4.1343 30.2533 4.30946L30.212 4.34456C29.5281 4.92598 28.8413 5.50981 28.2143 6.15015C27.7358 6.64365 28.016 7.46205 28.8264 7.68151ZM16.6573 29.2388C17.3239 29.0758 17.9192 29.7288 17.7616 30.4341C17.6949 30.7309 17.6271 31.0273 17.5593 31.3237L17.5593 31.3239C17.4316 31.8819 17.304 32.4397 17.1842 32.9992C17.1314 33.2499 17.0989 33.5045 17.0687 33.7417L17.0687 33.7419L17.0687 33.7423C17.0552 33.8483 17.0421 33.9509 17.0278 34.048C16.8869 34.6303 16.4006 34.9409 15.8683 34.8334C15.6242 34.7786 15.4118 34.6292 15.2778 34.418C15.1438 34.2067 15.0992 33.9509 15.1537 33.7067C15.3388 32.7729 15.528 31.8402 15.7174 30.907L15.8993 30.0097C15.9326 29.8195 16.023 29.6439 16.1583 29.5063C16.2937 29.3686 16.4677 29.2754 16.6573 29.2388ZM37.4125 22.6248C37.5902 22.7067 37.7728 22.7775 37.9591 22.837C38.2484 22.9438 38.538 23.05 38.8275 23.1562L38.8279 23.1563C39.5746 23.4301 40.3214 23.7039 41.063 23.9883C41.5231 24.1645 41.9827 24.0811 42.2677 23.7202C42.4045 23.5514 42.4744 23.3382 42.4642 23.1212C42.454 22.9042 42.3644 22.6985 42.2124 22.5432C42.0094 22.3417 41.7641 22.1879 41.4942 22.093C41.0072 21.9073 40.516 21.733 40.0248 21.5587C39.5336 21.3844 39.0424 21.2101 38.5553 21.0244C37.8 20.7379 37.3273 20.9362 37.0594 21.7033C36.9085 22.124 37.0139 22.4183 37.4125 22.6248ZM16.7413 52.0951C16.967 52.2045 17.1409 52.3978 17.226 52.6337L17.3172 52.8647L17.3177 52.866C17.7378 53.9311 18.1577 54.9955 18.5874 56.0525C18.7392 56.4295 18.6982 56.7535 18.4148 57.0491C18.2845 57.195 18.1196 57.306 17.9354 57.3719C17.7511 57.4379 17.5533 57.4566 17.36 57.4265C17.3051 57.3741 17.245 57.3248 17.185 57.2754C17.056 57.1693 16.927 57.0632 16.849 56.9276C16.1901 55.7444 15.6966 54.4764 15.3824 53.1591C15.3197 52.9275 15.3515 52.6804 15.4707 52.4721C15.5899 52.2639 15.7868 52.1114 16.0182 52.048C16.2562 51.9688 16.5157 51.9857 16.7413 52.0951ZM16.4762 48.8015C16.3629 47.7054 16.2582 46.6092 16.1621 45.5128C16.1164 44.9838 15.8498 44.5886 15.4331 44.4646C14.8763 44.2973 14.2514 44.7108 14.2305 45.2972C14.2119 45.8015 14.2287 46.3063 14.2807 46.8082C14.3747 47.6876 14.4716 48.5705 14.6374 49.4379C14.7726 50.1483 15.5216 50.366 16.0785 49.9101C16.434 49.6193 16.5216 49.2401 16.4762 48.8015ZM52.8645 30.0463C52.3289 29.6795 51.7933 29.3127 51.2627 28.9382C50.7422 28.5695 50.6606 28.0807 50.9977 27.5989C51.2975 27.1764 51.8404 27.0816 52.3208 27.3823C52.3979 27.4307 52.4749 27.479 52.5518 27.5272C53.006 27.8119 53.4565 28.0942 53.9084 28.4015C54.4368 28.7608 54.9513 29.142 55.463 29.5237C55.7938 29.7693 55.9819 30.0997 55.8805 30.5189C55.8414 30.7134 55.7434 30.891 55.5997 31.0278C55.4561 31.1646 55.2739 31.2539 55.0778 31.2836C54.9193 31.297 54.76 31.2953 54.6018 31.2784C54.5287 31.2243 54.454 31.1677 54.3778 31.11C54.2192 30.9898 54.054 30.8647 53.8833 30.7468C53.5446 30.512 53.2045 30.2791 52.8645 30.0463Z" fill="#1E7151"/>
</svg>
