<svg width="64" height="60" viewBox="0 0 64 60" fill="none" xmlns="http://www.w3.org/2000/svg">
<path d="M0.47797 23.2366C1.09794 23.3708 1.73813 23.4245 2.36938 23.5095C4.95072 23.8608 7.53654 24.1807 10.1111 24.5789C11.4638 24.7914 12.8796 24.9905 14.1511 25.4894C17.4178 26.7667 19.5978 29.156 20.4636 32.5474C20.9144 34.3594 21.0993 36.2452 21.3653 38.1043C21.6922 40.3413 21.9742 42.6031 22.3078 44.8469C22.3439 45.0862 22.5964 45.2942 22.8422 45.6522C23.1082 45.3256 23.3178 45.1623 23.3899 44.9542C23.4587 44.6643 23.4988 44.3683 23.5095 44.0705C23.8679 41.4532 24.1856 38.8313 24.5982 36.2206C24.8236 34.6994 24.9906 33.129 25.5136 31.6995C26.9565 27.769 29.8939 25.4715 34.0376 24.8003C37.0157 24.3194 40.0188 23.995 43.0105 23.5923C43.7702 23.4894 44.5343 23.3842 45.2828 23.212C45.3927 23.1633 45.4892 23.0891 45.5641 22.9957C45.6391 22.9023 45.6903 22.7923 45.7134 22.6751C45.7314 22.5364 45.4678 22.2612 45.2852 22.2277C44.772 22.1213 44.2534 22.0421 43.7317 21.9905C41.1331 21.6371 38.5331 21.2836 35.9314 20.9302C34.3916 20.7176 32.8316 20.5857 31.391 19.9392C27.4841 18.1853 25.3512 15.1429 24.8236 10.9573C24.4855 8.27278 24.1609 5.56364 23.8228 2.86796C23.7258 2.09169 23.6355 1.30203 23.471 0.552608C23.4259 0.328899 23.1285 0.183441 22.9459 0C22.7561 0.170147 22.5817 0.356598 22.425 0.557086C22.3565 0.710626 22.3219 0.87688 22.3235 1.04476C22.2062 1.93959 22.098 2.85453 21.9763 3.75831C21.6313 6.26608 21.2662 8.7694 20.9325 11.2772C20.6402 13.7764 19.4796 16.0965 17.6501 17.8386C15.5151 19.8967 12.8525 20.6125 9.99841 20.9391C7.37197 21.2411 4.75678 21.6326 2.13711 21.9838C1.56005 22.0385 0.986498 22.1252 0.419187 22.2434C0.309243 22.2904 0.213137 22.3643 0.139802 22.4582C0.066468 22.5521 0.0184417 22.6629 0 22.7802C0.00225445 22.9346 0.281833 23.1941 0.47797 23.2366Z" fill="#FFBFC0"/>
<path d="M34.2731 45.9106C34.6805 45.9949 35.1012 46.0287 35.516 46.0821C37.2123 46.3029 38.9116 46.504 40.6034 46.7543C41.4923 46.8878 42.4227 47.013 43.2583 47.3266C45.405 48.1295 46.8376 49.6313 47.4065 51.763C47.7028 52.902 47.8242 54.0874 47.9991 55.2559C48.2139 56.6621 48.3992 58.0838 48.6184 59.4941C48.6421 59.6446 48.8081 59.7754 48.9696 60.0003C49.1444 59.795 49.2821 59.6924 49.3295 59.5616C49.3747 59.3794 49.401 59.1933 49.4081 59.0062C49.6436 57.361 49.8524 55.713 50.1235 54.072C50.2717 53.1158 50.3814 52.1286 50.7251 51.2301C51.6732 48.7595 53.6036 47.3153 56.3265 46.8935C58.2836 46.5911 60.2571 46.3873 62.223 46.1342C62.7223 46.0695 63.2244 46.0033 63.7162 45.8951C63.7884 45.8645 63.8519 45.8179 63.9011 45.7591C63.9504 45.7004 63.984 45.6313 63.9992 45.5576C64.0111 45.4704 63.8378 45.2975 63.7178 45.2764C63.3806 45.2095 63.0398 45.1597 62.697 45.1273C60.9893 44.9051 59.2807 44.683 57.5711 44.4608C56.5592 44.3272 55.5341 44.2443 54.5874 43.8379C52.0199 42.7354 50.6183 40.8231 50.2717 38.1921C50.0494 36.5047 49.8362 34.8018 49.6139 33.1074C49.5502 32.6195 49.4909 32.1231 49.3828 31.652C49.3531 31.5114 49.1577 31.42 49.0377 31.3047C48.913 31.4116 48.7984 31.5288 48.6954 31.6549C48.6504 31.7514 48.6277 31.8559 48.6287 31.9614C48.5517 32.5239 48.4805 33.099 48.4005 33.6671C48.1739 35.2434 47.9339 36.8169 47.7146 38.3932C47.5225 39.9641 46.7599 41.4225 45.5576 42.5175C44.1547 43.8112 42.4049 44.2611 40.5294 44.4664C38.8034 44.6563 37.0849 44.9023 35.3634 45.1231C34.9842 45.1575 34.6073 45.2119 34.2345 45.2862C34.1622 45.3158 34.099 45.3622 34.0509 45.4212C34.0027 45.4803 33.9711 45.5499 33.959 45.6237C33.9605 45.7207 34.1442 45.8838 34.2731 45.9106Z" fill="#FFBFC0"/>
</svg>
