<svg width="50" height="68" viewBox="0 0 50 68" fill="none" xmlns="http://www.w3.org/2000/svg">
<path d="M49.7024 8.10679C50.0024 9.65298 49.7286 11.2568 48.9329 12.6136C48.7018 13.0039 48.4668 13.3734 48.2024 13.7485C37.7547 29.1796 27.3073 44.6127 16.8602 60.0477C16.3676 60.8438 15.6452 61.4689 14.7901 61.8393C11.1323 63.4153 7.56254 65.137 3.93416 66.7565C3.37926 67.0103 2.76573 67.1049 2.16114 67.0298C0.867647 66.8104 0.285311 65.9224 0.38677 64.61C0.680336 60.6964 1.053 56.783 1.23408 52.8694C1.29379 51.6814 1.70112 50.5376 2.40469 49.5823C13.0309 34.1193 23.6399 18.6452 34.2317 3.16011C36.2432 0.224604 39.8697 -0.607031 42.8948 1.24973C44.4839 2.22175 46.0139 3.30004 47.5207 4.4011C48.7816 5.32531 49.3955 6.69141 49.7024 8.10679ZM13.8331 56.3897L40.7768 16.3272L33.6485 11.4156L6.48174 51.5206L13.8331 56.3897ZM36.4426 7.18506L43.621 12.1208C43.9774 11.5872 44.4207 10.9819 44.8092 10.344C45.3967 9.37115 45.2439 8.26039 44.3509 7.59703C43.0558 6.63644 41.7262 5.71919 40.3614 4.85766C39.945 4.57572 39.4361 4.46809 38.9422 4.55758C38.4483 4.64707 38.0082 4.92663 37.7149 5.33717C37.2163 5.95607 36.8161 6.64513 36.4544 7.18282L36.4426 7.18506ZM5.35088 61.4339L9.93254 59.2376L5.45575 56.1682L5.35088 61.4339Z" fill="#FDBE16"/>
</svg>
