<svg width="52" height="52" viewBox="0 0 52 52" fill="none" xmlns="http://www.w3.org/2000/svg">
<path d="M16.9484 21.9028C11.8621 17.2218 6.77613 12.5411 1.69042 7.8607C1.0122 7.23653 0.704473 6.49428 0.884339 5.57524C1.11041 4.45143 2.42552 3.62837 3.51611 3.98714C3.92351 4.13033 4.30289 4.34329 4.6373 4.61651C5.15602 5.02762 5.61791 5.50927 6.11348 5.9508C6.54794 6.33932 6.86878 6.32263 7.26511 5.89375C8.6555 4.38999 10.0429 2.88242 11.4274 1.37105C11.8381 0.924727 12.3398 0.741471 12.9241 0.907448C13.1568 0.986321 13.3701 1.11375 13.5498 1.28129C14.0948 1.75697 14.614 2.26065 15.1525 2.74333C15.8671 3.37189 15.7383 4.32333 15.2192 4.87683C13.8577 6.32805 12.5296 7.80986 11.1689 9.2602C10.6474 9.81465 10.7068 10.1926 11.2363 10.6799C18.7105 17.5456 26.1797 24.4169 33.6438 31.2936C34.1829 31.7898 34.7219 32.2859 35.261 32.782C35.717 33.2016 36.0865 33.1812 36.5112 32.7268C37.6394 31.5184 38.715 30.2566 39.9039 29.1106C41.6076 27.4701 43.6697 26.9611 45.9502 27.6164C47.1504 27.9608 48.1973 28.7042 48.918 29.7238C50.0489 31.277 50.3108 32.984 49.8782 34.81C49.6397 35.8173 49.0954 36.6757 48.4244 37.4645C48.2447 37.6756 48.0491 37.8723 47.8659 38.0819C47.5293 38.4687 47.5382 38.8455 47.914 39.2011C48.4381 39.6995 48.9782 40.1804 49.5046 40.6746C50.9853 42.0373 51.6768 43.7324 51.5563 45.7356C51.459 47.3465 50.7766 48.6904 49.5749 49.7731C48.4194 50.8109 47.0447 51.293 45.5151 51.3077C43.9196 51.3183 42.5558 50.7032 41.3822 49.6425C40.8571 49.1593 40.332 48.6761 39.8069 48.1928C39.1996 47.6339 38.9317 47.6492 38.3715 48.2457C38.0803 48.5712 37.7714 48.8805 37.4462 49.1721C35.8603 50.5282 34.0426 51.0262 31.9892 50.5879C30.5327 50.2771 29.3957 49.4472 28.5424 48.2756C27.5758 46.9496 27.3438 45.4173 27.6089 43.8137C27.8166 42.5501 28.4297 41.4835 29.3026 40.5525C30.2917 39.4989 31.2465 38.4122 32.2479 37.3715C32.7434 36.8577 32.7774 36.4607 32.1807 35.9131C27.0981 31.255 22.0207 26.5849 16.9484 21.9028ZM41.9067 41.9982C43.1113 40.7858 42.955 38.8429 41.7726 37.7531C40.5421 36.6208 38.674 36.6309 37.4926 37.9181C36.3112 39.2053 36.4496 41.0396 37.6626 42.1769C38.8554 43.2957 40.7981 43.2748 41.9067 41.9982Z" fill="#DB3B4D"/>
</svg>
