<svg width="169" height="170" viewBox="0 0 169 170" fill="none" xmlns="http://www.w3.org/2000/svg">
<path d="M119.711 150.136H49.2943C23.5922 150.136 8.80469 135.348 8.80469 109.646V60.3543C8.80469 34.6522 23.5922 19.8647 49.2943 19.8647H84.5026C87.3897 19.8647 89.7839 22.2589 89.7839 25.146C89.7839 28.0331 87.3897 30.4272 84.5026 30.4272H49.2943C29.1551 30.4272 19.3672 40.2152 19.3672 60.3543V109.646C19.3672 129.785 29.1551 139.573 49.2943 139.573H119.711C139.85 139.573 149.638 129.785 149.638 109.646V81.4793C149.638 78.5922 152.032 76.1981 154.919 76.1981C157.806 76.1981 160.201 78.5922 160.201 81.4793V109.646C160.201 135.348 145.413 150.136 119.711 150.136Z" fill="#1E7151"/>
<path d="M84.5008 91.1262C78.5858 91.1262 72.6004 89.2955 68.0234 85.5634L45.9829 67.9592C43.7296 66.1284 43.3071 62.8188 45.1379 60.5654C46.9688 58.3121 50.2783 57.8896 52.5316 59.7205L74.5721 77.3246C79.9237 81.62 89.0075 81.62 94.3591 77.3246C96.6125 75.4938 99.9222 75.8458 101.753 78.1696C103.584 80.4229 103.232 83.803 100.908 85.5634C96.4012 89.2955 90.4158 91.1262 84.5008 91.1262Z" fill="#1E7151"/>
<path d="M117.882 69.156C114.995 69.156 113.023 68.1701 111.756 67.2547C109.432 65.5647 105.841 61.3398 107.953 52.0448L108.306 50.566C108.446 50.0027 108.024 48.6647 107.672 48.2422L105.207 45.7776C101.053 41.5526 99.4331 36.6235 100.841 32.1872C102.25 27.8214 106.404 24.7231 112.249 23.7373L114.925 23.3148C115.418 23.1739 116.404 22.4698 116.685 21.9768L118.657 17.963C121.403 12.4001 125.628 9.23145 130.276 9.23145C134.923 9.23145 139.148 12.4001 141.894 17.963L143.866 21.9768C144.077 22.3993 145.133 23.1739 145.626 23.3148L148.302 23.7373C154.147 24.7231 158.301 27.8214 159.71 32.1872C161.118 36.5531 159.569 41.4822 155.344 45.7776L152.879 48.2422C152.527 48.6647 152.105 50.0027 152.245 50.566L152.598 52.0448C154.71 61.3398 151.119 65.5647 148.795 67.2547C146.471 68.9447 141.401 70.9869 133.303 66.1281L131.543 65.0718C131.05 64.7901 129.642 64.7901 129.149 65.0718L127.318 66.1281C123.515 68.3815 120.347 69.156 117.882 69.156ZM130.205 19.8643C130.135 19.9347 129.149 20.6389 128.163 22.6809L126.191 26.6947C124.501 30.1452 120.488 33.1027 116.755 33.7364L114.08 34.1589C111.826 34.511 111.052 35.2856 110.981 35.4265C110.981 35.5673 111.193 36.6939 112.812 38.3135L115.277 40.7781C118.164 43.7356 119.643 48.8055 118.727 52.8193L118.375 54.2981C117.812 56.8331 118.023 58.171 118.164 58.6639C118.305 58.523 119.572 58.3823 121.896 56.9739L123.727 55.9176C127.6 53.5939 133.163 53.5939 137.035 55.9176L138.796 56.9739C141.12 58.3823 142.317 58.5231 142.739 58.5231C142.669 58.3119 142.95 57.0443 142.317 54.2981L141.965 52.8193C141.049 48.7351 142.528 43.7356 145.415 40.7781L147.88 38.3135C149.499 36.6939 149.711 35.5672 149.711 35.356C149.64 35.2151 148.866 34.511 146.612 34.0885L143.936 33.666C140.134 33.0323 136.191 30.0748 134.501 26.6244L132.529 22.6809C131.402 20.5684 130.487 19.9347 130.205 19.8643Z" fill="#1E7151"/>
</svg>
