<svg width="20" height="20" viewBox="0 0 20 20" fill="none" xmlns="http://www.w3.org/2000/svg">
<path d="M9.77834 19.7713C9.79964 19.8235 9.83225 19.8704 9.8738 19.9087C9.91536 19.947 9.96488 19.9758 10.0188 19.9929C10.1736 20.0331 10.2238 19.8948 10.2436 19.7664C10.28 19.5163 10.3144 19.2663 10.3489 19.0152L10.8161 15.5978C10.9146 14.9113 11.0004 14.2249 11.3088 13.5894C12.0036 12.1901 13.1133 11.2909 14.6506 11.0045C15.9052 10.7711 17.1814 10.6486 18.4478 10.476C18.8784 10.4171 19.3081 10.3534 19.7377 10.2936C19.8974 10.272 20.0038 10.1955 19.9999 10.0259C19.996 9.85623 19.8786 9.81013 19.7318 9.79837C19.6175 9.78856 19.5042 9.77288 19.3898 9.75719C18.2614 9.60421 17.1311 9.463 16.0057 9.29238C15.3158 9.18843 14.6092 9.1237 13.9647 8.89031C12.2352 8.26663 11.2142 6.99673 10.9176 5.19141C10.7067 3.90483 10.5628 2.60648 10.3864 1.31402C10.341 0.982574 10.2968 0.650133 10.2278 0.323586C10.2071 0.225524 10.1036 0.145132 9.99718 0C9.89174 0.131403 9.80007 0.196111 9.78036 0.280445C9.72911 0.502065 9.70842 0.730563 9.68181 0.956106C9.52314 2.11226 9.37726 3.2684 9.20283 4.42161C9.11709 4.98351 9.04815 5.56305 8.85203 6.08867C8.16219 7.9391 6.7707 8.93248 4.82731 9.18548C3.66542 9.33649 2.50056 9.46987 1.33768 9.61402C0.979949 9.65815 0.623191 9.71208 0.266444 9.75817C0.111722 9.77876 -0.0292416 9.85622 0.00525055 10.0161C0.0307551 10.0706 0.0681398 10.1187 0.114674 10.1571C0.161209 10.1954 0.215773 10.2229 0.274335 10.2377C0.491256 10.2792 0.71041 10.3084 0.930686 10.325C2.26997 10.5083 3.60918 10.7005 4.94944 10.8771C6.28971 11.0536 7.39352 11.6684 8.2233 12.7471C8.89245 13.6189 9.09054 14.6436 9.21668 15.6988C9.34775 16.7922 9.50437 17.8816 9.6512 18.9731C9.67792 19.2414 9.72037 19.5079 9.77834 19.7713Z" fill="#FDBE16"/>
</svg>
