<svg width="1440" height="519" viewBox="0 0 1440 519" fill="none" xmlns="http://www.w3.org/2000/svg">
<path d="M1261.19 191.623L1253.71 189.271L1188.41 396.777L1195.89 399.129L1261.19 191.623Z" fill="#DB3B4D"/>
<path d="M1242.44 380.245L1159.62 354.183L1157.26 361.705L1240.07 387.767L1242.44 380.245Z" fill="#DB3B4D"/>
<path d="M1240.55 212.339L1143.4 382.611L1150.87 384.964L1248.02 214.691L1240.55 212.339Z" fill="#DB3B4D"/>
<path d="M1258.77 218.073L1251.29 215.72L1233.44 410.949L1240.89 413.294L1258.77 218.073Z" fill="#DB3B4D"/>
<path d="M1321.71 221.892L1186.76 179.422L1155.59 278.459L1290.54 320.929L1321.71 221.892Z" fill="#DB3B4D"/>
<path d="M1274.48 306.595L1167.38 272.889L1193.79 188.991L1311.69 226.095L1292.98 285.541L1274.48 306.595Z" fill="#F2F2F2"/>
<path d="M1138.17 162.618C1133.94 165.372 1129.25 167.622 1124.22 169.196C1094.78 178.399 1063.48 162.008 1054.27 132.566C1046.69 108.286 1056.53 82.6847 1076.76 69.332L1138.17 162.618Z" stroke="#1E7151" stroke-width="3" stroke-miterlimit="10"/>
<path d="M1124.21 169.196L1130.15 188.191" stroke="#1E7151" stroke-width="3" stroke-miterlimit="10"/>
<path d="M1121.67 161.05C1146.6 153.257 1160.49 126.729 1152.7 101.798C1144.91 76.8674 1118.38 62.9745 1093.45 70.7675C1068.52 78.5605 1054.63 105.088 1062.42 130.019C1070.21 154.95 1096.74 168.843 1121.67 161.05Z" fill="#F2F2F2" stroke="#1E7151" stroke-width="3" stroke-miterlimit="10"/>
<path d="M1148.99 182.168L1111.4 193.917L1127.13 178.729L1148.99 182.168Z" fill="#F2F2F2" stroke="#1E7151" stroke-width="3" stroke-miterlimit="10"/>
<circle cx="1108.31" cy="117.307" r="49.1519" transform="rotate(-34.3402 1108.31 117.307)" fill="#F2F2F2" stroke="#1E7151" stroke-width="3"/>
<circle cx="1108.08" cy="117.08" r="49.4728" transform="rotate(-34.3402 1108.08 117.08)" stroke="#1E7151" stroke-width="3"/>
<circle cx="1108.08" cy="117.08" r="49.4728" transform="rotate(-34.3402 1108.08 117.08)" stroke="#1E7151" stroke-width="3"/>
<circle cx="1108.08" cy="117.08" r="49.4728" transform="rotate(-34.3402 1108.08 117.08)" stroke="#1E7151" stroke-width="3"/>
<path d="M1129.26 102.604C1137.09 114.064 1141.66 126.071 1142.77 136.17C1143.9 146.343 1141.5 154.163 1135.98 157.929C1130.47 161.695 1122.31 161.088 1113.24 156.345C1104.24 151.636 1094.72 143.015 1086.89 131.555C1079.06 120.094 1074.49 108.087 1073.38 97.988C1072.25 87.8155 1074.66 79.9953 1080.17 76.2293C1085.68 72.4634 1093.84 73.0706 1102.91 77.8133C1111.91 82.522 1121.43 91.1432 1129.26 102.604Z" stroke="#1E7151" stroke-width="3"/>
<path d="M1066.55 145.444L1149.67 88.6597" stroke="#1E7151" stroke-width="3" stroke-linejoin="bevel"/>
<path d="M1079.72 75.4941L1136.51 158.611" stroke="#1E7151" stroke-width="3" stroke-linejoin="bevel"/>
<path d="M1118.08 67.7827V67.7827C1112.6 95.2292 1086.19 113.268 1058.63 108.399V108.399" stroke="#1E7151" stroke-width="3" stroke-linejoin="bevel"/>
<circle cx="1108.08" cy="117.079" r="49.4728" transform="rotate(145.66 1108.08 117.079)" stroke="#1E7151" stroke-width="3"/>
<circle cx="1108.08" cy="117.079" r="49.4728" transform="rotate(-34.3402 1108.08 117.079)" stroke="#1E7151" stroke-width="3"/>
<circle cx="1108.08" cy="117.079" r="49.4728" transform="rotate(-34.3402 1108.08 117.079)" stroke="#1E7151" stroke-width="3"/>
<circle cx="1108.08" cy="117.079" r="49.4728" transform="rotate(-34.3402 1108.08 117.079)" stroke="#1E7151" stroke-width="3"/>
<path d="M1129.27 102.605C1137.1 114.065 1141.67 126.072 1142.78 136.171C1143.9 146.344 1141.5 154.164 1135.99 157.93C1130.47 161.696 1122.32 161.089 1113.25 156.346C1104.24 151.637 1094.72 143.016 1086.89 131.556C1079.06 120.095 1074.49 108.088 1073.38 97.9889C1072.26 87.8165 1074.66 79.9963 1080.17 76.2303C1085.68 72.4644 1093.84 73.0715 1102.91 77.8143C1111.91 82.523 1121.44 91.1442 1129.27 102.605Z" stroke="#1E7151" stroke-width="3"/>
<path d="M1066.55 145.444L1149.67 88.6597" stroke="#1E7151" stroke-width="3" stroke-linejoin="bevel"/>
<path d="M1079.73 75.4941L1136.51 158.611" stroke="#1E7151" stroke-width="3" stroke-linejoin="bevel"/>
<path d="M1118.08 67.7807V67.7807C1112.6 95.2272 1086.2 113.266 1058.63 108.397V108.397" stroke="#1E7151" stroke-width="3" stroke-linejoin="bevel"/>
<circle cx="1108.08" cy="117.079" r="49.4728" transform="rotate(145.66 1108.08 117.079)" stroke="#1E7151" stroke-width="3"/>
<path d="M1098.08 166.378V166.378C1103.56 138.931 1129.96 120.892 1157.53 125.762V125.762" stroke="#1E7151" stroke-width="3" stroke-linejoin="bevel"/>
<path d="M-223 1C-183.123 243.646 1521 105.868 1521 519" stroke="#D9D9D9" stroke-width="4" stroke-dasharray="14 14"/>
</svg>
