<svg width="1440" height="5155" viewBox="0 0 1440 5155" fill="none" xmlns="http://www.w3.org/2000/svg">
<path d="M232.167 3525.58H232.271Z" fill="#FFBFC0"/>
<path d="M273.834 3473.5H273.938Z" fill="#FFBFC0"/>
<path d="M315.501 3473.5H315.605Z" fill="#FFBFC0"/>
<path d="M195.709 3547.46H195.813Z" fill="#FFBFC0"/>
<path d="M357.167 3463.08C357.167 3556.83 315.501 3588.08 294.667 3588.08C273.834 3588.08 232.167 3556.83 232.167 3463.08C232.167 3442.25 253.001 3431.83 294.667 3431.83C336.334 3431.83 357.167 3442.25 357.167 3463.08Z" fill="#FFBFC0"/>
<path d="M309.252 3514.12C300.918 3522.46 288.418 3522.46 280.085 3514.12Z" fill="#FFBFC0"/>
<path d="M233.211 3484.96C221.753 3486 208.211 3491.21 190.503 3500.58C154.044 3521.42 141.544 3541.21 151.961 3558.92C198.836 3640.17 250.919 3646.42 268.628 3636C278.003 3630.79 288.419 3614.13 288.419 3587.04" fill="#FFBFC0"/>
<path d="M222.793 3582.87C225.918 3571.42 237.377 3565.17 247.793 3568.29Z" fill="#FFBFC0"/>
<path d="M232.167 3525.58H232.271M273.834 3473.5H273.938M315.501 3473.5H315.605M195.709 3547.46H195.813M309.252 3514.12C300.918 3522.46 288.418 3522.46 280.085 3514.12M233.211 3484.96C221.753 3486 208.211 3491.21 190.503 3500.58C154.044 3521.42 141.544 3541.21 151.961 3558.92C198.836 3640.17 250.919 3646.42 268.628 3636C278.003 3630.79 288.419 3614.13 288.419 3587.04M222.793 3582.87C225.918 3571.42 237.377 3565.17 247.793 3568.29M357.167 3463.08C357.167 3556.83 315.501 3588.08 294.667 3588.08C273.834 3588.08 232.167 3556.83 232.167 3463.08C232.167 3442.25 253.001 3431.83 294.667 3431.83C336.334 3431.83 357.167 3442.25 357.167 3463.08Z" stroke="#F2F2F2" stroke-width="8" stroke-linecap="round" stroke-linejoin="round"/>
<path d="M1224.05 2789.56L1244.47 2815.28C1247.24 2818.85 1253.23 2821.53 1257.79 2821.43L1284.68 2820.24C1301.88 2819.5 1308.28 2830.72 1298.88 2845.25L1282.86 2869.8C1280.2 2873.87 1279.66 2880.91 1281.79 2885.46L1292.87 2909.32C1301.61 2928.13 1292.64 2938.11 1273.02 2931.37L1245.62 2922.02C1240.67 2920.29 1233.34 2921.83 1229.51 2925.4L1208.19 2945C1192.92 2958.96 1180.71 2953.54 1181.14 2932.8L1181.68 2906.51C1181.57 2901.42 1178.24 2895.2 1174.17 2892.54L1149.62 2876.52C1135.19 2867.1 1136.53 2854.26 1152.55 2847.91L1177.64 2838.17C1181.87 2836.53 1186.26 2831.57 1187.36 2827.18L1195.69 2795.41C1200.28 2778.27 1212.92 2775.61 1224.05 2789.56Z" fill="#FDBE16"/>
<path d="M1149.77 2810.41L1088.61 2823.27C1084.7 2824.09 1080.77 2821.53 1079.95 2817.62C1079.13 2813.71 1081.69 2809.78 1085.6 2808.96L1146.76 2796.1C1150.67 2795.28 1154.6 2797.84 1155.42 2801.75C1156.25 2805.66 1153.68 2809.59 1149.77 2810.41Z" fill="#FDBE16" stroke="#FDBE16"/>
<path d="M1149.19 2959.55L1118.61 2965.98C1114.7 2966.8 1110.77 2964.24 1109.95 2960.33C1109.13 2956.42 1111.69 2952.49 1115.6 2951.67L1146.18 2945.24C1150.09 2944.42 1154.02 2946.98 1154.84 2950.89C1155.66 2954.8 1153.1 2958.73 1149.19 2959.55Z" fill="#FDBE16" stroke="#FDBE16"/>
<path d="M1113.91 2892.97L1103.71 2895.11C1099.53 2895.99 1095.34 2893.26 1094.46 2889.08C1093.58 2884.9 1096.32 2880.7 1100.5 2879.82L1110.69 2877.68C1114.87 2876.8 1119.06 2879.54 1119.94 2883.72C1120.82 2887.9 1118.08 2892.09 1113.91 2892.97Z" fill="#FDBE16"/>
<path d="M360.589 1632.31L360.59 1632.31C364.376 1645.56 361.29 1659.79 352.058 1670.22L352.054 1670.22C343.024 1680.68 329.382 1685.87 315.705 1684.1L183.885 1667.05C169.698 1665.22 157.674 1656.3 151.78 1643.29C145.887 1630.29 147.186 1615.41 155.166 1603.47L177.644 1570.14C184.197 1560.48 192.836 1555.23 202.034 1555.5C211.24 1555.77 219.618 1561.25 225.701 1571.29C225.701 1571.29 225.701 1571.29 225.702 1571.29L227.598 1574.47C232.054 1581.96 238.254 1586.36 245.064 1586.59C251.754 1586.91 258.359 1583.1 263.515 1576.11L287.698 1543.42L287.698 1543.42C296.692 1531.21 307.026 1525.71 316.604 1527.46L316.604 1527.46C326.285 1529.22 333.955 1537.99 338.031 1552.51L338.031 1552.51L360.589 1632.31Z" fill="#1E7151" stroke="#1E7151"/>
<path d="M255.802 1494.41C253.344 1513.42 235.94 1526.84 216.93 1524.38C197.919 1521.93 184.5 1504.52 186.958 1485.51C189.416 1466.5 206.82 1453.08 225.83 1455.54C244.841 1458 258.26 1475.4 255.802 1494.41Z" fill="#1E7151" stroke="#1E7151"/>
<path d="M1259.12 4801.13L1243.6 4816.65L1212.35 4785.4L1227.87 4769.88C1232.25 4765.5 1237.87 4763.42 1243.5 4763.42C1249.12 4763.42 1254.75 4765.5 1259.12 4769.88C1267.77 4778.52 1267.77 4792.48 1259.12 4801.13Z" fill="#DB3B4D"/>
<path d="M1236.32 4824.04L1123.71 4936.54C1115.07 4945.19 1101.11 4945.19 1092.46 4936.54C1083.82 4927.9 1083.82 4913.94 1092.46 4905.29L1205.07 4792.79L1236.32 4824.04Z" fill="#DB3B4D"/>
<path d="M1159.65 4759.46L1163.92 4744.98C1164.34 4743.63 1163.92 4742.17 1162.98 4741.13C1162.04 4740.08 1160.38 4739.67 1159.02 4740.08L1144.54 4744.35L1130.07 4740.08C1128.71 4739.67 1127.25 4740.08 1126.21 4741.02C1125.17 4742.06 1124.86 4743.52 1125.27 4744.88L1129.44 4759.46L1125.17 4773.94C1124.75 4775.29 1125.17 4776.75 1126.11 4777.79C1127.15 4778.83 1128.61 4779.15 1129.96 4778.73L1144.54 4774.56L1159.02 4778.83C1159.44 4778.94 1159.75 4779.04 1160.17 4779.04C1161.21 4779.04 1162.15 4778.63 1162.98 4777.9C1164.02 4776.85 1164.34 4775.4 1163.92 4774.04L1159.65 4759.46Z" fill="#DB3B4D"/>
<path d="M1117.98 4821.96L1122.25 4807.48C1122.66 4806.13 1122.25 4804.67 1121.31 4803.63C1120.27 4802.58 1118.81 4802.27 1117.46 4802.69L1102.87 4806.85L1088.39 4802.58C1087.04 4802.17 1085.58 4802.58 1084.54 4803.52C1083.5 4804.56 1083.18 4806.02 1083.6 4807.38L1087.77 4821.96L1083.5 4836.44C1083.08 4837.79 1083.5 4839.25 1084.43 4840.29C1085.48 4841.33 1086.93 4841.65 1088.29 4841.23L1102.77 4836.96L1117.25 4841.23C1117.56 4841.33 1117.98 4841.33 1118.39 4841.33C1119.43 4841.33 1120.37 4840.92 1121.21 4840.19C1122.25 4839.15 1122.56 4837.69 1122.14 4836.33L1117.98 4821.96Z" fill="#DB3B4D"/>
<path d="M1274.23 4874.04L1278.5 4859.56C1278.92 4858.21 1278.5 4856.75 1277.56 4855.71C1276.52 4854.67 1275.06 4854.35 1273.71 4854.77L1259.23 4859.04L1244.75 4854.77C1243.4 4854.35 1241.94 4854.77 1240.9 4855.71C1239.86 4856.75 1239.54 4858.21 1239.96 4859.56L1244.23 4874.04L1239.96 4888.52C1239.54 4889.88 1239.96 4891.33 1240.9 4892.38C1241.94 4893.42 1243.4 4893.73 1244.75 4893.31L1259.23 4889.04L1273.71 4893.31C1274.02 4893.42 1274.44 4893.42 1274.86 4893.42C1275.9 4893.42 1276.83 4893 1277.67 4892.27C1278.71 4891.23 1279.02 4889.77 1278.61 4888.42L1274.23 4874.04Z" fill="#DB3B4D"/>
<g clip-path="url(#clip0_4601_6334)">
<path d="M1095.33 244.083C1091.91 245.151 1088.82 247.087 1086.36 249.701C1083.9 252.315 1082.16 255.519 1081.31 259.004L1073.33 291.799C1072.49 295.287 1072.57 298.933 1073.55 302.383C1074.53 305.834 1076.39 308.972 1078.94 311.494L1104.88 337.096C1107.57 339.753 1110.93 341.628 1114.6 342.521C1118.27 343.414 1122.12 343.291 1125.73 342.165L1171.77 327.845L1185.3 272.175L1142.08 229.505L1095.33 244.083Z" fill="#DB3B4D"/>
<path d="M1127.31 290.234L1086.35 249.723Z" fill="#DB3B4D"/>
<path d="M1127.31 290.234L1185.3 272.175Z" fill="#DB3B4D"/>
<path d="M1127.31 290.234L1114.59 342.566Z" fill="#DB3B4D"/>
<path d="M1185.3 272.175L1171.77 327.845L1206.1 361.704C1208.78 364.361 1212.15 366.237 1215.82 367.13C1219.49 368.023 1223.34 367.9 1226.95 366.773L1261.74 355.937C1265.17 354.868 1268.26 352.933 1270.72 350.318C1273.17 347.704 1274.91 344.5 1275.77 341.015L1283.74 308.221C1284.58 304.733 1284.51 301.087 1283.52 297.636C1282.54 294.186 1280.68 291.047 1278.13 288.525L1243.3 254.113L1185.3 272.175Z" fill="#DB3B4D"/>
<path d="M1228.53 314.844L1185.3 272.175Z" fill="#DB3B4D"/>
<path d="M1228.53 314.844L1283.52 297.66Z" fill="#DB3B4D"/>
<path d="M1228.53 314.844L1215.81 367.174Z" fill="#DB3B4D"/>
<path d="M1166.86 170.352C1163.43 171.421 1160.34 173.356 1157.88 175.971C1155.43 178.585 1153.69 181.789 1152.83 185.274L1142.08 229.505L1185.3 272.175L1243.3 254.113L1254.05 209.882C1254.89 206.394 1254.81 202.748 1253.83 199.297C1252.85 195.847 1250.99 192.709 1248.44 190.187L1222.5 164.585C1219.81 161.928 1216.45 160.052 1212.78 159.159C1209.11 158.266 1205.26 158.389 1201.65 159.515L1166.86 170.352Z" fill="#DB3B4D"/>
<path d="M1198.84 216.503L1157.87 175.991Z" fill="#DB3B4D"/>
<path d="M1198.84 216.503L1253.83 199.321Z" fill="#DB3B4D"/>
<path d="M1185.3 272.175L1198.84 216.503Z" fill="#DB3B4D"/>
<path d="M1171.77 327.845L1125.73 342.165C1122.12 343.291 1118.27 343.414 1114.6 342.521C1110.93 341.628 1107.57 339.753 1104.88 337.096L1078.94 311.494C1076.39 308.972 1074.53 305.834 1073.55 302.383C1072.57 298.933 1072.49 295.287 1073.33 291.799L1081.31 259.004C1082.16 255.519 1083.9 252.315 1086.36 249.701C1088.82 247.087 1091.91 245.151 1095.33 244.083L1142.08 229.505M1171.77 327.845L1185.3 272.175M1171.77 327.845L1206.1 361.704C1208.78 364.361 1212.15 366.237 1215.82 367.13C1219.49 368.023 1223.34 367.9 1226.95 366.773L1261.74 355.937C1265.17 354.868 1268.26 352.933 1270.72 350.318C1273.17 347.704 1274.91 344.5 1275.77 341.015L1283.74 308.221C1284.58 304.733 1284.51 301.087 1283.52 297.636C1282.54 294.186 1280.68 291.047 1278.13 288.525L1243.3 254.113M1185.3 272.175L1142.08 229.505M1185.3 272.175L1127.31 290.234M1185.3 272.175L1243.3 254.113M1185.3 272.175L1228.53 314.844M1185.3 272.175L1198.84 216.503M1142.08 229.505L1152.83 185.274C1153.69 181.789 1155.43 178.585 1157.88 175.971C1160.34 173.356 1163.43 171.421 1166.86 170.352L1201.65 159.515C1205.26 158.389 1209.11 158.266 1212.78 159.159C1216.45 160.052 1219.81 161.928 1222.5 164.585L1248.44 190.187C1250.99 192.709 1252.85 195.847 1253.83 199.297C1254.81 202.748 1254.89 206.394 1254.05 209.882L1243.3 254.113M1127.31 290.234L1086.35 249.723M1127.31 290.234L1114.59 342.566M1228.53 314.844L1283.52 297.66M1228.53 314.844L1215.81 367.174M1198.84 216.503L1157.87 175.991M1198.84 216.503L1253.83 199.321" stroke="#F2F2F2" stroke-width="6" stroke-linecap="round" stroke-linejoin="round"/>
</g>
<path d="M-221 1C-181.12 368.87 1416.06 172.381 1416.06 798.721C1416.06 1551.13 241.275 731.115 102.9 1408.74C-50.2243 2158.59 1416.06 2301.91 1338.99 2880.04C1292.2 3230.95 69.8556 3342.92 30.8946 3907.02C-21.1091 4659.95 1338.99 4679.37 1527 5154" stroke="#D9D9D9" stroke-width="4" stroke-dasharray="14 14"/>
<defs>
<clipPath id="clip0_4601_6334">
<rect width="250" height="250" fill="white" transform="translate(1097.06 106) rotate(13.6648)"/>
</clipPath>
</defs>
</svg>
