<svg width="65" height="64" viewBox="0 0 65 64" fill="none" xmlns="http://www.w3.org/2000/svg">
<path d="M32.1543 64C49.8274 64 64.1538 49.6731 64.1533 32C64.1528 14.3269 49.8254 0 32.1523 0C14.4792 0 0.152774 14.3269 0.153306 32C0.153837 49.6731 14.4812 64 32.1543 64Z" fill="#202020"/>
<path d="M25.283 31.7972C20.4039 30.7488 15.5252 29.7005 10.6467 28.6523C9.99615 28.5125 9.53278 28.1635 9.30795 27.5259C9.03684 26.744 9.55337 25.7502 10.3632 25.5738C10.6691 25.5136 10.9832 25.5071 11.2913 25.5545C11.7646 25.6202 12.2284 25.7506 12.6984 25.8437C13.111 25.9262 13.3045 25.7983 13.3939 25.3863C13.7079 23.9414 14.0186 22.4953 14.3261 21.0479C14.4181 20.6197 14.663 20.3219 15.0873 20.2111C15.2609 20.1749 15.4403 20.176 15.6135 20.2144C16.1268 20.3106 16.6343 20.4337 17.1462 20.5367C17.821 20.6659 18.0894 21.305 17.9693 21.8395C17.6541 23.241 17.3708 24.6494 17.0558 26.0501C16.9344 26.5861 17.1099 26.7995 17.6178 26.9086C24.7828 28.4411 31.9466 29.9789 39.1092 31.5221C39.6264 31.6332 40.1435 31.7443 40.6606 31.8554C41.098 31.9494 41.3203 31.8013 41.418 31.363C41.6772 30.1979 41.8839 29.019 42.2036 27.8704C42.6624 26.2257 43.7587 25.1536 45.4174 24.7258C46.2902 24.5002 47.2138 24.5791 48.0357 24.9493C49.3082 25.5012 50.0966 26.4671 50.4964 27.7615C50.7172 28.4755 50.6931 29.2089 50.5647 29.9454C50.5302 30.1426 50.4806 30.3366 50.4434 30.5341C50.3758 30.8981 50.5193 31.1292 50.8834 31.2127C51.392 31.3307 51.9042 31.432 52.4127 31.5465C53.8331 31.8517 54.8843 32.6528 55.5433 33.9432C56.0729 34.9809 56.1408 36.0669 55.79 37.1806C55.4514 38.2496 54.7729 39.0532 53.8267 39.6227C52.8381 40.2139 51.7644 40.3309 50.6457 40.1011C50.142 39.9929 49.6384 39.8847 49.1347 39.7764C48.5521 39.6512 48.3911 39.7589 48.2611 40.3352C48.1992 40.6444 48.1203 40.95 48.0249 41.2505C47.5352 42.6752 46.587 43.6509 45.149 44.1306C44.1291 44.4709 43.1177 44.3712 42.1577 43.9551C41.0706 43.4843 40.3649 42.6161 39.9423 41.5215C39.6085 40.6593 39.5991 39.7712 39.801 38.8722C40.0303 37.8544 40.2261 36.8286 40.4677 35.8143C40.5877 35.3132 40.4634 35.0537 39.8916 34.9317C35.0232 33.8962 30.1537 32.8514 25.283 31.7972ZM48.1713 35.1537C48.4764 33.9581 47.6673 32.8068 46.5325 32.5621C45.3522 32.3085 44.1938 32.9993 43.9305 34.2328C43.6672 35.4664 44.4254 36.5567 45.5966 36.8197C46.7485 37.0787 47.9494 36.354 48.1713 35.1537Z" fill="white"/>
</svg>
