<svg width="65" height="65" viewBox="0 0 65 65" fill="none" xmlns="http://www.w3.org/2000/svg">
<path d="M32.1543 64.1562C49.8274 64.1562 64.1538 49.8294 64.1533 32.1562C64.1528 14.4831 49.8255 0.15625 32.1523 0.15625C14.4792 0.15625 0.152774 14.4831 0.153306 32.1562C0.153837 49.8294 14.4812 64.1562 32.1543 64.1562Z" fill="#202020"/>
<path d="M11.3137 28.2698C11.7205 28.358 12.1406 28.3933 12.5549 28.4491C14.2489 28.6799 15.9459 28.8901 17.6354 29.1518C18.5231 29.2915 19.4522 29.4223 20.2867 29.7502C22.4304 30.5896 23.8611 32.1596 24.4292 34.3883C24.7251 35.579 24.8464 36.8183 25.021 38.0399C25.2355 39.51 25.4206 40.9963 25.6395 42.4708C25.6632 42.6281 25.8289 42.7648 25.9902 43C26.1648 42.7854 26.3023 42.6781 26.3496 42.5414C26.3948 42.3508 26.4211 42.1563 26.4281 41.9606C26.6633 40.2406 26.8718 38.5177 27.1426 36.8021C27.2905 35.8025 27.4001 34.7705 27.7433 33.8311C28.6902 31.2482 30.6179 29.7384 33.3372 29.2974C35.2916 28.9813 37.2624 28.7681 39.2256 28.5035C39.7242 28.4359 40.2256 28.3668 40.7168 28.2536C40.7889 28.2216 40.8523 28.1729 40.9015 28.1115C40.9506 28.0501 40.9842 27.9778 40.9994 27.9008C41.0113 27.8096 40.8382 27.6288 40.7184 27.6068C40.3817 27.5369 40.0413 27.4848 39.699 27.4509C37.9936 27.2187 36.2873 26.9864 34.58 26.7541C33.5695 26.6145 32.5458 26.5277 31.6004 26.1029C29.0364 24.9503 27.6367 22.951 27.2905 20.2005C27.0686 18.4364 26.8556 16.6561 26.6337 14.8847C26.5701 14.3745 26.5108 13.8556 26.4028 13.3631C26.3732 13.2161 26.1781 13.1205 26.0582 13C25.9337 13.1118 25.8193 13.2343 25.7164 13.3661C25.6715 13.467 25.6488 13.5762 25.6498 13.6866C25.5728 14.2746 25.5018 14.8758 25.4219 15.4697C25.1956 17.1177 24.9559 18.7627 24.7369 20.4107C24.5451 22.0531 23.7835 23.5777 22.5829 24.7225C21.1818 26.075 19.4345 26.5454 17.5615 26.76C15.8379 26.9585 14.1216 27.2157 12.4025 27.4465C12.0238 27.4824 11.6474 27.5394 11.2751 27.6171C11.2029 27.648 11.1399 27.6965 11.0917 27.7582C11.0436 27.8199 11.0121 27.8927 11 27.9699C11.0015 28.0713 11.185 28.2418 11.3137 28.2698Z" fill="white"/>
<path d="M33.2091 42.6709C33.4804 42.7267 33.7604 42.7491 34.0366 42.7844C35.1659 42.9306 36.2972 43.0638 37.4236 43.2295C38.0154 43.3179 38.6348 43.4008 39.1911 43.6084C40.6203 44.1401 41.5741 45.1344 41.9528 46.5459C42.1501 47.3001 42.2309 48.0849 42.3473 48.8586C42.4903 49.7897 42.6137 50.731 42.7597 51.6648C42.7755 51.7645 42.8859 51.851 42.9935 52C43.1098 51.8641 43.2015 51.7961 43.2331 51.7095C43.2632 51.5888 43.2807 51.4656 43.2854 51.3417C43.4422 50.2524 43.5812 49.1612 43.7617 48.0747C43.8603 47.4416 43.9334 46.788 44.1622 46.193C44.7935 44.5572 46.0786 43.601 47.8914 43.3217C49.1944 43.1215 50.5082 42.9865 51.8171 42.8189C52.1495 42.7761 52.4838 42.7323 52.8112 42.6606C52.8593 42.6403 52.9015 42.6095 52.9343 42.5706C52.9671 42.5317 52.9895 42.4859 52.9996 42.4372C53.0075 42.3794 52.8922 42.2649 52.8123 42.251C52.5878 42.2067 52.3609 42.1737 52.1326 42.1523C50.9957 42.0051 49.8582 41.858 48.72 41.7109C48.0463 41.6225 47.3638 41.5676 46.7336 41.2985C45.0243 40.5685 44.0911 39.3023 43.8603 37.5603C43.7124 36.4431 43.5704 35.3155 43.4225 34.1936C43.3801 33.8705 43.3405 33.5419 43.2685 33.23C43.2488 33.1369 43.1187 33.0763 43.0388 33C42.9558 33.0708 42.8795 33.1484 42.8109 33.2319C42.781 33.2958 42.7658 33.3649 42.7665 33.4348C42.7152 33.8072 42.6679 34.188 42.6146 34.5642C42.4637 35.6079 42.3039 36.6497 42.158 37.6935C42.0301 38.7336 41.5223 39.6992 40.7219 40.4242C39.7879 41.2808 38.623 41.5787 37.3743 41.7147C36.2252 41.8404 35.0811 42.0033 33.935 42.1495C33.6825 42.1722 33.4316 42.2083 33.1834 42.2575C33.1353 42.277 33.0932 42.3078 33.0612 42.3469C33.0291 42.386 33.0081 42.4321 33 42.4809C33.001 42.5452 33.1233 42.6532 33.2091 42.6709Z" fill="white"/>
</svg>
