<svg width="60" height="55" viewBox="0 0 60 55" fill="none" xmlns="http://www.w3.org/2000/svg">
<path d="M20.9826 17.2586C20.7461 17.4415 20.5192 17.6356 20.2967 17.8341C19.9288 18.1621 19.584 18.5137 19.2631 18.8842C18.9126 19.2888 18.5889 19.714 18.3082 20.1662C18.0435 20.5926 17.8179 21.0398 17.6137 21.4954C17.5205 21.7034 17.4392 21.9158 17.3551 22.1272C17.2812 22.3138 17.2071 22.5005 17.133 22.687C17.0781 22.825 17.0398 22.9714 16.9942 23.1123C16.9367 23.2897 16.8792 23.4673 16.8216 23.6448C16.7516 23.8594 16.7025 24.083 16.6518 24.3022C16.5921 24.561 16.5467 24.8222 16.5064 25.084C16.4204 25.6432 16.3648 26.2033 16.3079 26.7658C16.2731 27.1083 16.2584 27.4532 16.2359 27.7966C16.193 28.4489 16.1646 29.1022 16.1436 29.7558C16.1372 29.9567 16.1306 30.1577 16.1241 30.3587C16.119 30.528 16.1215 30.698 16.1234 30.8674C16.127 31.1845 16.1657 31.4944 16.2103 31.8084C16.2794 32.2949 16.4236 32.7596 16.6166 33.2128C16.8293 33.7122 17.0666 34.1954 17.3634 34.6542C17.6533 35.1022 17.9919 35.5219 18.3482 35.9226C18.6725 36.2869 19.0334 36.615 19.4227 36.9149C19.8619 37.2536 20.3209 37.5632 20.8111 37.8302C21.2545 38.0719 21.7162 38.2866 22.1852 38.478C22.7986 38.7285 23.4206 38.95 24.0503 39.1569C24.3723 39.2626 24.6924 39.3783 25.0183 39.4723C25.4526 39.5978 25.8871 39.7235 26.3213 39.8492C27.1557 40.0903 28.014 40.2573 28.8822 40.3339C29.4015 40.3797 29.9243 40.3511 30.4412 40.2934C31.0142 40.2296 31.5789 40.1339 32.1397 40.0046C33.1468 39.7725 34.1371 39.4732 35.0974 39.0995C36.0966 38.7108 37.0441 38.2256 37.9321 37.6381C38.8164 37.0533 39.642 36.3822 40.3852 35.638C40.7382 35.2846 41.0793 34.9174 41.4009 34.5372C41.7438 34.1315 42.0741 33.7051 42.3314 33.2433C42.8678 32.2807 43.161 31.2101 43.2177 30.1219C43.247 29.562 43.1854 29.0097 43.1033 28.4562C43.0298 27.9593 42.9286 27.4677 42.8052 26.9802C42.68 26.4868 42.5373 25.9966 42.3639 25.5166C42.1855 25.0232 41.9803 24.5319 41.7206 24.0725C41.4619 23.6155 41.1384 23.1924 40.7512 22.8288C40.3701 22.4705 39.9296 22.1648 39.4739 21.9008C38.5562 21.3692 37.5591 20.9613 36.5306 20.6754C36.0219 20.534 35.505 20.4268 34.9832 20.3404C34.4211 20.2474 33.8547 20.1786 33.2846 20.1528C33.0254 20.1411 32.7659 20.1413 32.5068 20.1544C32.1879 20.1707 31.8707 20.2138 31.5551 20.2585C31.0307 20.3324 30.5085 20.4315 29.9991 20.5728C29.4684 20.7203 28.954 20.9235 28.4555 21.1507C27.9934 21.3612 27.5529 21.6167 27.1443 21.912C26.7066 22.2288 26.3106 22.5829 25.9589 22.9868C25.6055 23.3925 25.2913 23.8338 25.0202 24.2939C24.7548 24.7446 24.5379 25.2291 24.3772 25.7235C24.2127 26.2302 24.1209 26.7681 24.0846 27.2968C24.0477 27.8358 24.1125 28.3903 24.2562 28.9119C24.3286 29.1743 24.4424 29.4276 24.5625 29.6728C24.6701 29.8922 24.802 30.1001 24.9442 30.3003C25.1011 30.5211 25.276 30.7338 25.4694 30.9263C25.6751 31.1308 25.9152 31.3093 26.1601 31.4682C26.3905 31.6178 26.6545 31.7194 26.912 31.8162C27.1462 31.9041 27.3907 31.9658 27.6359 32.0179C28.1808 32.134 28.7491 32.1661 29.3057 32.1692C29.8727 32.1725 30.4427 32.1064 31.0023 32.0241C31.5205 31.9477 32.0272 31.8242 32.5369 31.7087C32.922 31.6211 33.3003 31.4982 33.6682 31.3596C33.9414 31.2566 34.2124 31.1453 34.4706 31.0109C34.7482 30.8665 35.0019 30.6929 35.2507 30.5068C35.6827 30.1837 36.0472 29.7849 36.3516 29.3484C36.5112 29.1198 36.6227 28.865 36.728 28.6102C36.8432 28.3312 36.8902 28.0339 36.9201 27.7368C36.9314 27.624 36.9252 27.5113 36.9114 27.3992C36.8904 27.2296 36.8655 27.0656 36.8182 26.9012C36.7724 26.7431 36.6981 26.5905 36.6286 26.4416C36.573 26.3223 36.5021 26.2095 36.4272 26.1007C36.1024 25.628 35.671 25.2204 35.1688 24.924C34.9605 24.8009 34.7281 24.7079 34.4967 24.634C34.2536 24.5563 33.9942 24.5299 33.7414 24.4996C33.2476 24.4401 32.7481 24.5154 32.2603 24.5892C31.8362 24.6534 31.4173 24.7684 31.0082 24.8914C30.5383 25.0323 30.0765 25.2119 29.6354 25.4211C29.2026 25.6263 28.8067 25.916 28.436 26.2097C28.2428 26.3628 28.0563 26.5237 27.8688 26.6831C27.7625 26.773 27.6605 26.8667 27.5578 26.9603C27.3992 27.1046 27.2666 27.267 27.1347 27.4341C27.0615 27.5549 27.0248 27.6854 27.0246 27.8251C27.0246 28.0299 27.1103 28.2284 27.261 28.3732C27.4115 28.5179 27.6183 28.6002 27.8316 28.6002C28.0335 28.6002 28.2651 28.5221 28.4021 28.3732C28.5558 28.2061 28.7406 28.0668 28.919 27.9252C29.0986 27.7826 29.283 27.6451 29.4671 27.5078C29.8694 27.2152 30.2967 26.9646 30.7567 26.7668C31.4426 26.5008 32.1597 26.2959 32.8914 26.1879C33.1606 26.1594 33.4272 26.1512 33.6968 26.1744C33.8361 26.1982 33.973 26.2305 34.1067 26.2752C34.2351 26.3357 34.3576 26.406 34.4748 26.4848C34.6298 26.6123 34.7722 26.7536 34.903 26.9038C34.9875 27.0184 35.0628 27.1381 35.1272 27.2639C35.1581 27.3496 35.1828 27.4364 35.2023 27.5251C35.2068 27.6026 35.2061 27.6798 35.2004 27.7577C35.1711 27.9041 35.1289 28.0467 35.0751 28.1869C34.9845 28.3699 34.8764 28.5415 34.7527 28.7059C34.5595 28.932 34.3462 29.1394 34.111 29.325C33.8176 29.5288 33.5034 29.6984 33.1729 29.8401C32.7107 30.0175 32.2372 30.1513 31.7546 30.2674C31.5769 30.3101 31.3993 30.3529 31.2218 30.3956C30.9409 30.4634 30.6522 30.5107 30.3652 30.5509C29.6688 30.633 28.9638 30.6573 28.2656 30.5812C27.9287 30.5298 27.5962 30.4492 27.2778 30.3319C27.1122 30.2572 26.9568 30.1695 26.8082 30.0676C26.6303 29.9247 26.4686 29.7685 26.3211 29.5965C26.1327 29.3492 25.9685 29.086 25.8353 28.8072C25.7351 28.5548 25.6666 28.2944 25.6209 28.028C25.5823 27.6758 25.5874 27.3226 25.6284 26.9706C25.7039 26.4972 25.8313 26.0364 26.0164 25.5913C26.2648 25.0532 26.583 24.5465 26.95 24.0754C27.2489 23.7167 27.5854 23.3876 27.958 23.0996C28.4674 22.7369 29.0224 22.4449 29.6032 22.2019C30.396 21.8937 31.2286 21.7054 32.0739 21.5879C32.7908 21.5059 33.5111 21.5279 34.2271 21.6131C35.3142 21.7617 36.3869 22.0114 37.4043 22.4111C37.7418 22.5522 38.0709 22.7091 38.3936 22.8798C38.7107 23.0478 39.0208 23.2285 39.3121 23.4352C39.5878 23.6484 39.8458 23.8816 40.0702 24.1448C40.3183 24.4735 40.5196 24.8327 40.6892 25.2043C40.929 25.7713 41.1163 26.3555 41.2746 26.9483C41.4332 27.5429 41.56 28.1427 41.6504 28.7504C41.6888 29.0441 41.7158 29.3383 41.7206 29.6345C41.7255 29.9294 41.7083 30.2249 41.6733 30.518C41.5924 31.0245 41.4489 31.5181 41.2498 31.9934C41.1473 32.2153 41.0337 32.4322 40.9042 32.6409C40.7698 32.8573 40.6151 33.0624 40.4565 33.2632C40.0712 33.73 39.6422 34.1673 39.2064 34.5903C38.7682 35.0152 38.2997 35.4122 37.81 35.7818C36.888 36.4532 35.8875 37.0275 34.8253 37.4693C34.1545 37.7336 33.465 37.9572 32.7689 38.1504C32.0486 38.3502 31.3152 38.5249 30.5726 38.6298C30.2602 38.6669 29.947 38.6927 29.632 38.7014C29.3093 38.7103 28.988 38.6914 28.6678 38.6553C27.9994 38.5597 27.3432 38.4046 26.697 38.2154C26.2831 38.0941 25.8699 37.9726 25.456 37.8516C25.1386 37.7585 24.8266 37.6446 24.513 37.5409C23.9942 37.3693 23.4794 37.1915 22.9721 36.9908C22.1563 36.6516 21.3702 36.2449 20.6574 35.7333C20.4049 35.5403 20.1629 35.336 19.9352 35.116C19.6966 34.8852 19.4771 34.6364 19.2665 34.3816C18.8544 33.8535 18.5141 33.2845 18.2378 32.6803C18.1526 32.4776 18.0754 32.2724 18.0123 32.0622C17.9463 31.8425 17.8992 31.618 17.8633 31.3919C17.7975 30.8189 17.8259 30.2392 17.8391 29.6641C17.8465 29.3394 17.8578 29.0152 17.8709 28.6908C17.8975 28.0261 17.9176 27.3596 17.9752 26.6969C18.0146 26.2418 18.052 25.7883 18.111 25.3354C18.1783 24.8819 18.2643 24.4268 18.3966 23.9869C18.4783 23.7158 18.56 23.4448 18.6417 23.1737C18.6954 22.9957 18.7676 22.8228 18.8328 22.6483C18.9234 22.4056 19.0109 22.1623 19.1115 21.9235C19.276 21.5593 19.4573 21.203 19.659 20.8567C19.8605 20.5113 20.0906 20.1829 20.3389 19.8675C20.5922 19.56 20.8628 19.2661 21.1484 18.9859C21.3887 18.7498 21.6385 18.5166 21.9017 18.304C22.1699 18.0873 22.4382 17.871 22.7061 17.6544C22.9226 17.4991 23.1392 17.344 23.3557 17.1887C23.5743 17.032 23.8087 16.8952 24.0363 16.751C24.2528 16.6139 24.4753 16.492 24.7005 16.3685C25.1191 16.1386 25.5407 15.9185 25.9823 15.732C26.587 15.4952 27.2116 15.3205 27.8575 15.2268C28.2431 15.1839 28.6356 15.173 29.0223 15.2124C29.1348 15.2309 29.2437 15.2551 29.351 15.2916C29.4718 15.345 29.5904 15.4024 29.707 15.4632C30.0137 15.6229 30.4022 15.5384 30.5824 15.2427C30.7542 14.9609 30.6592 14.5615 30.3531 14.4019C30.1262 14.2838 29.8916 14.1754 29.6492 14.0897C29.5399 14.051 29.4214 14.0338 29.3068 14.0163C29.1293 13.9893 28.9508 13.9702 28.7712 13.9606C28.6772 13.9555 28.5833 13.9531 28.4893 13.9531C28.0301 13.9531 27.5701 14.0107 27.1201 14.0922C26.6144 14.184 26.126 14.3271 25.6458 14.5036C25.2253 14.6578 24.8049 14.8368 24.409 15.0433C24.2056 15.1492 24.0021 15.2555 23.7987 15.3615C23.6888 15.4187 23.5794 15.4741 23.4737 15.5377C23.1669 15.7226 22.8551 15.9002 22.56 16.1019C22.2266 16.3299 21.8924 16.5542 21.5738 16.8006C21.3772 16.9535 21.1798 17.1061 20.9826 17.2586Z" fill="#FDBE16"/>
<path d="M35.9686 13.2667C36.3295 12.9063 36.6936 12.5498 37.0602 12.195C37.2332 12.0277 37.406 11.8603 37.579 11.6932C37.6351 11.6385 37.6902 11.5822 37.7495 11.5308C38.3233 11.0339 38.896 10.5354 39.4715 10.0398C39.6987 9.84385 39.9388 9.66024 40.1721 9.471C40.4372 9.25579 40.7025 9.0404 40.9677 8.82501C41.0248 8.7787 41.0819 8.73257 41.1394 8.68662C41.371 8.74201 41.6308 8.69062 41.7973 8.51373C41.9043 8.40041 42.0106 8.28599 42.1134 8.16921C42.3312 7.92222 42.5526 7.6785 42.7358 7.40627C42.9124 7.14402 42.8457 6.77445 42.6222 6.55996C42.4864 6.42957 42.3002 6.35547 42.1083 6.35547C42.0437 6.36364 41.9792 6.37199 41.9149 6.38035C41.7918 6.4134 41.6848 6.47315 41.5943 6.55996C41.298 6.7946 41.0133 7.04178 40.7238 7.28423C40.4629 7.50288 40.2028 7.72191 39.9413 7.93984C39.4087 8.38333 38.8682 8.8192 38.347 9.27486C38.0263 9.5549 37.7058 9.83477 37.3854 10.1148C37.2396 10.2419 37.0942 10.3691 36.9487 10.496C36.8906 10.5465 36.8296 10.5952 36.7745 10.6486C36.1879 11.2161 35.6016 11.7836 35.0244 12.3599C34.7724 12.6118 34.7635 13.0162 35.0244 13.2668C35.2779 13.5104 35.716 13.5186 35.9686 13.2667Z" fill="#FDBE16"/>
<path d="M44.9187 18.8264C45.0945 18.9252 45.3484 18.9742 45.5456 18.9052C47.1935 18.3286 48.8396 17.748 50.4852 17.1654C50.7104 17.0858 50.9359 17.0066 51.1615 16.9278C51.3464 16.8634 51.5315 16.7985 51.7167 16.7339C51.8275 16.6952 51.9379 16.6554 52.0484 16.6156C52.1453 16.5806 52.2431 16.5474 52.3414 16.5161C52.3607 16.5101 52.3798 16.5034 52.3991 16.4967C52.4272 16.4994 52.455 16.5009 52.4821 16.5009C52.7033 16.5009 52.9177 16.4155 53.0742 16.2655C53.3996 15.9528 53.3926 15.4417 53.0742 15.1282C53.0116 15.0667 52.9377 15.0166 52.863 14.9688C52.7237 14.8793 52.5624 14.8678 52.4011 14.8567C52.3881 14.8558 52.3752 14.8555 52.3624 14.8555C52.2185 14.8555 52.0898 14.91 51.9584 14.9568C51.7426 15.0334 51.5273 15.111 51.3122 15.1889C51.1259 15.2565 50.9397 15.3235 50.7533 15.3905C50.4695 15.4929 50.1859 15.5953 49.9018 15.6972C49.2304 15.9388 48.559 16.18 47.8864 16.4186C46.9622 16.746 46.0381 17.0731 45.113 17.3977C44.9073 17.4699 44.7402 17.5704 44.6266 17.7571C44.5165 17.9378 44.4867 18.1575 44.5445 18.3593C44.6005 18.5545 44.7366 18.7241 44.9187 18.8264Z" fill="#FDBE16"/>
<path d="M59.6668 25.6151C59.5611 25.5563 59.4475 25.5267 59.3252 25.5263C59.2441 25.5189 59.1628 25.5156 59.0815 25.5156C58.7882 25.5156 58.4941 25.5572 58.204 25.5899C57.8497 25.6299 57.4952 25.6649 57.1402 25.6969C56.4409 25.7599 55.7408 25.8136 55.0407 25.868C54.2687 25.9279 53.4975 25.9922 52.7264 26.0583C52.4367 26.0832 52.1471 26.1071 51.8574 26.1309C51.6389 26.1487 51.42 26.1667 51.2014 26.1847C50.97 26.2037 50.7371 26.2041 50.5043 26.2023C50.3782 26.0917 50.1982 26.0372 50.0304 26.0915C49.926 26.1253 49.8307 26.164 49.7515 26.2399C49.6596 26.3283 49.6157 26.4415 49.5811 26.5588C49.4904 26.8663 49.7434 27.1752 50.0718 27.1772C50.4476 27.1797 50.8259 27.2004 51.2016 27.1779C51.4309 27.1643 51.6603 27.1505 51.8896 27.1367C52.1959 27.1185 52.502 27.1 52.808 27.0806C53.2183 27.0544 53.6288 27.0288 54.039 27.0025C54.4338 26.977 54.8297 26.9636 55.225 26.9444C55.8956 26.9113 56.567 26.8904 57.2383 26.8703C57.5652 26.8606 57.8921 26.8528 58.2188 26.8452C58.4033 26.8408 58.5876 26.8365 58.7722 26.8305C58.9563 26.8243 59.141 26.8176 59.3254 26.827C59.4995 26.8359 59.6832 26.7526 59.8041 26.6365C59.9304 26.515 60.0022 26.3485 60.0022 26.1769C60.0022 26.0051 59.9304 25.8385 59.8041 25.717C59.7581 25.6829 59.7124 25.6489 59.6668 25.6151Z" fill="#FDBE16"/>
<path d="M55.1009 38.3221C55.0249 38.199 54.9226 38.1006 54.7941 38.0277C54.4744 37.8111 54.1129 37.6607 53.7597 37.5025C53.4532 37.3654 53.1458 37.2303 52.8377 37.0961C52.1786 36.8093 51.5203 36.52 50.8627 36.2294C50.2422 35.9554 49.6217 35.6806 49.0018 35.4053C48.9313 35.3768 48.8604 35.3481 48.7899 35.3196C48.7114 35.2992 48.6327 35.2891 48.5543 35.2891C48.4756 35.2891 48.3972 35.2992 48.3187 35.3196C48.0971 35.3782 47.9049 35.5204 47.7888 35.7109C47.6689 35.9078 47.6364 36.1474 47.6995 36.3673C47.7557 36.5629 47.9081 36.7879 48.107 36.8763C49.6412 37.5572 51.1788 38.231 52.7153 38.9067C53.1209 39.0849 53.5338 39.2525 53.9314 39.446C54.1412 39.548 54.3585 39.5901 54.5902 39.5288C54.8039 39.4721 54.9894 39.3348 55.1013 39.1512C55.2168 38.9614 55.2484 38.7306 55.1875 38.5183C55.1584 38.4531 55.1296 38.3877 55.1009 38.3221Z" fill="#FDBE16"/>
<path d="M38.4548 45.5636C38.5225 45.6987 38.6119 45.8266 38.6898 45.9564C38.7769 46.1021 38.8586 46.2532 38.953 46.3949C39.066 46.5647 39.1798 46.7341 39.2931 46.9037C39.4992 47.2123 39.713 47.5156 39.9213 47.8225C40.1365 48.1394 40.3554 48.4616 40.5114 48.8099C40.5768 48.9162 40.6647 49.0006 40.7753 49.0634C40.9455 49.159 41.1527 49.1849 41.3425 49.1346C41.5265 49.0861 41.686 48.9677 41.7825 48.8099C41.8766 48.6552 41.919 48.4387 41.8566 48.2651C41.7724 48.0312 41.6673 47.806 41.548 47.5869C41.4646 47.4337 41.3556 47.2927 41.2529 47.1514C41.0495 46.8712 40.8334 46.5984 40.6246 46.3218C40.5112 46.1718 40.4076 46.0144 40.2993 45.8611C40.225 45.7559 40.1554 45.6513 40.0875 45.5422C39.9656 45.3455 39.8436 45.1486 39.7217 44.952C39.6599 44.8524 39.6096 44.7471 39.5564 44.6429C39.4364 44.4084 39.3165 44.1738 39.1963 43.9391C38.9499 43.362 38.7025 42.7857 38.4631 42.2058C38.4395 42.1521 38.4158 42.0983 38.3922 42.0447C38.3298 41.9434 38.2457 41.8629 38.1402 41.8028C38.0322 41.7422 37.9086 41.7109 37.7844 41.7109C37.722 41.7109 37.6594 41.7187 37.5987 41.7349C37.4233 41.7814 37.2711 41.894 37.179 42.0449C37.0926 42.1871 37.0425 42.4052 37.1083 42.5649C37.3079 43.049 37.5116 43.5314 37.7169 44.0134C37.777 44.1541 37.8369 44.2949 37.8971 44.4358C37.9831 44.638 38.0861 44.8326 38.1852 45.029C38.2754 45.2073 38.365 45.3855 38.4548 45.5636Z" fill="#FDBE16"/>
<path d="M30.4839 46.6252C30.5673 46.5925 30.6384 46.5337 30.6841 46.4587C30.7395 46.3677 30.7547 46.2565 30.7255 46.1548C30.7117 46.1232 30.6978 46.092 30.6841 46.0604C30.6475 46.0012 30.5985 45.9542 30.5367 45.9189C30.4455 45.8515 30.3435 45.8347 30.2332 45.819C30.1967 45.8143 30.1604 45.8094 30.124 45.8047C30.0498 45.8049 29.9805 45.8228 29.9164 45.8586C29.8545 45.8939 29.8056 45.9409 29.7689 46.0003C29.7317 46.0618 29.7129 46.1285 29.7127 46.1997C29.685 46.4469 29.6471 46.6928 29.6192 46.9399C29.5895 47.2053 29.5861 47.4721 29.5927 47.7387C29.6048 48.2103 29.6589 48.6798 29.6834 49.151C29.7044 49.5549 29.726 49.9587 29.7475 50.3626C29.7818 51.0075 29.8145 51.6527 29.8517 52.2973C29.8723 52.6549 29.8914 53.0125 29.9097 53.37C29.9177 53.5262 29.93 53.6822 29.9419 53.8382C29.9498 53.945 29.9657 54.0504 29.9816 54.1562C30.0033 54.3042 30.0256 54.4461 30.0827 54.5865C30.1024 54.6313 30.1223 54.6762 30.1419 54.721C30.1941 54.8055 30.264 54.8731 30.352 54.9232C30.4875 54.9993 30.6524 55.02 30.8038 54.9798C30.9503 54.9412 31.0776 54.8471 31.1543 54.721C31.174 54.6762 31.1937 54.6313 31.2133 54.5865C31.2413 54.4866 31.2413 54.3869 31.2133 54.287C31.17 54.186 31.1402 54.0829 31.1178 53.9761C31.104 53.9091 31.0863 53.8415 31.0763 53.7738C31.0558 53.6394 31.0354 53.5048 31.0154 53.3704C30.9318 52.7604 30.8482 52.15 30.7842 51.5378C30.7038 50.7688 30.631 50.0001 30.5605 49.2304C30.5225 48.8149 30.4807 48.3997 30.4499 47.984C30.4285 47.6983 30.4176 47.4116 30.434 47.1254C30.4433 46.9583 30.4629 46.7917 30.4839 46.6252Z" fill="#FDBE16"/>
<path d="M20.4105 46.1754C20.4124 46.1765 20.4143 46.1776 20.416 46.1786C20.5281 46.2417 20.71 46.2126 20.7686 46.09C20.8289 45.9638 20.8879 45.837 20.9526 45.713C21.031 45.563 21.1278 45.4195 21.1957 45.2651C21.2273 45.2128 21.243 45.1567 21.2432 45.0962C21.243 45.036 21.2273 44.9797 21.1957 44.9274C21.1647 44.877 21.1231 44.8371 21.0708 44.8073C21.0163 44.777 20.9579 44.7617 20.8951 44.7617C20.7891 44.775 20.6603 44.7741 20.5688 44.8355C20.4881 44.8896 20.4107 44.9479 20.3395 45.0129C20.2024 45.1373 20.0931 45.2913 19.9797 45.4362C19.5634 45.9478 19.1673 46.4732 18.7892 47.0119C18.5169 47.4 18.2449 47.7881 17.9724 48.176C17.82 48.393 17.6733 48.6137 17.5255 48.834C17.3279 49.1282 17.1281 49.4209 16.9333 49.717C16.7409 50.0092 16.5486 50.3016 16.3561 50.594C16.2779 50.7126 16.2 50.8313 16.1219 50.9501C16.0778 51.0177 16.0334 51.0852 15.989 51.1526C15.8755 51.3253 15.7362 51.4929 15.7056 51.702C15.6763 51.8064 15.6763 51.911 15.7056 52.0152C15.7477 52.1625 15.8502 52.2906 15.9875 52.3676C16.2302 52.5038 16.5303 52.458 16.7307 52.2755C16.8199 52.1941 16.9016 52.1108 16.9781 52.0187C17.0105 51.9786 17.043 51.9384 17.0753 51.8981C17.1315 51.8049 17.1596 51.7047 17.16 51.597C17.16 51.5447 17.1526 51.4929 17.1388 51.443C17.1619 51.3989 17.1852 51.3547 17.2084 51.3104C17.2676 51.1973 17.3285 51.0856 17.3912 50.9743C17.5544 50.6855 17.7119 50.3927 17.8837 50.1085C18.1172 49.7231 18.3504 49.3376 18.5837 48.9524C18.7215 48.725 18.8684 48.5031 19.0126 48.2797C19.2287 47.9454 19.4446 47.6106 19.6609 47.2761C19.8135 47.0398 19.9719 46.8067 20.1304 46.574C20.2219 46.44 20.3151 46.307 20.4105 46.1754Z" fill="#FDBE16"/>
<path d="M9.60647 45.6225C9.62103 45.5713 9.62953 45.5188 9.63199 45.4664C10.009 45.1707 10.3863 44.8752 10.763 44.5792C11.2288 44.2131 11.695 43.85 12.1705 43.4953C12.8432 42.9937 13.5157 42.4919 14.1884 41.9902C14.5561 41.7219 14.9278 41.4589 15.2974 41.1934C15.3535 41.1518 15.4097 41.1099 15.466 41.0683C15.5693 40.9684 15.6405 40.8509 15.6802 40.7156C15.7392 40.5091 15.7088 40.2841 15.5963 40.0992C15.4872 39.9205 15.3067 39.7867 15.0987 39.7318C15.025 39.7222 14.9512 39.7129 14.8775 39.7031C14.7272 39.7037 14.5871 39.7402 14.4572 39.8123C13.9505 40.176 13.4421 40.5373 12.9421 40.9097C12.5778 41.1809 12.2138 41.4519 11.8495 41.723C11.3311 42.1089 10.8045 42.4865 10.2962 42.8844C9.64409 43.3947 8.99164 43.9051 8.33919 44.4156C7.81889 44.8227 7.29841 45.2303 6.78719 45.648C6.65484 45.7562 6.5225 45.8641 6.38997 45.9723C6.23985 46.0951 6.09825 46.2257 5.95513 46.3555C5.69082 46.5951 5.64772 47.005 5.82808 47.3012C5.93433 47.4757 6.11054 47.6061 6.3134 47.6597C6.51267 47.7123 6.76337 47.694 6.93938 47.581C7.72134 47.0796 8.49063 46.5598 9.26578 46.0482C9.42951 45.9398 9.55221 45.8111 9.60647 45.6225Z" fill="#FDBE16"/>
<path d="M7.67214 32.8592C8.02796 32.8307 8.38377 32.8172 8.74034 32.8054C9.07195 32.7945 9.40375 32.7871 9.73386 32.8192C9.78736 32.8281 9.8403 32.839 9.89323 32.8535C9.94428 32.8677 9.99419 32.8862 10.0435 32.906C10.0641 32.9147 10.0846 32.9236 10.1048 32.9327C10.1594 32.9549 10.2141 32.977 10.2687 32.9992C10.3903 33.0304 10.5118 33.0304 10.6332 32.9992C10.8049 32.9538 10.9537 32.8437 11.0435 32.6963C11.1361 32.5439 11.1613 32.3586 11.1125 32.1883C11.0692 32.0372 10.951 31.8625 10.7971 31.7946C10.5487 31.6852 10.2986 31.5764 10.0273 31.5369C9.74047 31.4949 9.45518 31.4766 9.16611 31.4766C9.14777 31.4766 9.12943 31.4766 9.1109 31.4767C8.5889 31.4809 8.06577 31.5045 7.54547 31.5459C6.97035 31.5917 6.39711 31.6545 5.82464 31.7226C5.41003 31.7722 4.99541 31.8214 4.58061 31.8705C4.15088 31.9215 3.72247 31.9876 3.29405 32.0468C2.80968 32.1138 2.32493 32.1787 1.84036 32.2433C1.51423 32.2807 1.18356 32.2996 0.871235 32.4017C0.746832 32.4353 0.638878 32.4956 0.547183 32.5831C0.409925 32.715 0.332031 32.8959 0.332031 33.0822C0.332031 33.2687 0.409925 33.4496 0.547183 33.5814C0.675745 33.7051 0.879931 33.8015 1.06672 33.7879C1.26864 33.7736 1.47226 33.7667 1.67323 33.7418C1.77835 33.7287 1.88328 33.7158 1.98821 33.7029C2.23115 33.673 2.47409 33.6434 2.71647 33.6116C3.13467 33.5566 3.55326 33.5044 3.96919 33.4347C4.08773 33.4027 4.19077 33.345 4.27831 33.2616L4.27868 33.2612C4.4356 33.2376 4.59271 33.2139 4.74982 33.1902C5.25235 33.1263 5.75525 33.0635 6.25759 33.0003C6.72759 32.9407 7.20044 32.8973 7.67214 32.8592Z" fill="#FDBE16"/>
<path d="M0.861728 22.5446C1.0039 22.5813 1.15194 22.5977 1.29524 22.6298C1.50756 22.6774 1.72007 22.725 1.93276 22.7726C2.23015 22.839 2.52792 22.9051 2.82588 22.9707C3.23671 23.061 3.64754 23.151 4.05856 23.2418C4.34404 23.3045 4.62688 23.3799 4.91047 23.4489C5.39712 23.5671 5.88357 23.6855 6.37021 23.8037C6.54358 23.8459 6.71242 23.8887 6.88219 23.9423C7.76643 24.2207 8.65105 24.4993 9.53548 24.7777C10.0367 24.9354 10.5271 25.1195 11.0206 25.2977C11.1873 25.3578 11.4066 25.314 11.5552 25.2305C11.7104 25.1433 11.8263 24.9987 11.8742 24.8322C11.9233 24.6602 11.898 24.4726 11.8042 24.3186C11.7681 24.2737 11.7318 24.2287 11.6957 24.1839C11.6093 24.1012 11.5072 24.0442 11.3896 24.0124C10.896 23.8337 10.4061 23.6494 9.90528 23.4905C9.44794 23.3454 8.99041 23.2001 8.53307 23.055C8.10636 22.9197 7.68003 22.7844 7.2537 22.6491C7.08411 22.5951 6.91528 22.5515 6.7421 22.5087C6.2564 22.3877 5.77051 22.267 5.28462 22.1462C5.00122 22.0755 4.71876 22 4.43385 21.9344C3.72714 21.7717 3.01986 21.6108 2.31372 21.4448C2.1273 21.401 1.94051 21.3571 1.7541 21.3133C1.70551 21.1617 1.59755 21.0304 1.45481 20.9501C1.40188 20.9288 1.34913 20.9074 1.29657 20.886C1.23777 20.8707 1.17916 20.8633 1.12036 20.8633C1.06156 20.8633 1.00277 20.8709 0.944158 20.886C0.872315 20.8978 0.802363 20.9116 0.732221 20.9308C0.600257 20.9668 0.476231 21.0284 0.350884 21.0809C0.30324 21.1163 0.25522 21.1519 0.207576 21.1873C0.119852 21.2721 0.0593527 21.3722 0.0256998 21.4871C-0.0211874 21.6509 -0.00757515 21.8674 0.0969757 22.0111C0.199825 22.1525 0.297381 22.3011 0.459406 22.3883C0.585699 22.456 0.722201 22.5085 0.861728 22.5446Z" fill="#FDBE16"/>
<path d="M3.47043 11.6556C3.60032 11.7682 3.73474 11.8758 3.86784 11.9847C4.16089 12.2241 4.45922 12.4569 4.75643 12.6912C5.03114 12.9078 5.31567 13.1123 5.59737 13.3201C5.94317 13.5751 6.28442 13.8362 6.64005 14.0781C7.49819 14.6624 8.38508 15.2007 9.30921 15.6834C9.80493 15.9424 10.3048 16.1935 10.8098 16.4347C11.6407 16.8317 12.4716 17.2287 13.3026 17.6257C13.8085 17.8674 14.3182 18.1019 14.8268 18.3387C14.9661 18.4036 15.1037 18.4333 15.2573 18.393C15.3968 18.356 15.518 18.2664 15.591 18.1464C15.6664 18.0225 15.6868 17.8716 15.6471 17.7331C15.6112 17.6074 15.5157 17.4712 15.3906 17.4125C14.861 17.1643 14.3303 16.9191 13.8041 16.6643C13.3835 16.4605 12.9624 16.2567 12.5414 16.0528C12.1332 15.8554 11.725 15.6578 11.3169 15.4598C10.7604 15.1903 10.2129 14.9019 9.67051 14.607C8.77341 14.119 7.92112 13.564 7.09133 12.9772C6.83156 12.7784 6.57255 12.5782 6.31335 12.379C6.08534 12.2037 5.85544 12.0312 5.635 11.8474C5.36105 11.6188 5.08464 11.3919 4.81523 11.1584C4.68874 11.0487 4.56056 10.9408 4.43654 10.8284C4.26033 10.6686 4.07978 10.5124 3.92002 10.3373C3.90584 10.3163 3.89242 10.2946 3.87937 10.2721C3.76253 10.0744 3.53963 9.96484 3.31427 9.96484C3.20254 9.96484 3.09023 9.99172 2.99003 10.048C2.67884 10.2231 2.58544 10.6045 2.75654 10.9025C2.92934 11.2031 3.20877 11.429 3.47043 11.6556Z" fill="#FDBE16"/>
<path d="M15.3601 6.52605C15.4365 6.63356 15.5239 6.73472 15.6105 6.8346C15.6823 6.91724 15.7572 6.99697 15.8282 7.08014C16.2788 7.64804 16.71 8.23065 17.167 8.79382C17.665 9.40803 18.1641 10.0215 18.6628 10.6352C19.2064 11.3042 19.7558 11.9689 20.3047 12.6338C20.358 12.6734 20.4113 12.7132 20.465 12.7528C20.5884 12.8216 20.7217 12.8561 20.8647 12.8565C21.0739 12.8565 21.277 12.7756 21.425 12.6336C21.5729 12.4914 21.657 12.2965 21.657 12.0953C21.6476 12.0281 21.6381 11.9606 21.6288 11.893C21.5912 11.7641 21.5232 11.6522 21.4252 11.5574C20.4071 10.3226 19.4011 9.0795 18.3936 7.83673C18.1501 7.52273 17.9057 7.20981 17.6616 6.89599C17.5306 6.72764 17.3992 6.5591 17.2681 6.39057C17.315 6.29867 17.3404 6.19679 17.3404 6.09309C17.3404 5.9093 17.2628 5.74948 17.1349 5.61654C16.908 5.38117 16.6327 5.1963 16.3451 5.03666C16.2238 4.96946 16.0903 4.9375 15.9581 4.9375C15.6899 4.9375 15.4271 5.06917 15.2822 5.30454C15.1832 5.46563 15.1055 5.62853 15.1055 5.82158C15.1055 6.02953 15.1898 6.22621 15.2839 6.40836C15.3053 6.44977 15.3333 6.48809 15.3601 6.52605Z" fill="#FDBE16"/>
<path d="M28.0697 8.58891C28.0962 8.87549 28.1242 9.16244 28.1589 9.4483C28.1975 9.76339 28.2512 10.0767 28.2971 10.3909C28.3204 10.4441 28.344 10.4975 28.3675 10.5509C28.4295 10.6516 28.5129 10.7317 28.6178 10.7913C28.7789 10.8819 28.9755 10.9066 29.1555 10.8589C29.3296 10.8127 29.481 10.7009 29.5724 10.5509C29.5958 10.4976 29.6192 10.4442 29.6427 10.3909C29.676 10.2721 29.676 10.1533 29.6427 10.0345C29.6187 9.866 29.592 9.69783 29.5673 9.52948C29.5049 9.05293 29.4672 8.57239 29.4306 8.09366C29.3911 7.57789 29.3638 7.06139 29.3502 6.54434C29.3364 6.02639 29.3461 5.50752 29.3625 4.98957C29.3735 4.6367 29.3807 4.28184 29.4084 3.92933C29.4423 3.49492 29.4765 3.06014 29.5105 2.62536C29.5355 2.30555 29.578 1.98682 29.6138 1.66773C29.6149 1.65738 29.616 1.64703 29.6174 1.63686C29.6351 1.62287 29.6523 1.6078 29.6688 1.59218C29.706 1.54605 29.7433 1.49974 29.7803 1.45343C29.845 1.34628 29.8775 1.23096 29.8779 1.10692C29.8508 0.907872 29.8221 0.722993 29.7667 0.530486C29.7149 0.351236 29.5907 0.19614 29.4238 0.102247C29.3149 0.040863 29.1721 0 29.035 0C28.9702 0 28.9065 0.00926241 28.8484 0.0297844C28.7636 0.0599318 28.6775 0.0891707 28.5998 0.134028C28.4749 0.20631 28.3767 0.305289 28.31 0.42951C28.2172 0.60204 28.1894 0.77348 28.1797 0.966169C28.1744 1.0686 28.1646 1.1703 28.1548 1.27218C28.1398 1.42782 28.1238 1.58383 28.1117 1.73983C28.0858 2.06891 28.0576 2.39762 28.0385 2.72688C28.0145 3.14513 27.9903 3.56302 27.9661 3.98127C27.941 4.41986 27.9357 4.86135 27.9289 5.30067C27.9211 5.81862 27.9281 6.3364 27.9491 6.85399C27.9731 7.43351 28.0162 8.01157 28.0697 8.58891Z" fill="#FDBE16"/>
</svg>
