<svg width="62" height="53" viewBox="0 0 62 53" fill="none" xmlns="http://www.w3.org/2000/svg">
<path d="M20.7386 20.6215C21.2964 20.7407 21.8723 20.7883 22.4403 20.8637C24.7626 21.1754 27.089 21.4593 29.4053 21.8127C30.6223 22.0013 31.896 22.178 33.04 22.6208C35.9789 23.7544 37.9403 25.8747 38.7191 28.8845C39.1248 30.4926 39.2911 32.1662 39.5305 33.816C39.8246 35.8013 40.0782 37.8085 40.3784 39.7997C40.4109 40.0122 40.6381 40.1968 40.8591 40.5144C41.0985 40.2246 41.287 40.0797 41.3519 39.895C41.4138 39.6377 41.4499 39.375 41.4595 39.1108C41.782 36.788 42.0678 34.4612 42.439 32.1443C42.6418 30.7943 42.792 29.4006 43.2626 28.132C44.5607 24.6438 47.2034 22.6049 50.9314 22.0093C53.6107 21.5824 56.3126 21.2946 59.0041 20.9372C59.6876 20.8459 60.375 20.7525 61.0484 20.5997C61.1473 20.5565 61.2341 20.4907 61.3015 20.4077C61.369 20.3248 61.415 20.2272 61.4358 20.1232C61.452 20.0001 61.2149 19.7559 61.0506 19.7262C60.5889 19.6317 60.1223 19.5615 59.653 19.5157C57.315 19.202 54.9758 18.8883 52.6352 18.5747C51.2499 18.3861 49.8464 18.2689 48.5503 17.6952C45.0353 16.1387 43.1164 13.4387 42.6418 9.72414C42.3376 7.34176 42.0456 4.9375 41.7414 2.54519C41.6541 1.85629 41.5729 1.1555 41.4248 0.490416C41.3843 0.291885 41.1167 0.162796 40.9524 0C40.7817 0.150999 40.6248 0.316466 40.4838 0.494391C40.4222 0.630651 40.3911 0.778195 40.3925 0.927177C40.287 1.7213 40.1896 2.53328 40.0801 3.33535C39.7698 5.56089 39.4412 7.78248 39.141 10.008C38.878 12.226 37.8339 14.285 36.188 15.831C34.2672 17.6575 31.8717 18.2928 29.3039 18.5826C26.941 18.8506 24.5882 19.198 22.2313 19.5097C21.7121 19.5583 21.1961 19.6352 20.6857 19.7401C20.5868 19.7818 20.5003 19.8474 20.4344 19.9307C20.3684 20.014 20.3252 20.1124 20.3086 20.2165C20.3106 20.3535 20.5622 20.5838 20.7386 20.6215Z" fill="#DDE6FD"/>
<path d="M12.7118 52.7141C12.7395 52.7794 12.7819 52.838 12.8359 52.8859C12.89 52.9338 12.9543 52.9697 13.0245 52.9911C13.2256 53.0414 13.291 52.8686 13.3166 52.708C13.364 52.3954 13.4088 52.0828 13.4536 51.769L14.0609 47.4972C14.189 46.6392 14.3005 45.7811 14.7015 44.9868C15.6047 43.2376 17.0473 42.1136 19.0458 41.7557C20.6767 41.4639 22.3358 41.3107 23.9821 41.095C24.5419 41.0214 25.1005 40.9418 25.6591 40.867C25.8666 40.84 26.005 40.7444 25.9999 40.5323C25.9947 40.3203 25.8422 40.2627 25.6513 40.248C25.5027 40.2357 25.3554 40.2161 25.2068 40.1965C23.7399 40.0053 22.2704 39.8288 20.8074 39.6155C19.9106 39.4855 18.992 39.4046 18.1542 39.1129C15.9058 38.3333 14.5785 36.7459 14.1929 34.4893C13.9187 32.881 13.7316 31.2581 13.5023 29.6425C13.4434 29.2282 13.3858 28.8127 13.2961 28.4045C13.2692 28.2819 13.1347 28.1814 12.9963 28C12.8593 28.1643 12.7401 28.2451 12.7145 28.3506C12.6478 28.6276 12.6209 28.9132 12.5863 29.1951C12.3801 30.6403 12.1904 32.0855 11.9637 33.527C11.8522 34.2294 11.7626 34.9538 11.5076 35.6108C10.6108 37.9239 8.80191 39.1656 6.27551 39.4818C4.76505 39.6706 3.25073 39.8373 1.73899 40.0175C1.27393 40.0727 0.810148 40.1401 0.346377 40.1977C0.145238 40.2235 -0.038014 40.3203 0.00682571 40.5201C0.0399816 40.5882 0.0885818 40.6484 0.149077 40.6963C0.209572 40.7442 0.280505 40.7787 0.356636 40.7971C0.638632 40.8491 0.923533 40.8855 1.20989 40.9062C2.95095 41.1354 4.69193 41.3757 6.43427 41.5963C8.17662 41.817 9.61158 42.5855 10.6903 43.9339C11.5602 45.0236 11.8177 46.3045 11.9817 47.6235C12.1521 48.9902 12.3557 50.3521 12.5466 51.7163C12.5813 52.0517 12.6365 52.3849 12.7118 52.7141Z" fill="#DDE6FD"/>
</svg>
