<svg width="120" height="117" viewBox="0 0 120 117" fill="none" xmlns="http://www.w3.org/2000/svg">
<path d="M66.1923 12.4394L106.656 43.8936L64.7444 97.8163L24.2414 66.3428C22.9793 65.3589 21.4502 64.995 19.9867 65.1712C18.5232 65.3474 17.1215 66.091 16.1375 67.3532C14.1853 69.8657 14.6354 73.5049 17.1479 75.4571L57.6508 106.931L56.7331 108.118L16.2694 76.6639C13.0491 74.1672 12.4217 69.5814 14.8006 66.3031C14.8512 66.2402 14.9018 66.1772 14.9523 66.1143L55.6428 13.7565C58.2018 10.4889 62.921 9.90774 66.1923 12.4394Z" fill="#DB3B4D"/>
<path d="M25.2175 65.1896L65.6813 96.6438L64.7635 97.8312L24.2605 66.3577C22.9983 65.3737 21.4693 65.0099 20.0058 65.1861C18.5423 65.3622 17.1405 66.1058 16.1566 67.368C14.2043 69.8805 14.6544 73.5197 17.1669 75.472L57.6699 106.945L56.7522 108.133L16.2884 76.6787C13.0682 74.1821 12.4407 69.5963 14.8196 66.3179C17.3991 63.2069 21.9973 62.6929 25.2175 65.1896Z" fill="#DB3B4D"/>
<path d="M24.2415 66.3431L62.2556 95.8956L55.162 105.01L17.1479 75.4574C14.6354 73.5052 14.1697 69.8778 16.1376 67.3535C17.1215 66.0913 18.5233 65.3477 19.9868 65.1715C21.4503 64.9953 22.9793 65.3592 24.2415 66.3431Z" fill="#FFBFC0"/>
</svg>
