<svg width="123" height="122" viewBox="0 0 123 122" fill="none" xmlns="http://www.w3.org/2000/svg">
<g clip-path="url(#clip0_2560_13567)">
<path d="M23.2395 55.7855C21.8558 56.2173 20.6072 56.9992 19.6144 58.0553C18.6216 59.1114 17.9184 60.406 17.5729 61.8137L14.3518 75.0628C14.0124 76.472 14.0428 77.9449 14.4399 79.3389C14.837 80.733 15.5873 82.0008 16.6183 83.0197L27.0964 93.3628C28.1826 94.4363 29.5404 95.194 31.0243 95.5548C32.5083 95.9155 34.0624 95.8658 35.5202 95.4108L54.1205 89.6254L59.5885 67.1347L42.125 49.8962L23.2395 55.7855Z" fill="#DB3B4D"/>
<path d="M36.159 74.4308L19.6096 58.0641Z" fill="#DB3B4D"/>
<path d="M36.159 74.4308L59.5885 67.1347Z" fill="#DB3B4D"/>
<path d="M36.159 74.4308L31.02 95.5727Z" fill="#DB3B4D"/>
<path d="M59.5885 67.1347L54.1205 89.6254L67.9885 103.305C69.0748 104.378 70.4326 105.136 71.9165 105.497C73.4004 105.857 74.9545 105.808 76.4123 105.353L90.4695 100.975C91.8532 100.543 93.1018 99.7609 94.0946 98.7048C95.0874 97.6486 95.7906 96.354 96.1361 94.9464L99.3572 81.6973C99.6966 80.2881 99.6662 78.8152 99.2691 77.4211C98.8721 76.0271 98.1217 74.7593 97.0907 73.7404L83.0171 59.8379L59.5885 67.1347Z" fill="#DB3B4D"/>
<path d="M77.052 84.3732L59.5885 67.1347Z" fill="#DB3B4D"/>
<path d="M77.052 84.3732L99.2684 77.431Z" fill="#DB3B4D"/>
<path d="M77.052 84.3732L71.9121 105.514Z" fill="#DB3B4D"/>
<path d="M52.136 25.9985C50.7524 26.4303 49.5037 27.2121 48.5109 28.2682C47.5181 29.3244 46.8149 30.619 46.4694 32.0267L42.125 49.8962L59.5885 67.1347L83.0171 59.8379L87.3616 41.9685C87.7009 40.5593 87.6706 39.0863 87.2735 37.6923C86.8764 36.2983 86.126 35.0304 85.0951 34.0115L74.617 23.6684C73.5308 22.5949 72.1729 21.8372 70.689 21.4765C69.2051 21.1157 67.651 21.1654 66.1932 21.6204L52.136 25.9985Z" fill="#DB3B4D"/>
<path d="M65.0556 44.6434L48.5061 28.2767Z" fill="#DB3B4D"/>
<path d="M65.0556 44.6434L87.2729 37.7018Z" fill="#DB3B4D"/>
<path d="M59.5885 67.1347L65.0556 44.6434Z" fill="#DB3B4D"/>
<path d="M54.1205 89.6254L35.5202 95.4108C34.0624 95.8658 32.5083 95.9155 31.0243 95.5548C29.5404 95.194 28.1826 94.4363 27.0964 93.3628L16.6183 83.0197C15.5873 82.0008 14.837 80.733 14.4399 79.3389C14.0428 77.9449 14.0124 76.472 14.3518 75.0628L17.5729 61.8137C17.9184 60.406 18.6216 59.1114 19.6144 58.0553C20.6072 56.9992 21.8558 56.2173 23.2395 55.7855L42.125 49.8962M54.1205 89.6254L59.5885 67.1347M54.1205 89.6254L67.9885 103.305C69.0748 104.378 70.4326 105.136 71.9165 105.497C73.4004 105.857 74.9545 105.808 76.4123 105.353L90.4695 100.975C91.8532 100.543 93.1018 99.7609 94.0946 98.7048C95.0874 97.6486 95.7906 96.354 96.1361 94.9464L99.3572 81.6973C99.6966 80.2881 99.6662 78.8152 99.2691 77.4211C98.8721 76.0271 98.1217 74.7593 97.0907 73.7404L83.0171 59.8379M59.5885 67.1347L42.125 49.8962M59.5885 67.1347L36.159 74.4308M59.5885 67.1347L83.0171 59.8379M59.5885 67.1347L77.052 84.3732M59.5885 67.1347L65.0556 44.6434M42.125 49.8962L46.4694 32.0267C46.8149 30.619 47.5181 29.3244 48.5109 28.2682C49.5037 27.2121 50.7524 26.4303 52.136 25.9985L66.1932 21.6204C67.651 21.1654 69.2051 21.1157 70.689 21.4765C72.1729 21.8372 73.5308 22.5949 74.617 23.6684L85.0951 34.0115C86.126 35.0304 86.8764 36.2983 87.2735 37.6923C87.6706 39.0863 87.7009 40.5593 87.3616 41.9685L83.0171 59.8379M36.159 74.4308L19.6096 58.0641M36.159 74.4308L31.02 95.5727M77.052 84.3732L99.2684 77.431M77.052 84.3732L71.9121 105.514M65.0556 44.6434L48.5061 28.2767M65.0556 44.6434L87.2729 37.7018" stroke="#F2F2F2" stroke-width="4" stroke-linecap="round" stroke-linejoin="round"/>
</g>
<defs>
<clipPath id="clip0_2560_13567">
<rect width="101" height="101" fill="white" transform="translate(23.9375) rotate(13.6648)"/>
</clipPath>
</defs>
</svg>
