<svg width="133" height="127" viewBox="0 0 133 127" fill="none" xmlns="http://www.w3.org/2000/svg">
<path d="M61.6865 19.8262C60.7672 18.2671 59.9334 16.7333 59.2238 15.2518C60.0889 14.2668 61.1368 13.398 62.3405 12.6838C63.5401 11.9838 64.8073 11.4745 66.0868 11.186C67.0409 12.5227 67.9897 13.9819 68.909 15.541C73.5098 23.3222 75.6312 30.5718 73.6345 31.765C71.6419 32.9439 66.2873 27.6074 61.6865 19.8262Z" fill="#FDBE16"/>
<path d="M99.6916 76.1333L100.304 78.3617C102.52 86.4458 89.4722 97.0577 71.168 102.052C52.8596 107.061 36.2424 104.567 34.0223 96.4968L33.3978 94.2029L70.7534 92.7015L99.6916 76.1333Z" fill="#FDBE16"/>
<path d="M106.536 61.5965C111.528 61.8402 113.113 68.4488 108.775 70.9306L99.6827 76.1319L71.7872 92.1027C71.0901 92.5018 70.307 92.7271 69.5044 92.7595L33.3847 94.2158L17.2154 94.8657C12.2124 95.0668 10.0524 88.6054 14.1706 85.7574L51.4979 59.9422C52.4022 59.3167 53.4875 59.0069 54.5858 59.0605L106.536 61.5965Z" fill="#FDBE16" stroke="#F2F2F2" stroke-width="1.74627" stroke-miterlimit="10"/>
<path d="M69.4744 74.0101C64.0344 73.7354 59.8378 69.098 60.1126 63.658C60.3684 58.4916 64.5675 54.4135 69.7211 54.2934L83.8419 54.1106C91.6551 54.017 94.1479 43.5409 87.2145 39.9244L76.0173 34.1011" stroke="#FDBE16" stroke-width="1.74627" stroke-miterlimit="10"/>
<path d="M76.5164 33.6571C76.7982 32.704 76.254 31.7029 75.301 31.4211C74.3479 31.1393 73.3468 31.6835 73.065 32.6366C72.7831 33.5897 73.3273 34.5908 74.2804 34.8726C75.2335 35.1544 76.2346 34.6102 76.5164 33.6571Z" stroke="#FDBE16" stroke-width="1.74627" stroke-miterlimit="10"/>
</svg>
