<svg width="111" height="111" viewBox="0 0 111 111" fill="none" xmlns="http://www.w3.org/2000/svg">
<path d="M10.7937 48.4637C8.04425 41.4191 5.48916 34.817 8.11397 29.7915C10.4835 24.7902 17.2294 22.7348 24.4986 20.6625C27.1758 13.2403 29.6491 6.99337 34.6297 4.67712C39.85 2.44468 46.0623 4.95796 53.1039 8.39718C59.9068 4.21441 65.7175 1.0554 71.254 2.71012C76.6248 4.47041 79.4016 10.4353 82.8578 17.5282C90.3071 18.81 97.1418 19.9959 100.127 24.8497C103.37 29.56 101.622 36.3932 99.7278 43.6873C104.534 49.6399 108.949 55.0744 108.183 60.7121C107.594 66.243 102.117 70.4408 95.9301 74.7627C96.0865 82.6475 96.0156 89.4874 91.7576 93.5335C87.5859 97.3909 80.9624 96.7656 73.1218 96.3458C68.4352 102.366 64.114 107.612 58.3638 107.921C52.613 108.23 47.9272 103.511 42.4509 97.993C34.9533 99.1939 28.0836 100.544 23.5973 97.1508C19.0161 93.5801 18.3838 86.7774 17.5241 78.9303C10.9207 75.2953 5.01408 71.709 3.66561 66.2821C2.31656 60.8553 6.21654 54.9203 10.7937 48.4637Z" fill="#FDBE16"/>
<circle cx="9.91899" cy="9.91899" r="9.91899" transform="matrix(0.998561 -0.0536304 -0.0536304 -0.998561 34.4922 66.8574)" fill="white"/>
<circle cx="9.91899" cy="9.91899" r="9.91899" transform="matrix(0.998561 -0.0536304 -0.0536304 -0.998561 57.3477 65.6299)" fill="white"/>
<circle cx="6.104" cy="6.104" r="6.104" transform="matrix(0.998561 -0.0536304 -0.0536304 -0.998561 35.6875 60.6807)" fill="#202020"/>
<circle cx="6.104" cy="6.104" r="6.104" transform="matrix(0.998561 -0.0536304 -0.0536304 -0.998561 58.543 59.4531)" fill="#202020"/>
</svg>
