<svg width="64" height="65" viewBox="0 0 64 65" fill="none" xmlns="http://www.w3.org/2000/svg">
<path d="M20.6773 27.311C14.3171 21.4576 7.95727 15.6046 1.59781 9.75195C0.749717 8.97144 0.364922 8.04329 0.589837 6.89407C0.872539 5.48879 2.51702 4.4596 3.88077 4.90822C4.39019 5.08728 4.8646 5.35358 5.28276 5.69522C5.9314 6.2093 6.50897 6.81158 7.12867 7.3637C7.67193 7.84953 8.07314 7.82866 8.56872 7.29236C10.3073 5.41196 12.0423 3.52681 13.7735 1.6369C14.2871 1.0788 14.9144 0.849642 15.645 1.0572C15.936 1.15582 16.2027 1.31516 16.4275 1.52467C17.109 2.11949 17.7582 2.74931 18.4316 3.35288C19.3252 4.13888 19.1641 5.32861 18.515 6.02074C16.8125 7.83543 15.1517 9.68837 13.4503 11.502C12.7981 12.1953 12.8724 12.6679 13.5345 13.2772C22.8808 21.8625 32.2207 30.4547 41.5541 39.0539C42.2282 39.6743 42.9024 40.2946 43.5765 40.915C44.1466 41.4397 44.6086 41.4142 45.1397 40.8459C46.5506 39.3349 47.8955 37.7571 49.3822 36.324C51.5126 34.2726 54.0912 33.6362 56.9428 34.4557C58.4436 34.8863 59.7527 35.8158 60.6539 37.0909C62.0681 39.033 62.3956 41.1676 61.8546 43.4509C61.5564 44.7105 60.8757 45.7839 60.0368 46.7702C59.812 47.0343 59.5674 47.2802 59.3383 47.5423C58.9174 48.026 58.9285 48.4971 59.3985 48.9418C60.0538 49.565 60.7292 50.1664 61.3874 50.7843C63.239 52.4883 64.1037 54.608 63.953 57.113C63.8313 59.1273 62.978 60.8078 61.4754 62.1616C60.0305 63.4594 58.3114 64.0622 56.3987 64.0806C54.4037 64.0939 52.6982 63.3247 51.2307 61.9984C50.5741 61.3941 49.9175 60.7899 49.2609 60.1856C48.5015 59.4867 48.1665 59.5058 47.4659 60.2517C47.1018 60.6587 46.7155 61.0455 46.3089 61.4101C44.3258 63.1059 42.0529 63.7286 39.4851 63.1805C37.6639 62.7919 36.2421 61.7542 35.175 60.2891C33.9663 58.6311 33.6763 56.7149 34.0078 54.7097C34.2675 53.1296 35.0342 51.7958 36.1257 50.6317C37.3625 49.3142 38.5565 47.9553 39.8087 46.654C40.4283 46.0115 40.4708 45.515 39.7246 44.8303C33.3691 39.0055 27.02 33.1657 20.6773 27.311ZM51.8865 52.4395C53.3929 50.9235 53.1974 48.4939 51.7189 47.1312C50.1803 45.7152 47.8442 45.728 46.3669 47.3375C44.8897 48.9471 45.0627 51.2407 46.5795 52.6629C48.0711 54.0619 50.5003 54.0358 51.8865 52.4395Z" fill="#DB3B4D" fill-opacity="0.8"/>
</svg>
