<svg width="97" height="97" viewBox="0 0 97 97" fill="none" xmlns="http://www.w3.org/2000/svg">
<path d="M81.027 69.9893L81.0274 69.9906C82.2989 74.4415 81.2625 79.217 78.164 82.7158L78.16 82.7205C75.1274 86.2313 70.5463 87.9739 65.953 87.3801L20.6318 81.5206C15.867 80.9046 11.8301 77.9094 9.85042 73.5405C7.87208 69.1744 8.30688 64.18 10.988 60.1665C10.9882 60.1662 10.9884 60.1658 10.9886 60.1655L18.7155 48.7092C18.7157 48.709 18.7158 48.7088 18.7159 48.7086C20.9265 45.451 23.8023 43.7329 26.8201 43.8202C29.8458 43.9077 32.6357 45.7088 34.6851 49.09C34.6855 49.0905 34.6858 49.0911 34.6862 49.0917L35.3369 50.1837C36.9051 52.8195 39.1236 54.423 41.6105 54.5081C44.0535 54.6242 46.4175 53.232 48.2316 50.7733L56.5456 39.5347L56.5461 39.5339C59.6053 35.382 63.0477 33.6062 66.161 34.1747L66.1612 34.1747C69.3107 34.7481 71.8851 37.6138 73.2709 42.5518L73.2712 42.5527L81.027 69.9893Z" fill="#1E7151" stroke="#1E7151"/>
<path d="M44.9935 22.4476C44.1717 28.804 38.3526 33.2906 31.9963 32.4688C25.6399 31.647 21.1532 25.828 21.975 19.4716C22.7968 13.1152 28.6159 8.62853 34.9723 9.45033C41.3287 10.2721 45.8153 16.0912 44.9935 22.4476Z" fill="#1E7151" stroke="#1E7151"/>
</svg>
