<svg width="116" height="95" viewBox="0 0 116 95" fill="none" xmlns="http://www.w3.org/2000/svg">
<path d="M58.37 12.5499L16.1154 90.2985C14.5489 93.1841 10.2616 93.8643 6.51019 91.8237C2.7588 89.7832 1.00679 85.805 2.5733 82.94L44.8279 5.19141L58.37 12.5499Z" fill="#F2F2F2" stroke="#1E7151" stroke-width="2.1277" stroke-miterlimit="10"/>
<path d="M58.3572 12.578C59.9227 9.69753 58.1594 5.71438 54.4187 3.68142C50.6781 1.64846 46.3766 2.33554 44.8111 5.21603C43.2456 8.09653 45.009 12.0797 48.7496 14.1126C52.4902 16.1456 56.7917 15.4585 58.3572 12.578Z" fill="#F2F2F2" stroke="#1E7151" stroke-width="2.1277" stroke-miterlimit="10"/>
<path d="M32.4844 41.0777L52.4574 24.5469L52.1482 30.5656L58.538 32.1527L43.2851 41.5724C54.9927 39.0577 76.017 35.5125 79.2118 41.6961C80.4692 44.1283 78.0988 49.0958 76.5116 52.6617C75.5223 60.1851 114.974 50.8684 115.427 50.7654L109.347 56.3925L115.427 59.8553C115.427 59.8553 82.3242 66.1625 73.7909 64.4311C68.9676 63.4418 72.8015 56.9696 76.1612 52.2288C77.1918 48.5805 68.9882 47.385 34.8753 51.0952L32.4844 41.0777Z" fill="#1E7151"/>
<path d="M32.7701 51.0108C36.0258 51.0108 38.6651 48.3715 38.6651 45.1157C38.6651 41.86 36.0258 39.2207 32.7701 39.2207C29.5143 39.2207 26.875 41.86 26.875 45.1157C26.875 48.3715 29.5143 51.0108 32.7701 51.0108Z" fill="#F2F2F2" stroke="#1E7151" stroke-width="2.1277" stroke-miterlimit="10"/>
</svg>
