<svg width="133" height="133" viewBox="0 0 133 133" fill="none" xmlns="http://www.w3.org/2000/svg">
<path d="M79.8013 43.4463L79.8012 43.4462C78.9018 43.8054 77.7872 43.9313 76.715 43.8542C75.645 43.7773 74.563 43.4944 73.7369 42.9846C73.7361 42.9841 73.7353 42.9836 73.7346 42.9832L62.9399 36.4648L79.8013 43.4463ZM79.8013 43.4463L79.8108 43.4423M79.8013 43.4463L79.8108 43.4423M79.8108 43.4423L89.333 39.4089C92.2975 38.1564 94.5444 38.3698 95.8718 39.481C97.1998 40.5928 97.8141 42.7762 97.1163 45.9382M79.8108 43.4423L97.1163 45.9382M103.683 70.2707L103.683 70.2706L96.4945 63.1706C96.4943 63.1705 96.4941 63.1703 96.4939 63.1701L96.4937 63.1699L96.845 62.8141C95.4678 61.4598 94.7201 58.8551 95.1304 57.0332L103.683 70.2707ZM103.683 70.2707C106.486 73.0382 107.232 75.4262 106.59 77.0536C105.948 78.6806 103.773 79.9136 99.8358 80.0163L99.8349 80.0163M103.683 70.2707L99.8349 80.0163M97.1163 45.9382C97.1163 45.9384 97.1162 45.9386 97.1162 45.9388L97.1163 45.9382ZM99.8349 80.0163L88.7185 80.3254C88.7178 80.3255 88.7171 80.3255 88.7164 80.3255C87.5979 80.3484 86.3993 80.7835 85.3724 81.4329C84.3454 82.0824 83.4386 82.9788 82.9384 83.9795C82.9381 83.9801 82.9378 83.9807 82.9375 83.9813L77.8938 93.8911C77.8937 93.8913 77.8936 93.8915 77.8935 93.8916C76.1024 97.3881 74.0561 98.8263 72.3119 98.7127C70.5698 98.5992 68.7377 96.9108 67.4388 93.1916L67.4388 93.1915M99.8349 80.0163L67.4388 93.1915M67.4388 93.1915L64.1051 83.6525L64.1016 83.6425L64.0977 83.6326C63.701 82.6353 62.9579 81.6712 62.087 80.9057C61.2173 80.1412 60.1805 79.54 59.1659 79.3115L48.1793 76.8374C45.0351 76.1294 43.3315 74.6469 42.8963 72.9709C42.461 71.2941 43.2276 69.1641 45.619 67.0061C45.6194 67.0057 45.6198 67.0054 45.6202 67.005L53.343 60.1334L67.4388 93.1915ZM55.5334 54.4463L54.2714 41.9008C54.2714 41.9005 54.2713 41.9001 54.2713 41.8997C53.9557 38.5861 54.8383 36.4699 56.3053 35.5472C57.7727 34.6243 60.069 34.7418 62.9387 36.4641L55.5334 54.4463Z" fill="#FDBE16" stroke="#FDBE16"/>
<path d="M39.0903 53.2457L18.7979 66.0786C17.6446 66.808 16.0763 66.4548 15.347 65.3015C14.6177 64.1483 14.9709 62.58 16.1241 61.8507L36.4166 49.0177C37.5698 48.2884 39.1381 48.6415 39.8674 49.7948C40.5967 50.9481 40.2436 52.5163 39.0903 53.2457Z" fill="#FDBE16" stroke="#FDBE16"/>
<path d="M58.8816 107.011L48.7354 113.428C47.5821 114.157 46.0138 113.804 45.2845 112.651C44.5552 111.497 44.9084 109.929 46.0616 109.2L56.2078 102.783C57.3611 102.054 58.9294 102.407 59.6587 103.56C60.388 104.714 60.0349 106.282 58.8816 107.011Z" fill="#FDBE16" stroke="#FDBE16"/>
<path d="M37.4159 88.0372L34.0339 90.176C32.6472 91.0529 30.7701 90.6302 29.8932 89.2436C29.0163 87.8569 29.439 85.9798 30.8256 85.1029L34.2077 82.9641C35.5943 82.0872 37.4715 82.5099 38.3484 83.8965C39.2253 85.2832 38.8026 87.1603 37.4159 88.0372Z" fill="#FDBE16"/>
</svg>
