<svg width="133" height="133" viewBox="0 0 133 133" fill="none" xmlns="http://www.w3.org/2000/svg">
<path d="M63.1972 36.0361L73.9974 42.5578C75.4742 43.4705 77.9904 43.631 79.6158 42.9819L89.1384 38.9484C95.2286 36.3752 99.0377 39.5533 97.6045 46.0466L95.1304 57.0332C94.7201 58.8551 95.4678 61.4598 96.845 62.8141L104.034 69.9149C109.706 75.5137 107.814 80.3084 99.8488 80.5161L88.7285 80.8254C86.7181 80.8657 84.283 82.4057 83.3848 84.2047L78.3388 94.1191C74.7157 101.192 69.5942 100.88 66.9668 93.3565L63.6331 83.8174C62.9108 82.0015 60.878 80.2096 59.0561 79.7993L48.0695 77.3252C41.61 75.8706 40.3714 71.067 45.2853 66.6338L53.0113 59.7593C54.3159 58.6028 55.228 56.2268 55.0364 54.5015L53.7736 41.9483C53.1268 35.1606 57.3206 32.5085 63.1972 36.0361Z" fill="#FDBE16"/>
<path d="M39.0903 53.2457L18.7979 66.0786C17.6446 66.808 16.0763 66.4548 15.347 65.3015C14.6177 64.1483 14.9709 62.58 16.1241 61.8507L36.4166 49.0177C37.5698 48.2884 39.1381 48.6415 39.8674 49.7948C40.5967 50.9481 40.2436 52.5163 39.0903 53.2457Z" fill="#FDBE16" stroke="#FDBE16"/>
<path d="M58.8816 107.011L48.7354 113.428C47.5821 114.157 46.0138 113.804 45.2845 112.651C44.5552 111.497 44.9084 109.929 46.0616 109.2L56.2078 102.783C57.3611 102.054 58.9294 102.407 59.6587 103.56C60.388 104.714 60.0349 106.282 58.8816 107.011Z" fill="#FDBE16" stroke="#FDBE16"/>
<path d="M37.4159 88.0372L34.0339 90.176C32.6472 91.0529 30.7701 90.6302 29.8932 89.2436C29.0163 87.8569 29.439 85.9798 30.8256 85.1029L34.2077 82.9641C35.5943 82.0872 37.4715 82.5099 38.3484 83.8965C39.2253 85.2832 38.8026 87.1603 37.4159 88.0372Z" fill="#FDBE16"/>
</svg>
