<svg width="70" height="48" viewBox="0 0 70 48" fill="none" xmlns="http://www.w3.org/2000/svg">
<rect width="70" height="48" rx="6" fill="white"/>
<path fill-rule="evenodd" clip-rule="evenodd" d="M19.8 30.4805H16.6888C16.4759 30.4805 16.2948 30.6352 16.2616 30.8453L15.0033 38.8234C14.9783 38.9809 15.1002 39.1228 15.2599 39.1228H16.7452C16.9581 39.1228 17.1392 38.9681 17.1724 38.7575L17.5118 36.6057C17.5445 36.395 17.726 36.2405 17.9385 36.2405H18.9234C20.9729 36.2405 22.1556 35.2487 22.4647 33.2834C22.6038 32.4236 22.4705 31.748 22.0678 31.2748C21.6257 30.7554 20.8413 30.4805 19.8 30.4805ZM20.159 33.3944C19.9889 34.5108 19.1358 34.5108 18.3111 34.5108H17.8416L18.1709 32.4257C18.1905 32.2998 18.2997 32.207 18.4271 32.207H18.6422C19.2041 32.207 19.7341 32.207 20.008 32.5272C20.1712 32.7184 20.2213 33.0022 20.159 33.3944ZM29.1002 33.3586H27.6103C27.4834 33.3586 27.3737 33.4514 27.3541 33.5775L27.2882 33.9942L27.184 33.8432C26.8615 33.375 26.1423 33.2186 25.4244 33.2186C23.7779 33.2186 22.3718 34.4655 22.0979 36.2148C21.9556 37.0872 22.1579 37.9215 22.6529 38.5034C23.107 39.0384 23.7567 39.2613 24.5295 39.2613C25.856 39.2613 26.5918 38.4083 26.5918 38.4083L26.5253 38.8224C26.5002 38.9807 26.6221 39.1226 26.7809 39.1226H28.123C28.3365 39.1226 28.5165 38.9679 28.5501 38.7573L29.3554 33.658C29.3809 33.5011 29.2594 33.3586 29.1002 33.3586ZM27.0234 36.2584C26.8796 37.1095 26.204 37.6809 25.3426 37.6809C24.9099 37.6809 24.564 37.5422 24.3421 37.2792C24.1219 37.0182 24.0381 36.6464 24.1082 36.2325C24.2425 35.3885 24.9295 34.7986 25.7779 34.7986C26.2009 34.7986 26.5449 34.939 26.7714 35.2043C26.9983 35.4723 27.0885 35.8462 27.0234 36.2584ZM35.5379 33.3584H37.0352C37.2449 33.3584 37.3672 33.5935 37.2481 33.7655L32.2685 40.9533C32.1878 41.0698 32.055 41.139 31.9131 41.139H30.4177C30.2072 41.139 30.0842 40.902 30.2061 40.7295L31.7567 38.5409L30.1076 33.7013C30.0506 33.5331 30.1748 33.3584 30.3537 33.3584H31.8249C32.016 33.3584 32.1847 33.4838 32.2398 33.6668L33.115 36.5897L35.1801 33.5481C35.2609 33.4293 35.3952 33.3584 35.5379 33.3584Z" fill="#253B80"/>
<path fill-rule="evenodd" clip-rule="evenodd" d="M51.7703 38.8239L53.0471 30.6998C53.0667 30.5737 53.176 30.4809 53.3029 30.4805H54.7404C54.8991 30.4805 55.021 30.6228 54.996 30.7803L53.7368 38.758C53.704 38.9685 53.5229 39.1232 53.3097 39.1232H52.0259C51.8671 39.1232 51.7452 38.9813 51.7703 38.8239ZM41.9915 30.4809H38.8797C38.6673 30.4809 38.4863 30.6356 38.453 30.8457L37.1947 38.8239C37.1696 38.9813 37.2915 39.1232 37.4505 39.1232H39.0471C39.1955 39.1232 39.3225 39.015 39.3456 38.8676L39.7027 36.6062C39.7355 36.3954 39.917 36.2409 40.1294 36.2409H41.1138C43.1637 36.2409 44.3463 35.2491 44.6555 33.2838C44.7951 32.4241 44.661 31.7485 44.2585 31.2752C43.8166 30.7558 43.0328 30.4809 41.9915 30.4809ZM42.3505 33.3948C42.1808 34.5112 41.3277 34.5112 40.5025 34.5112H40.0334L40.3633 32.4262C40.3829 32.3003 40.4911 32.2074 40.6189 32.2074H40.8341C41.3955 32.2074 41.9261 32.2074 42.1997 32.5276C42.3631 32.7188 42.4128 33.0026 42.3505 33.3948ZM51.2909 33.359H49.8021C49.6741 33.359 49.5654 33.4518 49.5463 33.578L49.4804 33.9946L49.3758 33.8436C49.0532 33.3754 48.3345 33.219 47.6166 33.219C45.9701 33.219 44.5644 34.466 44.2905 36.2152C44.1486 37.0876 44.3501 37.922 44.845 38.5039C45.3 39.0388 45.9488 39.2618 46.7217 39.2618C48.0482 39.2618 48.7838 38.4087 48.7838 38.4087L48.7174 38.8228C48.6924 38.9811 48.8143 39.123 48.9741 39.123H50.3156C50.528 39.123 50.709 38.9683 50.7423 38.7578L51.548 33.6584C51.5726 33.5015 51.4507 33.359 51.2909 33.359ZM49.2143 36.2588C49.0713 37.11 48.3949 37.6813 47.5332 37.6813C47.1014 37.6813 46.7549 37.5426 46.5328 37.2796C46.3126 37.0186 46.2299 36.6468 46.2991 36.2329C46.4341 35.3889 47.1202 34.799 47.9686 34.799C48.3918 34.799 48.7356 34.9394 48.9623 35.2047C49.1901 35.4727 49.2802 35.8466 49.2143 36.2588Z" fill="#179BD7"/>
<path d="M31.3133 27.6276L31.6958 25.1981L30.8438 25.1784H26.7754L29.6028 7.25069C29.6114 7.19656 29.64 7.1461 29.6817 7.11027C29.7234 7.07444 29.7769 7.05469 29.8325 7.05469H36.6925C38.9699 7.05469 40.5415 7.5286 41.3622 8.464C41.7468 8.90282 41.9918 9.36137 42.1104 9.866C42.2346 10.3955 42.2369 11.0281 42.1154 11.7997L42.1066 11.856V12.3504L42.4914 12.5684C42.8154 12.7402 43.0727 12.937 43.2702 13.1622C43.5994 13.5374 43.8123 14.0142 43.9022 14.5796C43.995 15.161 43.9643 15.8529 43.8123 16.6361C43.6367 17.5372 43.3529 18.3219 42.9697 18.964C42.6171 19.5557 42.1681 20.0463 41.635 20.4268C41.126 20.788 40.5211 21.0623 39.8373 21.2379C39.1746 21.4103 38.4192 21.4975 37.5906 21.4975H37.0567C36.675 21.4975 36.304 21.635 36.0131 21.8815C35.7213 22.1331 35.528 22.4767 35.4689 22.8527L35.4287 23.0714L34.7529 27.3533L34.7221 27.5106C34.7141 27.5605 34.7003 27.5853 34.6798 27.6021C34.6615 27.6173 34.6352 27.6276 34.6095 27.6276H31.3133Z" fill="#253B80"/>
<path d="M42.8558 11.9102C42.8354 12.0411 42.812 12.1749 42.7857 12.3124C41.8808 16.9572 38.7859 18.5618 34.8328 18.5618H32.8202C32.3368 18.5618 31.9294 18.9128 31.8541 19.3897L30.8235 25.9251L30.5317 27.7776C30.4827 28.0906 30.7242 28.3729 31.04 28.3729H34.6099C35.0326 28.3729 35.3915 28.0658 35.4581 27.6489L35.4932 27.4675L36.1654 23.2022L36.2086 22.9683C36.2743 22.55 36.6341 22.2428 37.0568 22.2428H37.5907C41.0492 22.2428 43.7568 20.8386 44.5482 16.7751C44.8787 15.0776 44.7076 13.6603 43.8328 12.6634C43.5682 12.3629 43.2398 12.1135 42.8558 11.9102Z" fill="#179BD7"/>
<path d="M41.9089 11.5357C41.7708 11.4954 41.6281 11.4589 41.4817 11.4259C41.3348 11.3938 41.1841 11.3653 41.0291 11.3404C40.4864 11.2526 39.8919 11.2109 39.2548 11.2109H33.8779C33.7455 11.2109 33.6198 11.2409 33.5072 11.295C33.2592 11.4142 33.075 11.649 33.0304 11.9364L31.8864 19.1812L31.8535 19.3926C31.9289 18.9157 32.3363 18.5647 32.8196 18.5647H34.8323C38.7853 18.5647 41.8805 16.9594 42.7851 12.3153C42.8121 12.1778 42.8348 12.0439 42.8552 11.913C42.6264 11.7916 42.3784 11.6878 42.1114 11.5993C42.0457 11.5773 41.9778 11.5561 41.9089 11.5357Z" fill="#222D65"/>
<path d="M33.0311 11.9354C33.0758 11.6479 33.2602 11.4132 33.508 11.2947C33.6215 11.2406 33.7465 11.2106 33.8787 11.2106H39.2558C39.8928 11.2106 40.4874 11.2523 41.0299 11.34C41.185 11.3649 41.3358 11.3934 41.4827 11.4256C41.629 11.4585 41.7716 11.4951 41.9099 11.5353C41.9785 11.5558 42.0465 11.577 42.1131 11.5982C42.38 11.6867 42.628 11.7913 42.8568 11.912C43.1261 10.1955 42.8547 9.02678 41.9267 7.9685C40.9036 6.80347 39.0568 6.30469 36.6939 6.30469H29.8337C29.3509 6.30469 28.9393 6.65572 28.8646 7.1333L26.0073 25.2453C25.9509 25.6036 26.2273 25.927 26.5886 25.927H30.824L31.8873 19.1802L33.0311 11.9354Z" fill="#253B80"/>
</svg>
