<svg width="70" height="48" viewBox="0 0 70 48" fill="none" xmlns="http://www.w3.org/2000/svg">
<rect width="70" height="48" rx="6" fill="white"/>
<path fill-rule="evenodd" clip-rule="evenodd" d="M37.6109 16.2829L34.055 17.046V14.1631L37.6109 13.4141V16.2829ZM23.1607 15.0534L19.704 15.7882L19.6899 27.108C19.6899 29.1996 21.2624 30.74 23.359 30.74C24.5207 30.74 25.3707 30.528 25.8382 30.2736V27.4048C25.3849 27.5885 23.1465 28.2386 23.1465 26.147V21.1302H25.8382V18.12H23.1465L23.1607 15.0534ZM61 24.3523C61 20.7345 59.2433 17.8798 55.8858 17.8798C52.5142 17.8798 50.4742 20.7345 50.4742 24.324C50.4742 28.5778 52.8825 30.7258 56.3392 30.7258C58.025 30.7258 59.3 30.3443 60.2633 29.8073V26.9808C59.3 27.4613 58.195 27.7581 56.7925 27.7581C55.4183 27.7581 54.2 27.2776 54.0442 25.61H60.9717C60.9717 25.5322 60.9768 25.3553 60.9826 25.1515V25.1514V25.1514V25.1513C60.9906 24.8743 61 24.5476 61 24.3523ZM54.0016 23.0097C54.0016 21.4128 54.9791 20.7486 55.8716 20.7486C56.7358 20.7486 57.6566 21.4128 57.6566 23.0097H54.0016ZM14.7884 20.9465C14.0375 20.9465 13.5842 21.1585 13.5842 21.7096C13.5842 22.3114 14.3644 22.5761 15.3323 22.9045C16.9102 23.4399 18.9871 24.1445 18.9959 26.7548C18.9959 29.2844 16.97 30.74 14.0234 30.74C12.805 30.74 11.4733 30.4998 10.1558 29.9345V26.571C11.3458 27.2211 12.8475 27.7016 14.0234 27.7016C14.8167 27.7016 15.3834 27.4896 15.3834 26.8396C15.3834 26.173 14.5376 25.8683 13.5166 25.5005C11.9616 24.9403 10 24.2336 10 21.8792C10 19.3778 11.9125 17.8798 14.7884 17.8798C15.9642 17.8798 17.1259 18.0635 18.3017 18.5299V21.8509C17.225 21.2715 15.865 20.9465 14.7884 20.9465ZM30.2443 19.1658L30.0176 18.12H26.9576V30.4856H30.4993V22.1053C31.3351 21.0171 32.7518 21.215 33.1909 21.3704V18.12C32.7376 17.9505 31.0801 17.6395 30.2443 19.1658ZM34.0548 18.1201H37.6107V30.4856H34.0548V18.1201ZM42.229 18.9821C42.7248 18.5299 43.6173 17.8798 45.0057 17.8798C47.4848 17.8798 49.8223 20.1127 49.8365 24.211C49.8365 28.6908 47.5273 30.7259 44.9915 30.7259C43.7448 30.7259 42.994 30.203 42.484 29.8355L42.4698 33.8349L38.9281 34.5839V18.1059H42.0448L42.229 18.9821ZM42.4839 26.9526C42.8239 27.32 43.3198 27.6168 44.1556 27.6168C45.4589 27.6168 46.3373 26.2036 46.3373 24.3099C46.3373 22.4586 45.4448 21.0171 44.1556 21.0171C43.3481 21.0171 42.8381 21.2997 42.4698 21.7096L42.4839 26.9526Z" fill="#6461FC"/>
</svg>
