<svg width="60" height="62" viewBox="0 0 60 62" fill="none" xmlns="http://www.w3.org/2000/svg">
<path d="M24.3819 53.4772C21.8719 51.9057 18.9693 50.8787 16.0108 50.6552C19.3137 48.8702 22.0511 46.0321 24.114 42.9623C24.3442 42.6196 24.0512 42.0677 23.6086 42.1795C22.7957 42.385 21.9989 42.6421 21.2217 42.9468C21.1994 42.9492 21.1772 42.9501 21.1547 42.9541C20.9039 42.9972 20.6563 43.1208 20.4165 43.2831C19.2674 43.793 18.167 44.4111 17.1315 45.1336C16.5683 45.5266 16.005 45.9568 15.4604 46.4196C15.6357 45.8657 15.7972 45.3071 15.9663 44.7545C16.8461 41.8791 17.7249 39.0036 18.6169 36.1319C18.8001 35.5417 18.0761 35.2237 17.6941 35.6541C15.34 38.3081 13.5494 41.5432 12.6576 44.996C12.5349 44.5293 12.4109 44.0694 12.3031 43.6207C11.8107 41.5718 11.288 39.5311 10.5869 37.541C10.4026 37.0176 9.72772 37.295 9.64541 37.7144C9.2216 39.8708 9.24322 42.0995 9.70723 44.2504C9.90495 45.1672 10.1868 46.1424 10.574 47.0737C8.63664 45.873 6.28288 45.2823 4.26264 44.268C3.72937 44.0003 3.33223 44.6747 3.49335 45.1148C4.07736 46.7093 5.5084 47.9242 6.98615 48.6782C7.28559 48.8309 7.59127 48.9643 7.90178 49.0836C7.81107 49.1051 7.72177 49.1278 7.6346 49.1521C6.05299 49.5939 4.65404 50.5402 3.37063 51.5336C2.87985 51.9135 3.17332 52.7331 3.77292 52.7754C5.75779 52.915 8.18855 53.0466 10.2376 52.3871C10.1797 52.5198 10.1233 52.6527 10.0701 52.7853C9.77628 53.518 9.57781 54.288 9.43508 55.0636C9.29128 55.8448 9.12976 56.7486 9.35033 57.5278C9.47332 57.9626 10.2071 58.1518 10.3408 57.6073C10.4894 57.0019 10.4642 56.3791 10.5318 55.7613C10.602 55.1195 10.7271 54.4878 10.9082 53.8682C11.0697 53.3153 11.2617 52.7697 11.4918 52.2413C11.6444 52.5093 11.8329 52.7612 12.0199 53.0025C12.5599 53.6995 13.1591 54.3503 13.7907 54.9653C15.007 56.1499 16.3327 57.2144 17.6765 58.25C18.093 58.5711 18.7027 58.1498 18.605 57.6547C18.3294 56.2589 17.7191 54.9694 16.7652 53.9055C16.5656 53.6829 16.3541 53.4707 16.1378 53.2637C18.6556 54.0974 21.3565 54.3087 24.052 54.4002C24.5267 54.4166 24.8303 53.7581 24.3819 53.4772Z" fill="#FFBFC0"/>
<path d="M52.3507 14.8555C48.8676 17.2004 45.8554 20.3633 43.8436 24.0568C43.4745 18.7724 41.4223 13.6177 38.6789 9.20171C38.3727 8.70888 37.4924 8.77245 37.3782 9.40785C37.1685 10.575 37.0344 11.7508 36.973 12.9284C36.9632 12.9586 36.9514 12.9877 36.9433 13.0191C36.8525 13.3676 36.8671 13.7579 36.936 14.1603C36.9215 15.9352 37.0745 17.7091 37.3996 19.4587C37.5765 20.4104 37.801 21.3834 38.0784 22.3507C37.4687 21.8083 36.8448 21.2811 36.233 20.7473C33.05 17.9703 29.8662 15.1947 26.695 12.4042C26.0432 11.8307 25.2123 12.5843 25.543 13.3232C27.582 17.878 30.6966 22.0365 34.6148 25.1583C33.9434 25.0505 33.2799 24.9483 32.6404 24.8315C29.7198 24.2983 26.7919 23.8091 23.8253 23.579C23.0451 23.5184 23.0082 24.5483 23.4993 24.8939C26.0241 26.6717 28.9013 27.9154 31.9366 28.5434C33.2302 28.8112 34.6481 29.0036 36.0708 29.0349C33.3982 30.852 31.2668 33.5548 28.7853 35.5853C28.1304 36.1212 28.7658 37.019 29.4254 37.062C31.8154 37.2175 34.2111 36.0625 36.0417 34.5842C36.4125 34.2846 36.7622 33.9659 37.0966 33.633C37.0713 33.7624 37.0484 33.8906 37.0289 34.0171C36.6748 36.3119 37.0757 38.6586 37.6043 40.8829C37.8067 41.7336 39.0312 41.8222 39.4351 41.072C40.7715 38.5881 42.3576 35.5238 42.7044 32.5011C42.8412 32.6517 42.9791 32.8003 43.1186 32.9446C43.8891 33.7422 44.7631 34.4379 45.6769 35.0648C46.5972 35.6962 47.6647 36.4205 48.7949 36.5802C49.4255 36.6695 50.0963 35.8298 49.4744 35.3464C48.7829 34.8091 47.9676 34.4862 47.2129 34.0464C46.4289 33.5895 45.6899 33.0675 44.999 32.4801C44.3825 31.9561 43.7932 31.3967 43.2481 30.7982C43.6815 30.7539 44.1152 30.6543 44.5344 30.5504C45.745 30.2506 46.9308 29.8481 48.0896 29.3833C50.3211 28.4882 52.4622 27.3835 54.5766 26.2389C55.2323 25.8842 55.0462 24.8563 54.3527 24.7C52.398 24.2595 50.3847 24.312 48.4613 24.9369C48.0587 25.0677 47.6627 25.2198 47.2704 25.3811C49.8099 22.6049 51.6558 19.2372 53.3447 15.8081C53.6425 15.2044 52.9732 14.4365 52.3507 14.8555Z" fill="#FFBFC0"/>
</svg>
