<svg width="62" height="54" viewBox="0 0 62 54" fill="none" xmlns="http://www.w3.org/2000/svg">
<path d="M20.7425 21.1215C21.3003 21.2407 21.8763 21.2883 22.4442 21.3637C24.7665 21.6754 27.0929 21.9593 29.4092 22.3127C30.6262 22.5013 31.8999 22.678 33.0439 23.1208C35.9829 24.2544 37.9442 26.3747 38.7231 29.3845C39.1287 30.9926 39.295 32.6662 39.5344 34.316C39.8285 36.3013 40.0821 38.3085 40.3823 40.2997C40.4148 40.5122 40.642 40.6968 40.863 41.0144C41.1024 40.7246 41.2909 40.5797 41.3559 40.395C41.4177 40.1377 41.4538 39.875 41.4634 39.6108C41.7859 37.288 42.0717 34.9612 42.4429 32.6443C42.6457 31.2943 42.7959 29.9006 43.2665 28.632C44.5646 25.1438 47.2073 23.1049 50.9353 22.5093C53.6146 22.0824 56.3165 21.7946 59.008 21.4372C59.6915 21.3459 60.3789 21.2525 61.0523 21.0997C61.1512 21.0565 61.238 20.9907 61.3054 20.9077C61.3729 20.8248 61.4189 20.7272 61.4397 20.6232C61.456 20.5001 61.2188 20.2559 61.0545 20.2262C60.5928 20.1317 60.1262 20.0615 59.6569 20.0157C57.3189 19.702 54.9797 19.3883 52.6391 19.0747C51.2538 18.8861 49.8503 18.7689 48.5542 18.1952C45.0392 16.6387 43.1203 13.9387 42.6457 10.2241C42.3415 7.84176 42.0495 5.4375 41.7453 3.04519C41.658 2.35629 41.5768 1.6555 41.4287 0.990416C41.3882 0.791885 41.1206 0.662796 40.9563 0.5C40.7856 0.650999 40.6287 0.816466 40.4877 0.994391C40.4261 1.13065 40.395 1.2782 40.3964 1.42718C40.2909 2.2213 40.1935 3.03328 40.084 3.83535C39.7737 6.06089 39.4451 8.28248 39.145 10.508C38.882 12.726 37.8378 14.785 36.1919 16.331C34.2711 18.1575 31.8756 18.7928 29.3078 19.0826C26.9449 19.3506 24.5921 19.698 22.2352 20.0097C21.716 20.0583 21.2 20.1352 20.6896 20.2401C20.5907 20.2818 20.5043 20.3474 20.4383 20.4307C20.3723 20.514 20.3291 20.6124 20.3125 20.7165C20.3145 20.8535 20.5661 21.0838 20.7425 21.1215Z" fill="#FDBE16"/>
<path d="M12.7118 53.2141C12.7395 53.2794 12.7819 53.338 12.8359 53.3859C12.89 53.4338 12.9543 53.4697 13.0245 53.4911C13.2256 53.5414 13.291 53.3686 13.3166 53.208C13.364 52.8954 13.4088 52.5828 13.4536 52.269L14.0609 47.9972C14.189 47.1392 14.3005 46.2811 14.7015 45.4868C15.6047 43.7376 17.0473 42.6136 19.0458 42.2557C20.6767 41.9639 22.3358 41.8107 23.9821 41.595C24.5419 41.5214 25.1005 41.4418 25.6591 41.367C25.8666 41.34 26.005 41.2444 25.9999 41.0323C25.9947 40.8203 25.8422 40.7627 25.6513 40.748C25.5027 40.7357 25.3554 40.7161 25.2068 40.6965C23.7399 40.5053 22.2704 40.3288 20.8074 40.1155C19.9106 39.9855 18.992 39.9046 18.1542 39.6129C15.9058 38.8333 14.5785 37.2459 14.1929 34.9893C13.9187 33.381 13.7316 31.7581 13.5023 30.1425C13.4434 29.7282 13.3858 29.3127 13.2961 28.9045C13.2692 28.7819 13.1347 28.6814 12.9963 28.5C12.8593 28.6643 12.7401 28.7451 12.7145 28.8506C12.6478 29.1276 12.6209 29.4132 12.5863 29.6951C12.3801 31.1403 12.1904 32.5855 11.9637 34.027C11.8522 34.7294 11.7626 35.4538 11.5076 36.1108C10.6108 38.4239 8.80191 39.6656 6.27551 39.9818C4.76505 40.1706 3.25073 40.3373 1.73899 40.5175C1.27393 40.5727 0.810148 40.6401 0.346377 40.6977C0.145238 40.7235 -0.038014 40.8203 0.00682571 41.0201C0.0399816 41.0882 0.0885818 41.1484 0.149077 41.1963C0.209572 41.2442 0.280505 41.2787 0.356636 41.2971C0.638632 41.3491 0.923533 41.3855 1.20989 41.4062C2.95095 41.6354 4.69193 41.8757 6.43427 42.0963C8.17662 42.317 9.61158 43.0855 10.6903 44.4339C11.5602 45.5236 11.8177 46.8045 11.9817 48.1235C12.1521 49.4902 12.3557 50.8521 12.5466 52.2163C12.5813 52.5517 12.6365 52.8849 12.7118 53.2141Z" fill="#FDBE16"/>
</svg>
