<svg width="124" height="150" viewBox="0 0 124 150" fill="none" xmlns="http://www.w3.org/2000/svg">
<g clip-path="url(#clip0_1105_12835)">
<path d="M21.115 136.832C21.303 135.883 21.8318 135.036 22.6009 134.452C22.8234 134.285 23.0433 134.13 23.2812 133.979C32.8263 127.664 42.3715 121.348 51.917 115.03C52.383 114.694 52.9403 114.508 53.5142 114.498C55.9671 114.461 58.4036 114.32 60.8498 114.251C61.2254 114.237 61.5974 114.327 61.9248 114.512C62.6118 114.94 62.7378 115.581 62.3751 116.302C61.2985 118.456 60.1769 120.592 59.1645 122.772C58.8545 123.433 58.3564 123.987 57.7331 124.365C48.0789 130.656 38.4319 136.958 28.7923 143.27C26.9628 144.465 24.7006 144.087 23.406 142.323C22.7252 141.398 22.1028 140.427 21.4989 139.448C20.9942 138.628 20.9613 137.708 21.115 136.832ZM52.7943 117.818L28.1167 134.256L31.0426 138.717L55.8574 122.308L52.7943 117.818ZM28.4658 140.465L25.5169 135.978C25.1897 136.197 24.7962 136.437 24.4263 136.708C23.8652 137.123 23.6943 137.79 24.0497 138.376C24.5655 139.226 25.111 140.058 25.6895 140.868C25.8615 141.126 26.1269 141.306 26.4294 141.371C26.732 141.436 27.048 141.381 27.3107 141.216C27.7389 140.981 28.1273 140.684 28.4586 140.463L28.4658 140.465ZM58.8052 116.942L55.6812 117.115L57.5222 119.909L58.8052 116.942Z" fill="#FFBFC0"/>
</g>
<path d="M85.4548 82.1941C85.2844 82.0444 85.1357 81.899 84.9694 81.7632C82.2809 79.569 79.5514 77.4177 76.9248 75.1705C75.051 73.5579 73.2982 71.8043 72.1613 69.5406C71.4149 68.1151 71.1924 66.4727 71.5325 64.8998C71.8727 63.3269 72.7539 61.9231 74.0227 60.9331C76.3052 59.0932 79.0001 58.2993 81.8028 57.768C87.4371 56.7038 93.1437 56.271 98.8531 55.8265C99.3145 55.805 99.7707 55.7197 100.209 55.573C99.0138 55.2866 97.8043 55.0562 96.6363 54.6841C93.8545 53.7983 91.0437 52.9694 88.3397 51.882C85.407 50.7006 82.5491 49.3183 79.7214 47.8965C77.5294 46.7934 75.4176 45.5208 73.2995 44.2767C71.2919 43.099 69.322 41.8596 67.3345 40.6493C67.1587 40.5426 66.9966 40.4125 66.8208 40.3059C64.8494 39.0215 65.6532 37.1507 66.9146 36.242C67.9715 35.468 69.2206 35.1701 70.4666 34.9003C71.4756 34.682 72.4948 34.5121 73.5088 34.322C73.7329 34.2923 73.9439 34.1995 74.1173 34.0545C73.9631 33.9878 73.813 33.9074 73.6547 33.8544C70.3064 32.7122 66.9076 31.6971 63.6184 30.4037C60.4288 29.1434 57.3079 27.7156 54.2687 26.1262C51.2669 24.5522 37.3122 16.9509 34.4141 15.1935C33.5424 14.6656 44.4913 19.6494 44.9781 18.8836C41.6759 17.3975 42.9973 17.2166 43.8558 17.7436C45.9979 19.0595 51.4671 21.1381 53.6764 22.3305C56.3794 23.7887 59.1282 25.158 61.9508 26.3944C64.797 27.6364 67.7081 28.7504 70.6507 29.7487C75.3946 31.3388 80.2656 32.5216 85.2106 33.2844C85.8151 33.3802 86.4441 33.4215 86.8611 33.9972C87.0529 34.2302 87.1797 34.5098 87.2287 34.8076C87.2778 35.1055 87.2473 35.411 87.1403 35.6932C86.914 36.2836 86.3848 36.4222 85.8134 36.4597C82.146 36.7046 78.4737 36.9131 74.8192 37.2221C73.2925 37.3504 71.7804 37.6817 70.2675 37.9435C69.9496 38.0312 69.64 38.147 69.3425 38.2894C69.5547 38.4738 69.6782 38.5962 69.827 38.7059C73.3356 41.3512 77.0664 43.688 80.9777 45.6902C84.8426 47.644 88.8623 49.2754 92.9958 50.5676C98.6131 52.3261 104.41 53.4505 110.277 53.9199C113.904 54.2076 117.547 54.2337 121.178 53.998C121.947 53.9499 122.587 54.1285 122.975 54.868C123.508 55.8912 123.02 56.8902 121.872 57.0115C120.342 57.1728 118.807 57.2846 117.276 57.4153C108.64 58.1442 100.001 58.8249 91.3723 59.6253C88.2217 59.9183 85.0848 60.4275 81.9602 60.9507C79.9407 61.2872 77.9938 61.925 76.2884 63.1533C74.3415 64.5731 73.8581 66.682 75.1793 68.7335C75.9095 69.8661 76.7723 70.9076 77.7493 71.8358C81.5813 75.4072 85.6786 78.6829 90.0059 81.6348C91.611 82.7426 93.2315 83.8363 94.8965 84.8704C96.0256 85.5732 95.6845 87.0742 94.7812 87.5621C94.5632 87.6733 94.3217 87.7306 94.0769 87.7292C93.8322 87.7279 93.5913 87.6678 93.3746 87.5542C90.202 86.1865 86.7945 85.4462 83.3403 85.3741C77.9985 85.2584 73.0432 86.556 68.6685 89.6891C66.5454 91.2111 64.7332 93.0556 63.5241 95.4106C62.3781 97.6363 62.4216 99.8693 63.4428 102.129C64.2962 104.015 65.5745 105.602 66.8907 107.165C67.0418 107.343 67.1715 107.519 67.3108 107.693C67.9333 108.471 67.8728 109.249 67.1175 109.86C66.4122 110.442 65.5363 110.341 64.9355 109.622C63.3916 107.787 61.8917 105.916 60.8335 103.74C59.5189 101.046 59.1621 98.2663 60.1941 95.4018C60.7045 93.9857 61.4447 92.6634 62.3849 91.4879C65.5879 87.4652 69.7141 84.8519 74.6322 83.4346C77.9215 82.4896 81.3508 82.1279 84.7646 82.3659L85.4187 82.4028L85.4548 82.1941Z" fill="#FFBFC0"/>
<defs>
<clipPath id="clip0_1105_12835">
<rect width="36.3622" height="36.1471" fill="white" transform="translate(55.5312 150) rotate(-168.387)"/>
</clipPath>
</defs>
</svg>
